Nepomuk-Bold.ufo
<glyph name="exclam" format="2">
  <advance width="302"/>
  <unicode hex="0021"/>
  <outline>
    <contour>
      <point x="180" y="216" type="line"/>
      <point x="180" y="344"/>
      <point x="200" y="455"/>
      <point x="226" y="580" type="curve" smooth="yes"/>
      <point x="229" y="595"/>
      <point x="231" y="608"/>
      <point x="231" y="620" type="curve" smooth="yes"/>
      <point x="231" y="665"/>
      <point x="202" y="692"/>
      <point x="150" y="692" type="curve" smooth="yes"/>
      <point x="98" y="692"/>
      <point x="69" y="665"/>
      <point x="69" y="620" type="curve" smooth="yes"/>
      <point x="69" y="608"/>
      <point x="71" y="595"/>
      <point x="74" y="580" type="curve" smooth="yes"/>
      <point x="100" y="455"/>
      <point x="120" y="344"/>
      <point x="120" y="216" type="curve"/>
    </contour>
    <contour>
      <point x="83" y="60" type="curve" smooth="yes"/>
      <point x="83" y="23"/>
      <point x="113" y="-7"/>
      <point x="150" y="-7" type="curve" smooth="yes"/>
      <point x="187" y="-7"/>
      <point x="217" y="23"/>
      <point x="217" y="60" type="curve" smooth="yes"/>
      <point x="217" y="97"/>
      <point x="187" y="127"/>
      <point x="150" y="127" type="curve" smooth="yes"/>
      <point x="113" y="127"/>
      <point x="83" y="97"/>
    </contour>
  </outline>
</glyph>
<glyph name="quotedbl" format="2">
  <advance width="380"/>
  <unicode hex="0022"/>
  <outline>
    <contour>
      <point x="302" y="387" type="line"/>
      <point x="306" y="417" type="line" smooth="yes"/>
      <point x="309" y="439"/>
      <point x="313" y="464"/>
      <point x="317" y="489" type="curve" smooth="yes"/>
      <point x="326" y="549"/>
      <point x="335" y="611"/>
      <point x="335" y="642" type="curve" smooth="yes"/>
      <point x="335" y="667"/>
      <point x="315" y="692"/>
      <point x="275" y="692" type="curve" smooth="yes"/>
      <point x="235" y="692"/>
      <point x="215" y="667"/>
      <point x="215" y="642" type="curve" smooth="yes"/>
      <point x="215" y="611"/>
      <point x="224" y="549"/>
      <point x="233" y="489" type="curve" smooth="yes"/>
      <point x="237" y="464"/>
      <point x="241" y="439"/>
      <point x="244" y="417" type="curve" smooth="yes"/>
      <point x="248" y="387" type="line"/>
    </contour>
    <contour>
      <point x="132" y="387" type="line"/>
      <point x="136" y="417" type="line" smooth="yes"/>
      <point x="139" y="439"/>
      <point x="143" y="464"/>
      <point x="147" y="489" type="curve" smooth="yes"/>
      <point x="156" y="549"/>
      <point x="165" y="611"/>
      <point x="165" y="642" type="curve" smooth="yes"/>
      <point x="165" y="667"/>
      <point x="145" y="692"/>
      <point x="105" y="692" type="curve" smooth="yes"/>
      <point x="65" y="692"/>
      <point x="45" y="667"/>
      <point x="45" y="642" type="curve" smooth="yes"/>
      <point x="45" y="611"/>
      <point x="54" y="549"/>
      <point x="63" y="489" type="curve" smooth="yes"/>
      <point x="67" y="464"/>
      <point x="71" y="439"/>
      <point x="74" y="417" type="curve" smooth="yes"/>
      <point x="78" y="387" type="line"/>
    </contour>
  </outline>
</glyph>
<glyph name="numbersign" format="2">
  <advance width="443"/>
  <unicode hex="0023"/>
  <outline>
    <contour>
      <point x="45" y="377" type="line"/>
      <point x="93" y="391" type="line" smooth="yes"/>
      <point x="97" y="392"/>
      <point x="101" y="393"/>
      <point x="103" y="393" type="curve"/>
      <point x="104" y="393"/>
      <point x="105" y="387"/>
      <point x="105" y="368" type="curve" smooth="yes"/>
      <point x="105" y="222" type="line"/>
      <point x="45" y="205" type="line"/>
      <point x="45" y="101" type="line"/>
      <point x="94" y="116" type="line" smooth="yes"/>
      <point x="98" y="117"/>
      <point x="101" y="117"/>
      <point x="102" y="117" type="curve"/>
      <point x="104" y="117"/>
      <point x="105" y="110"/>
      <point x="105" y="93" type="curve" smooth="yes"/>
      <point x="105" y="-45" type="line"/>
      <point x="175" y="-45" type="line"/>
      <point x="175" y="138" type="line"/>
      <point x="252" y="159" type="line"/>
      <point x="262" y="161" type="line"/>
      <point x="265" y="161"/>
      <point x="268" y="154"/>
      <point x="268" y="133" type="curve" smooth="yes"/>
      <point x="268" y="-12" type="line"/>
      <point x="338" y="-12" type="line"/>
      <point x="338" y="182" type="line"/>
      <point x="398" y="199" type="line"/>
      <point x="398" y="303" type="line"/>
      <point x="352" y="290" type="line"/>
      <point x="355" y="290" type="line"/>
      <point x="351" y="289" type="line"/>
      <point x="348" y="289"/>
      <point x="345" y="288"/>
      <point x="345" y="288" type="curve"/>
      <point x="340" y="288"/>
      <point x="338" y="298"/>
      <point x="338" y="322" type="curve" smooth="yes"/>
      <point x="338" y="458" type="line"/>
      <point x="398" y="475" type="line"/>
      <point x="398" y="578" type="line"/>
      <point x="352" y="566" type="line" smooth="yes"/>
      <point x="348" y="565"/>
      <point x="344" y="564"/>
      <point x="343" y="564" type="curve"/>
      <point x="340" y="564"/>
      <point x="338" y="572"/>
      <point x="338" y="592" type="curve" smooth="yes"/>
      <point x="338" y="725" type="line"/>
      <point x="268" y="725" type="line"/>
      <point x="268" y="542" type="line"/>
      <point x="186" y="520" type="line" smooth="yes"/>
      <point x="183" y="519"/>
      <point x="182" y="519"/>
      <point x="181" y="519" type="curve"/>
      <point x="177" y="519"/>
      <point x="175" y="531"/>
      <point x="175" y="546" type="curve" smooth="yes"/>
      <point x="175" y="692" type="line"/>
      <point x="105" y="692" type="line"/>
      <point x="105" y="498" type="line"/>
      <point x="45" y="481" type="line"/>
    </contour>
    <contour>
      <point x="175" y="414" type="line"/>
      <point x="258" y="436" type="line"/>
      <point x="254" y="436" type="line"/>
      <point x="257" y="436"/>
      <point x="258" y="436"/>
      <point x="259" y="437" type="curve"/>
      <point x="258" y="437" type="line"/>
      <point x="263" y="435"/>
      <point x="268" y="430"/>
      <point x="268" y="411" type="curve" smooth="yes"/>
      <point x="268" y="266" type="line"/>
      <point x="190" y="245" type="line" smooth="yes"/>
      <point x="187" y="244"/>
      <point x="186" y="244"/>
      <point x="185" y="244" type="curve"/>
      <point x="178" y="244"/>
      <point x="175" y="260"/>
      <point x="175" y="275" type="curve"/>
    </contour>
  </outline>
</glyph>
<glyph name="dollar" format="2">
  <advance width="594"/>
  <unicode hex="0024"/>
  <outline>
    <contour>
      <point x="321" y="805" type="line"/>
      <point x="321" y="694" type="line"/>
      <point x="360" y="694"/>
      <point x="433" y="670"/>
      <point x="489" y="628"/>
      <point x="522" y="574"/>
      <point x="522" y="544" type="qcurve" smooth="yes"/>
      <point x="522" y="521"/>
      <point x="493" y="492"/>
      <point x="470" y="492" type="qcurve" smooth="yes"/>
      <point x="448" y="492"/>
      <point x="423" y="513"/>
      <point x="406" y="547"/>
      <point x="393" y="585"/>
      <point x="375" y="619"/>
      <point x="346" y="640" name="hr01"/>
      <point x="321" y="640" type="qcurve"/>
      <point x="321" y="421" type="line"/>
      <point x="382" y="396"/>
      <point x="469" y="346"/>
      <point x="524" y="291"/>
      <point x="550" y="229"/>
      <point x="550" y="193" type="qcurve" smooth="yes"/>
      <point x="550" y="151"/>
      <point x="518" y="79"/>
      <point x="458" y="26"/>
      <point x="374" y="-8"/>
      <point x="321" y="-12" type="qcurve"/>
      <point x="321" y="-158" type="line"/>
      <point x="260" y="-158" type="line"/>
      <point x="260" y="-13" type="line"/>
      <point x="213" y="-10"/>
      <point x="131" y="18"/>
      <point x="71" y="63"/>
      <point x="37" y="122"/>
      <point x="37" y="155" type="qcurve" smooth="yes"/>
      <point x="37" y="187"/>
      <point x="65" y="220"/>
      <point x="90" y="220" type="qcurve" smooth="yes"/>
      <point x="115" y="220"/>
      <point x="147" y="180"/>
      <point x="160" y="126" type="qcurve" smooth="yes"/>
      <point x="180" y="48"/>
      <point x="260" y="42" type="qcurve"/>
      <point x="260" y="290" type="line"/>
      <point x="157" y="332"/>
      <point x="61" y="432"/>
      <point x="61" y="501" type="qcurve" smooth="yes"/>
      <point x="61" y="547"/>
      <point x="96" y="619"/>
      <point x="151" y="669"/>
      <point x="222" y="696"/>
      <point x="260" y="696" type="qcurve"/>
      <point x="260" y="805" type="line"/>
    </contour>
    <contour>
      <point x="436" y="146" type="qcurve" smooth="yes"/>
      <point x="436" y="184"/>
      <point x="384" y="239"/>
      <point x="321" y="266" type="qcurve"/>
      <point x="321" y="44" type="line"/>
      <point x="376" y="51"/>
      <point x="436" y="104"/>
    </contour>
    <contour>
      <point x="163" y="549" type="qcurve" smooth="yes"/>
      <point x="163" y="490"/>
      <point x="260" y="446" type="qcurve"/>
      <point x="260" y="639" type="line"/>
      <point x="240" y="639"/>
      <point x="205" y="625"/>
      <point x="178" y="601"/>
      <point x="163" y="567"/>
    </contour>
  </outline>
</glyph>
<glyph name="percent" format="2">
  <advance width="796"/>
  <unicode hex="0025"/>
  <outline>
    <contour>
      <point x="552" y="166" type="curve" smooth="yes"/>
      <point x="552" y="278"/>
      <point x="568" y="317"/>
      <point x="593" y="317" type="curve" smooth="yes"/>
      <point x="618" y="317"/>
      <point x="634" y="278"/>
      <point x="634" y="166" type="curve" smooth="yes"/>
      <point x="634" y="54"/>
      <point x="618" y="14"/>
      <point x="593" y="14" type="curve" smooth="yes"/>
      <point x="568" y="14"/>
      <point x="552" y="54"/>
    </contour>
    <contour>
      <point x="435" y="166" type="curve" smooth="yes"/>
      <point x="435" y="71"/>
      <point x="503" y="-12"/>
      <point x="593" y="-12" type="curve" smooth="yes"/>
      <point x="683" y="-12"/>
      <point x="751" y="71"/>
      <point x="751" y="166" type="curve" smooth="yes"/>
      <point x="751" y="261"/>
      <point x="683" y="343"/>
      <point x="593" y="343" type="curve" smooth="yes"/>
      <point x="503" y="343"/>
      <point x="435" y="261"/>
    </contour>
    <contour>
      <point x="162" y="516" type="curve" smooth="yes"/>
      <point x="162" y="628"/>
      <point x="178" y="667"/>
      <point x="203" y="667" type="curve" smooth="yes"/>
      <point x="228" y="667"/>
      <point x="244" y="628"/>
      <point x="244" y="516" type="curve" smooth="yes"/>
      <point x="244" y="404"/>
      <point x="228" y="364"/>
      <point x="203" y="364" type="curve" smooth="yes"/>
      <point x="178" y="364" name=".hr01"/>
      <point x="162" y="404"/>
    </contour>
    <contour>
      <point x="45" y="516" type="curve" smooth="yes"/>
      <point x="45" y="421"/>
      <point x="113" y="338"/>
      <point x="203" y="338" type="curve" smooth="yes"/>
      <point x="293" y="338"/>
      <point x="361" y="421"/>
      <point x="361" y="516" type="curve" smooth="yes"/>
      <point x="361" y="611"/>
      <point x="293" y="693"/>
      <point x="203" y="693" type="curve" smooth="yes"/>
      <point x="113" y="693"/>
      <point x="45" y="611"/>
    </contour>
    <contour>
      <point x="671" y="680" type="line"/>
      <point x="594" y="680" type="line"/>
      <point x="125" y="0" type="line"/>
      <point x="202" y="0" type="line"/>
    </contour>
  </outline>
</glyph>
<glyph name="quotesingle" format="2">
  <advance width="210"/>
  <unicode hex="0027"/>
  <outline>
    <contour>
      <point x="132" y="387" type="line"/>
      <point x="148" y="496" type="line" smooth="yes"/>
      <point x="155.785" y="549.032"/>
      <point x="165" y="611"/>
      <point x="165" y="633" type="curve" smooth="yes"/>
      <point x="165" y="667"/>
      <point x="145" y="692"/>
      <point x="105" y="692" type="curve" smooth="yes"/>
      <point x="65" y="692"/>
      <point x="45" y="667"/>
      <point x="45" y="633" type="curve" smooth="yes"/>
      <point x="45" y="611"/>
      <point x="54" y="549"/>
      <point x="62" y="496" type="curve" smooth="yes"/>
      <point x="78" y="387" type="line"/>
    </contour>
  </outline>
</glyph>
<glyph name="parenleft" format="2">
  <advance width="348"/>
  <unicode hex="0028"/>
  <outline>
    <contour>
      <point x="45" y="260" type="curve" smooth="yes"/>
      <point x="45" y="24"/>
      <point x="203" y="-155"/>
      <point x="317" y="-244" type="curve"/>
      <point x="348" y="-211" type="line"/>
      <point x="253" y="-121"/>
      <point x="171" y="17"/>
      <point x="171" y="260" type="curve" smooth="yes"/>
      <point x="171" y="503"/>
      <point x="253" y="641"/>
      <point x="348" y="731" type="curve"/>
      <point x="317" y="764" type="line"/>
      <point x="203" y="675"/>
      <point x="45" y="496"/>
    </contour>
  </outline>
</glyph>
<glyph name="parenright" format="2">
  <advance width="348"/>
  <unicode hex="0029"/>
  <outline>
    <contour>
      <point x="303" y="265" type="curve" smooth="yes"/>
      <point x="303" y="501"/>
      <point x="145" y="680"/>
      <point x="31" y="769" type="curve"/>
      <point x="0" y="736" type="line"/>
      <point x="95" y="646"/>
      <point x="177" y="508"/>
      <point x="177" y="265" type="curve" smooth="yes"/>
      <point x="177" y="22"/>
      <point x="95" y="-116"/>
      <point x="0" y="-206" type="curve"/>
      <point x="31" y="-239" type="line"/>
      <point x="145" y="-150"/>
      <point x="303" y="29"/>
    </contour>
  </outline>
</glyph>
<glyph name="comma" format="2">
  <advance width="335"/>
  <unicode hex="002C"/>
  <outline>
    <contour>
      <point x="152" y="3" type="curve" smooth="yes"/>
      <point x="174" y="3"/>
      <point x="184" y="-5"/>
      <point x="184" y="-30" type="curve" smooth="yes"/>
      <point x="184" y="-91"/>
      <point x="123" y="-142"/>
      <point x="56" y="-158" type="curve"/>
      <point x="64" y="-185" type="line"/>
      <point x="154" y="-168"/>
      <point x="254" y="-110"/>
      <point x="254" y="14" type="curve" smooth="yes"/>
      <point x="254" y="92"/>
      <point x="214" y="130"/>
      <point x="156" y="130" type="curve" smooth="yes"/>
      <point x="104" y="130"/>
      <point x="73" y="99" name="hr01"/>
      <point x="73" y="67" type="curve" smooth="yes"/>
      <point x="73" y="34"/>
      <point x="104" y="3"/>
    </contour>
  </outline>
</glyph>
<glyph name="period" format="2">
  <advance width="282"/>
  <unicode hex="002E"/>
  <outline>
    <contour>
      <point x="65" y="64" type="curve" smooth="yes"/>
      <point x="65" y="22"/>
      <point x="99" y="-12"/>
      <point x="141" y="-12" type="curve" smooth="yes"/>
      <point x="183" y="-12"/>
      <point x="217" y="22"/>
      <point x="217" y="64" type="curve" smooth="yes"/>
      <point x="217" y="106"/>
      <point x="183" y="140"/>
      <point x="141" y="140" type="curve" smooth="yes"/>
      <point x="99" y="140"/>
      <point x="65" y="106"/>
    </contour>
  </outline>
</glyph>
<glyph name="slash" format="2">
  <advance width="354"/>
  <unicode hex="002F"/>
  <outline>
    <contour>
      <point x="288" y="692" type="line"/>
      <point x="14" y="0" type="line"/>
      <point x="91" y="0" type="line"/>
      <point x="365" y="692" type="line"/>
    </contour>
  </outline>
</glyph>
<glyph name="zero" format="2">
  <advance width="587"/>
  <unicode hex="0030"/>
  <outline>
    <contour>
      <point x="35" y="342" type="curve" smooth="yes"/>
      <point x="35" y="147"/>
      <point x="141" y="-12"/>
      <point x="294" y="-12" type="curve" smooth="yes"/>
      <point x="447" y="-12"/>
      <point x="552" y="147"/>
      <point x="552" y="342" type="curve" smooth="yes"/>
      <point x="552" y="537"/>
      <point x="447" y="692"/>
      <point x="294" y="692" type="curve" smooth="yes"/>
      <point x="141" y="692"/>
      <point x="35" y="537"/>
    </contour>
    <contour>
      <point x="294" y="663" type="curve" smooth="yes"/>
      <point x="372" y="663"/>
      <point x="406" y="557"/>
      <point x="406" y="367" type="curve" smooth="yes"/>
      <point x="406" y="312" type="line" smooth="yes"/>
      <point x="406" y="122"/>
      <point x="372" y="17"/>
      <point x="294" y="17" type="curve" smooth="yes"/>
      <point x="216" y="17"/>
      <point x="181" y="122"/>
      <point x="181" y="312" type="curve" smooth="yes"/>
      <point x="181" y="367" type="line" smooth="yes"/>
      <point x="181" y="557"/>
      <point x="216" y="663"/>
    </contour>
  </outline>
</glyph>
<glyph name="two" format="2">
  <advance width="573"/>
  <unicode hex="0032"/>
  <outline>
    <contour>
      <point x="155" y="560" type="curve" smooth="yes"/>
      <point x="149" y="560"/>
      <point x="146" y="565"/>
      <point x="146" y="573" type="curve" smooth="yes"/>
      <point x="146" y="620"/>
      <point x="237" y="658"/>
      <point x="283" y="658" type="curve" smooth="yes"/>
      <point x="328" y="658"/>
      <point x="375" y="623"/>
      <point x="375" y="522" type="curve" smooth="yes"/>
      <point x="375" y="420"/>
      <point x="350" y="359"/>
      <point x="225" y="265" type="curve" smooth="yes"/>
      <point x="146" y="206"/>
      <point x="52" y="101"/>
      <point x="45" y="0" type="curve"/>
      <point x="108" y="0" type="line"/>
      <point x="126" y="56"/>
      <point x="154" y="77"/>
      <point x="181" y="77" type="curve" smooth="yes"/>
      <point x="205" y="77"/>
      <point x="228" y="58"/>
      <point x="252" y="37" type="curve" smooth="yes"/>
      <point x="290" y="6"/>
      <point x="318" y="-12"/>
      <point x="367" y="-12" type="curve" smooth="yes"/>
      <point x="504" y="-12"/>
      <point x="528" y="126"/>
      <point x="528" y="197" type="curve"/>
      <point x="465" y="197" type="line"/>
      <point x="460" y="123"/>
      <point x="434" y="86"/>
      <point x="401" y="86" type="curve" smooth="yes"/>
      <point x="377" y="86"/>
      <point x="348" y="104"/>
      <point x="319" y="122" type="curve" smooth="yes"/>
      <point x="295" y="138"/>
      <point x="271" y="153"/>
      <point x="240" y="158" type="curve" smooth="yes"/>
      <point x="219" y="162"/>
      <point x="209" y="169"/>
      <point x="209" y="182" type="curve" smooth="yes"/>
      <point x="209" y="188"/>
      <point x="211" y="195"/>
      <point x="216" y="199" type="curve" smooth="yes"/>
      <point x="257" y="237"/>
      <point x="296" y="262"/>
      <point x="337" y="283" type="curve" smooth="yes"/>
      <point x="345" y="287" type="line" smooth="yes"/>
      <point x="435" y="332"/>
      <point x="519" y="411"/>
      <point x="519" y="508" type="curve" smooth="yes"/>
      <point x="519" y="618"/>
      <point x="409" y="692"/>
      <point x="289" y="692" type="curve" smooth="yes"/>
      <point x="153" y="692"/>
      <point x="56" y="596"/>
      <point x="56" y="507" type="curve" smooth="yes"/>
      <point x="56" y="444"/>
      <point x="105" y="409"/>
      <point x="158" y="409" type="curve" smooth="yes"/>
      <point x="208" y="409"/>
      <point x="246" y="440"/>
      <point x="246" y="484" type="curve" smooth="yes"/>
      <point x="246" y="526"/>
      <point x="208" y="560"/>
    </contour>
  </outline>
</glyph>
<glyph name="three" format="2">
  <advance width="583"/>
  <unicode hex="0033"/>
  <outline>
    <contour>
      <point x="337" y="369" type="curve"/>
      <point x="426" y="384"/>
      <point x="509" y="452"/>
      <point x="509" y="527" type="curve"/>
      <point x="509" y="624"/>
      <point x="407" y="692"/>
      <point x="295" y="692" type="curve" smooth="yes"/>
      <point x="174" y="692"/>
      <point x="72" y="613"/>
      <point x="72" y="528" type="curve" smooth="yes"/>
      <point x="72" y="476"/>
      <point x="111" y="447"/>
      <point x="161" y="447" type="curve" smooth="yes"/>
      <point x="210" y="447"/>
      <point x="247" y="476"/>
      <point x="247" y="515" type="curve" smooth="yes"/>
      <point x="247" y="549"/>
      <point x="218" y="579"/>
      <point x="187" y="585" type="curve" smooth="yes"/>
      <point x="175" y="588"/>
      <point x="173" y="592"/>
      <point x="173" y="598" type="curve" smooth="yes"/>
      <point x="173" y="637"/>
      <point x="246" y="659"/>
      <point x="272" y="659" type="curve" smooth="yes"/>
      <point x="356" y="659"/>
      <point x="376" y="598"/>
      <point x="376" y="520" type="curve" smooth="yes"/>
      <point x="376" y="446"/>
      <point x="345" y="382"/>
      <point x="200" y="382" type="curve"/>
      <point x="200" y="353" type="line"/>
      <point x="353" y="353"/>
      <point x="391" y="278"/>
      <point x="391" y="186" type="curve" smooth="yes"/>
      <point x="391" y="91"/>
      <point x="350" y="24"/>
      <point x="263" y="24" type="curve" smooth="yes"/>
      <point x="215" y="24"/>
      <point x="176" y="45"/>
      <point x="148" y="68" type="curve" smooth="yes"/>
      <point x="145" y="70"/>
      <point x="137" y="78"/>
      <point x="137" y="84" type="curve" smooth="yes"/>
      <point x="137" y="97"/>
      <point x="149" y="105"/>
      <point x="158" y="107" type="curve" smooth="yes"/>
      <point x="200" y="115"/>
      <point x="230" y="145"/>
      <point x="230" y="182" type="curve" smooth="yes"/>
      <point x="230" y="225"/>
      <point x="190" y="260"/>
      <point x="137" y="260" type="curve" smooth="yes"/>
      <point x="89" y="260"/>
      <point x="35" y="229"/>
      <point x="35" y="164" type="curve" smooth="yes"/>
      <point x="35" y="71"/>
      <point x="143" y="-12"/>
      <point x="275" y="-12" type="curve" smooth="yes"/>
      <point x="460" y="-12"/>
      <point x="538" y="87"/>
      <point x="538" y="175" type="curve" smooth="yes"/>
      <point x="538" y="270"/>
      <point x="448" y="350"/>
    </contour>
  </outline>
</glyph>
<glyph name="four" format="2">
  <advance width="546"/>
  <unicode hex="0034"/>
  <outline>
    <contour>
      <point x="395" y="171" type="line"/>
      <point x="531" y="171" type="line"/>
      <point x="531" y="206" type="line"/>
      <point x="395" y="206" type="line"/>
      <point x="395" y="498" type="line" smooth="yes"/>
      <point x="395" y="503"/>
      <point x="388" y="506"/>
      <point x="376" y="506" type="curve" smooth="yes"/>
      <point x="368" y="506"/>
      <point x="360" y="504"/>
      <point x="358" y="501" type="curve" smooth="yes"/>
      <point x="270" y="372" type="line"/>
      <point x="270" y="206" type="line"/>
      <point x="285" y="206" type="line"/>
      <point x="84" y="206" type="line"/>
      <point x="124" y="271"/>
      <point x="165" y="329"/>
      <point x="205" y="385" type="curve" smooth="yes"/>
      <point x="275" y="484"/>
      <point x="340" y="577"/>
      <point x="386" y="678" type="curve"/>
      <point x="200" y="678" type="line"/>
      <point x="173" y="514"/>
      <point x="113" y="372"/>
      <point x="15" y="203" type="curve"/>
      <point x="15" y="171" type="line"/>
      <point x="270" y="171" type="line"/>
      <point x="270" y="85" type="line" smooth="yes"/>
      <point x="270" y="50"/>
      <point x="259" y="35"/>
      <point x="235" y="35" type="curve" smooth="yes"/>
      <point x="170" y="35" type="line"/>
      <point x="170" y="0" type="line"/>
      <point x="495" y="0" type="line"/>
      <point x="495" y="35" type="line"/>
      <point x="430" y="35" type="line" smooth="yes"/>
      <point x="406" y="35"/>
      <point x="395" y="50"/>
      <point x="395" y="85" type="curve" smooth="yes"/>
    </contour>
  </outline>
</glyph>
<glyph name="six" format="2">
  <advance width="581"/>
  <unicode hex="0036"/>
  <outline>
    <contour>
      <point x="317" y="660" type="curve" smooth="yes"/>
      <point x="340" y="660"/>
      <point x="347" y="652"/>
      <point x="347" y="636" type="curve" smooth="yes"/>
      <point x="347" y="628"/>
      <point x="345" y="619"/>
      <point x="339" y="609" type="curve" smooth="yes"/>
      <point x="332" y="598"/>
      <point x="329" y="586"/>
      <point x="329" y="575" type="curve" smooth="yes"/>
      <point x="329" y="534"/>
      <point x="365" y="504"/>
      <point x="415" y="504" type="curve" smooth="yes"/>
      <point x="465" y="504"/>
      <point x="501" y="535"/>
      <point x="501" y="578" type="curve" smooth="yes"/>
      <point x="501" y="639"/>
      <point x="428" y="692"/>
      <point x="332" y="692" type="curve" smooth="yes"/>
      <point x="165" y="692"/>
      <point x="45" y="530"/>
      <point x="45" y="336" type="curve" smooth="yes"/>
      <point x="45" y="130"/>
      <point x="145" y="-12"/>
      <point x="299" y="-12" type="curve" smooth="yes"/>
      <point x="421" y="-12"/>
      <point x="536" y="78"/>
      <point x="536" y="219" type="curve" smooth="yes"/>
      <point x="536" y="355"/>
      <point x="426" y="426"/>
      <point x="321" y="426" type="curve" smooth="yes"/>
      <point x="261" y="426"/>
      <point x="212" y="403"/>
      <point x="180" y="377" type="curve"/>
      <point x="180" y="406" type="line" smooth="yes"/>
      <point x="180" y="525"/>
      <point x="225" y="660"/>
    </contour>
    <contour>
      <point x="308" y="391" type="curve" smooth="yes"/>
      <point x="359" y="391"/>
      <point x="397" y="330"/>
      <point x="397" y="206" type="curve" smooth="yes"/>
      <point x="397" y="100"/>
      <point x="369" y="20"/>
      <point x="302" y="20" type="curve" smooth="yes"/>
      <point x="226" y="20"/>
      <point x="180" y="122"/>
      <point x="180" y="206" type="curve" smooth="yes"/>
      <point x="180" y="255" type="line" smooth="yes"/>
      <point x="180" y="343"/>
      <point x="262" y="391"/>
    </contour>
  </outline>
</glyph>
<glyph name="seven" format="2">
  <advance width="519"/>
  <unicode hex="0037"/>
  <outline>
    <contour>
      <point x="396" y="523" type="curve" smooth="yes"/>
      <point x="405" y="527"/>
      <point x="409" y="528"/>
      <point x="411" y="528" type="curve"/>
      <point x="407" y="528"/>
      <point x="407" y="524"/>
      <point x="407" y="518" type="curve" smooth="yes"/>
      <point x="407" y="513"/>
      <point x="406" y="510"/>
      <point x="405" y="507" type="curve" smooth="yes"/>
      <point x="373" y="418"/>
      <point x="325" y="353"/>
      <point x="278" y="287" type="curve" smooth="yes"/>
      <point x="214" y="198"/>
      <point x="150" y="109"/>
      <point x="126" y="-1" type="curve"/>
      <point x="310" y="-1" type="line"/>
      <point x="310" y="131"/>
      <point x="355" y="225"/>
      <point x="402" y="322" type="curve" smooth="yes"/>
      <point x="452" y="429"/>
      <point x="504" y="538"/>
      <point x="504" y="692" type="curve"/>
      <point x="438" y="692" type="line"/>
      <point x="428" y="644"/>
      <point x="416" y="618" name="hr01"/>
      <point x="378" y="618" type="curve" smooth="yes"/>
      <point x="349" y="618"/>
      <point x="321" y="633"/>
      <point x="293" y="648" type="curve" smooth="yes"/>
      <point x="264" y="664"/>
      <point x="235" y="680" name="hr02"/>
      <point x="188" y="680" type="curve" smooth="yes"/>
      <point x="144" y="680"/>
      <point x="114" y="666"/>
      <point x="90" y="633" type="curve"/>
      <point x="100" y="633"/>
      <point x="100" y="640"/>
      <point x="100" y="654" type="curve" smooth="yes"/>
      <point x="100" y="692" type="line"/>
      <point x="35" y="692" type="line"/>
      <point x="35" y="462" type="line"/>
      <point x="100" y="462" type="line"/>
      <point x="106" y="542"/>
      <point x="122" y="584" name="hr04"/>
      <point x="159" y="584" type="curve" smooth="yes"/>
      <point x="185" y="584"/>
      <point x="216" y="566"/>
      <point x="246" y="548" type="curve" smooth="yes"/>
      <point x="275" y="531"/>
      <point x="303" y="514" name="hr05"/>
      <point x="342" y="514" type="curve" smooth="yes"/>
      <point x="363" y="514"/>
      <point x="381" y="516"/>
    </contour>
  </outline>
</glyph>
<glyph name="nine" format="2">
  <advance width="581"/>
  <unicode hex="0039"/>
  <outline>
    <contour>
      <point x="236" y="97" type="curve" smooth="yes"/>
      <point x="236" y="140"/>
      <point x="198" y="168"/>
      <point x="151" y="168" type="curve" smooth="yes"/>
      <point x="98" y="168"/>
      <point x="63" y="136"/>
      <point x="63" y="99" type="curve" smooth="yes"/>
      <point x="63" y="26"/>
      <point x="137" y="-12"/>
      <point x="240" y="-12" type="curve" smooth="yes"/>
      <point x="401" y="-12"/>
      <point x="536" y="174"/>
      <point x="536" y="368" type="curve" smooth="yes"/>
      <point x="536" y="574"/>
      <point x="436" y="692"/>
      <point x="275" y="692" type="curve" smooth="yes"/>
      <point x="160" y="692"/>
      <point x="45" y="604" name="hr01"/>
      <point x="45" y="454" type="curve" smooth="yes"/>
      <point x="45" y="318"/>
      <point x="160" y="254"/>
      <point x="264" y="254" type="curve" smooth="yes"/>
      <point x="325" y="254"/>
      <point x="371" y="272"/>
      <point x="401" y="297" type="curve"/>
      <point x="401" y="274" type="line" smooth="yes"/>
      <point x="401" y="166"/>
      <point x="342" y="20"/>
      <point x="240" y="20" type="curve" smooth="yes"/>
      <point x="227" y="20"/>
      <point x="224" y="33"/>
      <point x="224" y="44" type="curve" smooth="yes"/>
      <point x="224" y="51"/>
      <point x="226" y="57"/>
      <point x="227" y="62" type="curve" smooth="yes"/>
      <point x="228" y="64"/>
      <point x="228" y="66"/>
      <point x="229" y="68" type="curve" smooth="yes"/>
      <point x="233" y="79"/>
      <point x="236" y="89" name="hr02"/>
    </contour>
    <contour>
      <point x="282" y="289" type="curve" smooth="yes"/>
      <point x="227" y="289"/>
      <point x="184" y="343"/>
      <point x="184" y="458" type="curve" smooth="yes"/>
      <point x="184" y="580"/>
      <point x="212" y="660"/>
      <point x="278" y="660" type="curve" smooth="yes"/>
      <point x="355" y="660"/>
      <point x="401" y="558"/>
      <point x="401" y="474" type="curve" smooth="yes"/>
      <point x="401" y="419" type="line" smooth="yes"/>
      <point x="401" y="331"/>
      <point x="323" y="289"/>
    </contour>
  </outline>
</glyph>
<glyph name="colon" format="2">
  <advance width="282"/>
  <unicode hex="003A"/>
  <outline>
    <contour>
      <point x="65" y="380" type="curve" smooth="yes"/>
      <point x="65" y="338"/>
      <point x="99" y="304"/>
      <point x="141" y="304" type="curve" smooth="yes"/>
      <point x="183" y="304"/>
      <point x="217" y="338"/>
      <point x="217" y="380" type="curve" smooth="yes"/>
      <point x="217" y="422"/>
      <point x="183" y="456"/>
      <point x="141" y="456" type="curve" smooth="yes"/>
      <point x="99" y="456"/>
      <point x="65" y="422"/>
    </contour>
    <contour>
      <point x="65" y="64" type="curve" smooth="yes"/>
      <point x="65" y="22"/>
      <point x="99" y="-12"/>
      <point x="141" y="-12" type="curve" smooth="yes"/>
      <point x="183" y="-12"/>
      <point x="217" y="22"/>
      <point x="217" y="64" type="curve" smooth="yes"/>
      <point x="217" y="106"/>
      <point x="183" y="140"/>
      <point x="141" y="140" type="curve" smooth="yes"/>
      <point x="99" y="140"/>
      <point x="65" y="106"/>
    </contour>
  </outline>
</glyph>
<glyph name="semicolon" format="2">
  <advance width="314"/>
  <unicode hex="003B"/>
  <outline>
    <contour>
      <point x="82" y="391" type="curve" smooth="yes"/>
      <point x="82" y="352"/>
      <point x="115" y="320"/>
      <point x="159" y="320" type="curve" smooth="yes"/>
      <point x="202" y="320"/>
      <point x="235" y="352"/>
      <point x="235" y="391" type="curve" smooth="yes"/>
      <point x="235" y="430"/>
      <point x="202" y="462"/>
      <point x="159" y="462" type="curve" smooth="yes"/>
      <point x="115" y="462"/>
      <point x="82" y="430"/>
    </contour>
    <contour>
      <point x="150" y="17" type="curve" smooth="yes"/>
      <point x="173" y="17"/>
      <point x="183" y="8"/>
      <point x="183" y="-19" type="curve" smooth="yes"/>
      <point x="183" y="-87"/>
      <point x="123" y="-144"/>
      <point x="56" y="-162" type="curve"/>
      <point x="63" y="-191" type="line"/>
      <point x="152" y="-172"/>
      <point x="251" y="-108"/>
      <point x="251" y="29" type="curve" smooth="yes"/>
      <point x="251" y="116"/>
      <point x="212" y="159"/>
      <point x="155" y="159" type="curve" smooth="yes"/>
      <point x="105" y="159"/>
      <point x="73" y="124"/>
      <point x="73" y="88" type="curve" smooth="yes"/>
      <point x="73" y="52"/>
      <point x="105" y="17"/>
    </contour>
  </outline>
</glyph>
<glyph name="less" format="2">
  <advance width="695"/>
  <unicode hex="003C"/>
  <outline>
    <contour>
      <point x="612" y="-50" type="line"/>
      <point x="45" y="263" type="line"/>
      <point x="45" y="294" type="line"/>
      <point x="612" y="607" type="line"/>
      <point x="636" y="564" type="line"/>
      <point x="118" y="279" type="line"/>
      <point x="636" y="-7" type="line"/>
    </contour>
  </outline>
</glyph>
<glyph name="greater" format="2">
  <advance width="963"/>
  <unicode hex="003E"/>
  <outline>
    <contour>
      <point x="121" y="-160" type="line"/>
      <point x="88" y="-102" type="line"/>
      <point x="778" y="279" type="line"/>
      <point x="88" y="659" type="line"/>
      <point x="121" y="717" type="line"/>
      <point x="877" y="299" type="line"/>
      <point x="877" y="258" type="line"/>
    </contour>
  </outline>
</glyph>
<glyph name="question" format="2">
  <advance width="418"/>
  <unicode hex="003F"/>
  <outline>
    <contour>
      <point x="267" y="556" type="curve" smooth="yes"/>
      <point x="267" y="641"/>
      <point x="228" y="664"/>
      <point x="191" y="664" type="curve" smooth="yes"/>
      <point x="136" y="664"/>
      <point x="108" y="634"/>
      <point x="108" y="611" type="curve" smooth="yes"/>
      <point x="108" y="597"/>
      <point x="114" y="593"/>
      <point x="120" y="588" type="curve"/>
      <point x="122" y="587" type="line"/>
      <point x="141" y="574"/>
      <point x="163" y="559" name="hr01"/>
      <point x="163" y="537" type="curve" smooth="yes"/>
      <point x="163" y="500"/>
      <point x="127" y="476"/>
      <point x="88" y="476" type="curve" smooth="yes"/>
      <point x="37" y="476"/>
      <point x="5" y="511"/>
      <point x="5" y="557" type="curve" smooth="yes"/>
      <point x="5" y="630"/>
      <point x="92" y="692"/>
      <point x="204" y="692" type="curve" smooth="yes"/>
      <point x="319" y="692"/>
      <point x="403" y="638"/>
      <point x="403" y="546" type="curve" smooth="yes"/>
      <point x="403" y="470"/>
      <point x="354" y="427"/>
      <point x="305" y="384" type="curve" smooth="yes"/>
      <point x="246" y="331"/>
      <point x="222" y="302" name="hr02"/>
      <point x="222" y="216" type="curve"/>
      <point x="156" y="216" type="line"/>
      <point x="155" y="224"/>
      <point x="155" y="231"/>
      <point x="155" y="237" type="curve" smooth="yes"/>
      <point x="155" y="291"/>
      <point x="181" y="334"/>
      <point x="209" y="379" type="curve" smooth="yes"/>
      <point x="237" y="425"/>
      <point x="267" y="474"/>
    </contour>
    <contour>
      <point x="147" y="55" type="curve" smooth="yes"/>
      <point x="147" y="21"/>
      <point x="169" y="-7"/>
      <point x="194" y="-7" type="curve" smooth="yes"/>
      <point x="219" y="-7"/>
      <point x="241" y="21"/>
      <point x="241" y="55" type="curve" smooth="yes"/>
      <point x="241" y="89"/>
      <point x="219" y="117"/>
      <point x="194" y="117" type="curve" smooth="yes"/>
      <point x="169" y="117"/>
      <point x="147" y="89"/>
    </contour>
  </outline>
</glyph>
<glyph name="at" format="2">
  <advance width="840"/>
  <unicode hex="0040"/>
  <outline>
    <contour>
      <point x="413" y="-18" type="curve" smooth="yes"/>
      <point x="203" y="-18"/>
      <point x="45" y="138"/>
      <point x="45" y="350" type="curve" smooth="yes"/>
      <point x="45" y="570"/>
      <point x="212" y="748"/>
      <point x="430" y="748" type="curve" smooth="yes"/>
      <point x="623" y="748"/>
      <point x="795" y="610"/>
      <point x="795" y="418" type="curve" smooth="yes"/>
      <point x="795" y="280"/>
      <point x="706" y="133"/>
      <point x="571" y="133" type="curve" smooth="yes"/>
      <point x="510" y="133"/>
      <point x="471" y="163"/>
      <point x="466" y="211" type="curve"/>
      <point x="462" y="212" type="line"/>
      <point x="430" y="169"/>
      <point x="382" y="133"/>
      <point x="323" y="133" type="curve" smooth="yes"/>
      <point x="248" y="133"/>
      <point x="205" y="190"/>
      <point x="205" y="277" type="curve" smooth="yes"/>
      <point x="205" y="394"/>
      <point x="281" y="592"/>
      <point x="424" y="592" type="curve" smooth="yes"/>
      <point x="477" y="592"/>
      <point x="503" y="565"/>
      <point x="511" y="536" type="curve"/>
      <point x="515" y="536" type="line"/>
      <point x="526" y="580" type="line"/>
      <point x="636" y="580" type="line"/>
      <point x="561" y="263" type="line"/>
      <point x="558" y="245"/>
      <point x="556" y="230"/>
      <point x="556" y="219" type="curve" smooth="yes"/>
      <point x="556" y="184"/>
      <point x="577" y="166" name="hr01"/>
      <point x="604" y="166" type="curve" smooth="yes"/>
      <point x="691" y="166"/>
      <point x="721" y="346"/>
      <point x="721" y="409" type="curve" smooth="yes"/>
      <point x="721" y="597"/>
      <point x="598" y="715"/>
      <point x="432" y="715" type="curve" smooth="yes"/>
      <point x="228" y="715"/>
      <point x="119" y="538"/>
      <point x="119" y="347" type="curve" smooth="yes"/>
      <point x="119" y="147"/>
      <point x="239" y="15"/>
      <point x="436" y="15" type="curve" smooth="yes"/>
      <point x="501" y="15"/>
      <point x="564" y="44"/>
      <point x="608" y="73" type="curve"/>
      <point x="624" y="45" type="line"/>
      <point x="580" y="13"/>
      <point x="507" y="-18"/>
    </contour>
    <contour>
      <point x="361" y="158" type="curve" smooth="yes"/>
      <point x="443" y="158" name="hr02"/>
      <point x="495" y="430"/>
      <point x="495" y="497" type="curve" smooth="yes"/>
      <point x="495" y="535"/>
      <point x="478" y="567"/>
      <point x="444" y="567" type="curve" smooth="yes"/>
      <point x="346" y="567"/>
      <point x="315" y="299"/>
      <point x="315" y="236" type="curve" smooth="yes"/>
      <point x="315" y="187"/>
      <point x="334" y="158"/>
    </contour>
  </outline>
</glyph>
<glyph name="A" format="2">
  <advance width="730"/>
  <unicode hex="0041"/>
  <anchor x="374" y="750" name="t.dieresis"/>
  <anchor x="374" y="720" name="t.asciicircum_1"/>
  <outline>
    <contour>
      <point x="267.65" y="35" type="line"/>
      <point x="212.1" y="35" type="line" smooth="yes"/>
      <point x="183.82" y="35"/>
      <point x="168.67" y="38"/>
      <point x="168.67" y="62" type="curve" smooth="yes"/>
      <point x="168.67" y="73"/>
      <point x="171.7" y="86"/>
      <point x="178.77" y="101" type="curve"/>
      <point x="223.21" y="216" type="line"/>
      <point x="443.39" y="216" type="line"/>
      <point x="481.77" y="110" type="line" smooth="yes"/>
      <point x="487.83" y="94"/>
      <point x="490.86" y="80"/>
      <point x="490.86" y="67" type="curve" smooth="yes"/>
      <point x="490.86" y="40"/>
      <point x="475.71" y="35"/>
      <point x="450.46" y="35" type="curve" smooth="yes"/>
      <point x="402.99" y="35" type="line"/>
      <point x="402.99" y="0" type="line"/>
      <point x="714.07" y="0" type="line"/>
      <point x="714.07" y="35" type="line"/>
      <point x="684.78" y="35" type="line" smooth="yes"/>
      <point x="648.42" y="35"/>
      <point x="642.36" y="37"/>
      <point x="617.11" y="106" type="curve" smooth="yes"/>
      <point x="405.01" y="692" type="line"/>
      <point x="359.56" y="692" type="line"/>
      <point x="125.24" y="96" type="line" smooth="yes"/>
      <point x="102.01" y="37"/>
      <point x="90.9" y="35"/>
      <point x="53.53" y="35" type="curve" smooth="yes"/>
      <point x="16.16" y="35" type="line"/>
      <point x="16.16" y="0" type="line"/>
      <point x="267.65" y="0" type="line"/>
    </contour>
    <contour>
      <point x="237.35" y="252" type="line"/>
      <point x="339.36" y="516" type="line"/>
      <point x="431.27" y="252" type="line"/>
      <point x="446.42" y="252" type="line"/>
    </contour>
  </outline>
</glyph>
<glyph name="B" format="2">
  <advance width="642"/>
  <unicode hex="0042"/>
  <outline>
    <contour>
      <point x="455" y="362" type="curve"/>
      <point x="445" y="365" type="line"/>
      <point x="445" y="370" type="line"/>
      <point x="526" y="395"/>
      <point x="575" y="453"/>
      <point x="575" y="514" type="curve" smooth="yes"/>
      <point x="575" y="619"/>
      <point x="490" y="680"/>
      <point x="328" y="680" type="curve" smooth="yes"/>
      <point x="52" y="680" type="line"/>
      <point x="52" y="645" type="line"/>
      <point x="97" y="645" type="line" smooth="yes"/>
      <point x="128" y="645"/>
      <point x="132" y="640"/>
      <point x="132" y="595" type="curve" smooth="yes"/>
      <point x="132" y="85" type="line" smooth="yes"/>
      <point x="132" y="40"/>
      <point x="128" y="35"/>
      <point x="97" y="35" type="curve" smooth="yes"/>
      <point x="52" y="35" type="line"/>
      <point x="52" y="0" type="line"/>
      <point x="338" y="0" type="line" smooth="yes"/>
      <point x="509" y="0"/>
      <point x="619" y="65" name="hr01"/>
      <point x="619" y="190" type="curve" smooth="yes"/>
      <point x="619" y="274"/>
      <point x="554" y="340"/>
    </contour>
    <contour>
      <point x="318" y="384" type="curve" smooth="yes"/>
      <point x="257" y="384" type="line"/>
      <point x="257" y="604" type="line" smooth="yes"/>
      <point x="257" y="636"/>
      <point x="295" y="644"/>
      <point x="311" y="644" type="curve" smooth="yes"/>
      <point x="318" y="644" type="line" smooth="yes"/>
      <point x="389" y="644"/>
      <point x="439" y="609"/>
      <point x="439" y="514" type="curve" smooth="yes"/>
      <point x="439" y="419"/>
      <point x="389" y="384"/>
    </contour>
    <contour>
      <point x="316" y="36" type="line" smooth="yes"/>
      <point x="299" y="36"/>
      <point x="257" y="44"/>
      <point x="257" y="76" type="curve" smooth="yes"/>
      <point x="257" y="347" type="line"/>
      <point x="242" y="347" type="line"/>
      <point x="328" y="347" type="line" smooth="yes"/>
      <point x="419" y="347"/>
      <point x="479" y="300"/>
      <point x="479" y="190" type="curve" smooth="yes"/>
      <point x="479" y="80" name="hr03"/>
      <point x="419" y="36"/>
      <point x="328" y="36" type="curve" smooth="yes"/>
    </contour>
  </outline>
</glyph>
<glyph name="C" format="2">
  <advance width="614"/>
  <unicode hex="0043"/>
  <anchor x="331" y="730" name="t.asciicircum_1"/>
  <anchor x="331" y="750" name="t.dieresis"/>
  <outline>
    <contour>
      <point x="570" y="208" type="line"/>
      <point x="513" y="217" type="line"/>
      <point x="496" y="103"/>
      <point x="427" y="30"/>
      <point x="336" y="30" type="curve" smooth="yes"/>
      <point x="257" y="30"/>
      <point x="180" y="90"/>
      <point x="180" y="340" type="curve" smooth="yes"/>
      <point x="180" y="590"/>
      <point x="251" y="656"/>
      <point x="331" y="656" type="curve" smooth="yes"/>
      <point x="401" y="656"/>
      <point x="476" y="609"/>
      <point x="503" y="436" type="curve"/>
      <point x="573" y="436" type="line"/>
      <point x="573" y="692" type="line"/>
      <point x="510" y="692" type="line"/>
      <point x="502" y="678" type="line" smooth="yes"/>
      <point x="491" y="658"/>
      <point x="485" y="649"/>
      <point x="481" y="649" type="curve" smooth="yes"/>
      <point x="476" y="649"/>
      <point x="464" y="654"/>
      <point x="446" y="664" type="curve" smooth="yes"/>
      <point x="419" y="678"/>
      <point x="391" y="692"/>
      <point x="331" y="692" type="curve" smooth="yes"/>
      <point x="145" y="692"/>
      <point x="33" y="535"/>
      <point x="33" y="340" type="curve" smooth="yes"/>
      <point x="33" y="121"/>
      <point x="162" y="-12"/>
      <point x="331" y="-12" type="curve" smooth="yes"/>
      <point x="455" y="-12"/>
      <point x="560" y="63"/>
      <point x="580" y="208" type="curve"/>
    </contour>
  </outline>
</glyph>
<glyph name="D" format="2">
  <advance width="690"/>
  <unicode hex="0044"/>
  <outline>
    <contour>
      <point x="48.3679" y="0.0735" type="line"/>
      <point x="294.693" y="0.0735" type="line" smooth="yes"/>
      <point x="410.958" y="0.0735"/>
      <point x="459.238" y="9.9265"/>
      <point x="513.43" y="48.3532" type="curve"/>
      <point x="602.107" y="108.457"/>
      <point x="655.313" y="218.81"/>
      <point x="655.313" y="342.958" type="curve" smooth="yes"/>
      <point x="655.313" y="494.694"/>
      <point x="572.548" y="644.46"/>
      <point x="412.929" y="672.048" type="curve" smooth="yes"/>
      <point x="377.458" y="678.945"/>
      <point x="356.767" y="679.931"/>
      <point x="281.884" y="679.931" type="curve" smooth="yes"/>
      <point x="48.3679" y="679.931" type="line"/>
      <point x="48.3679" y="629.68" type="line"/>
      <point x="71.0298" y="629.68" type="line" smooth="yes"/>
      <point x="95.6623" y="629.68"/>
      <point x="114.383" y="627.71"/>
      <point x="121.28" y="619.827" type="curve"/>
      <point x="127.192" y="609.974"/>
      <point x="129.163" y="588.298"/>
      <point x="129.163" y="541.989" type="curve" smooth="yes"/>
      <point x="129.163" y="138.016" type="line" smooth="yes"/>
      <point x="129.163" y="91.7064"/>
      <point x="127.192" y="70.0298"/>
      <point x="121.28" y="60.1768" type="curve"/>
      <point x="114.383" y="52.2944"/>
      <point x="96.6476" y="50.3238"/>
      <point x="71.0298" y="50.3238" type="curve" smooth="yes"/>
      <point x="48.3679" y="50.3238" type="line"/>
    </contour>
    <contour>
      <point x="279.913" y="550.856" type="line" smooth="yes"/>
      <point x="279.913" y="597.165"/>
      <point x="291.737" y="628.695"/>
      <point x="345.929" y="628.695" type="curve" smooth="yes"/>
      <point x="391.252" y="628.695"/>
      <point x="429.679" y="598.151"/>
      <point x="453.326" y="541.989" type="curve" smooth="yes"/>
      <point x="475.003" y="493.709"/>
      <point x="482.885" y="438.532"/>
      <point x="482.885" y="337.046" type="curve" smooth="yes"/>
      <point x="482.885" y="241.472"/>
      <point x="479.929" y="50.3238"/>
      <point x="341.987" y="50.3238" type="curve" smooth="yes"/>
      <point x="319.325" y="50.3238"/>
      <point x="299.619" y="59.1915"/>
      <point x="289.766" y="72.0004" type="curve"/>
      <point x="280.899" y="85.7946"/>
      <point x="279.913" y="90.7211"/>
      <point x="279.913" y="138.016" type="curve" smooth="yes"/>
    </contour>
  </outline>
</glyph>
<glyph name="E" format="2">
  <advance width="657"/>
  <unicode hex="0045"/>
  <anchor x="352" y="730" name="t.asciicircum_1"/>
  <anchor x="352" y="750" name="t.dieresis"/>
  <outline>
    <contour>
      <point x="48" y="680" type="line"/>
      <point x="48" y="645" type="line"/>
      <point x="93" y="645" type="line" smooth="yes"/>
      <point x="124" y="645"/>
      <point x="128" y="640"/>
      <point x="128" y="595" type="curve" smooth="yes"/>
      <point x="128" y="85" type="line" smooth="yes"/>
      <point x="128" y="40"/>
      <point x="124" y="35"/>
      <point x="93" y="35" type="curve" smooth="yes"/>
      <point x="48" y="35" type="line"/>
      <point x="48" y="0" type="line"/>
      <point x="609" y="0" type="line"/>
      <point x="614" y="269" type="line"/>
      <point x="554" y="269" type="line"/>
      <point x="532" y="148"/>
      <point x="514" y="36"/>
      <point x="363" y="36" type="curve" smooth="yes"/>
      <point x="289" y="36" type="line" smooth="yes"/>
      <point x="271" y="36"/>
      <point x="253" y="55"/>
      <point x="253" y="79" type="curve" smooth="yes"/>
      <point x="253" y="326" type="line"/>
      <point x="311" y="326" type="line" smooth="yes"/>
      <point x="357" y="326"/>
      <point x="387" y="270"/>
      <point x="395" y="180" type="curve"/>
      <point x="450" y="180" type="line"/>
      <point x="450" y="507" type="line"/>
      <point x="395" y="507" type="line"/>
      <point x="387" y="417"/>
      <point x="360" y="362"/>
      <point x="311" y="362" type="curve" smooth="yes"/>
      <point x="253" y="362" type="line"/>
      <point x="253" y="604" type="line" smooth="yes"/>
      <point x="253" y="628"/>
      <point x="280" y="644"/>
      <point x="303" y="644" type="curve" smooth="yes"/>
      <point x="366" y="644" type="line" smooth="yes"/>
      <point x="484" y="644"/>
      <point x="520" y="576"/>
      <point x="537" y="449" type="curve" name="hr01"/>
      <point x="597" y="449" type="line"/>
      <point x="592" y="680" type="line"/>
    </contour>
  </outline>
</glyph>
<glyph name="F" format="2">
  <advance width="608"/>
  <unicode hex="0046"/>
  <outline>
    <contour>
      <point x="353" y="644" type="line" smooth="yes"/>
      <point x="471" y="644"/>
      <point x="507" y="576"/>
      <point x="524" y="449" type="curve" name="hr01"/>
      <point x="584" y="449" type="line"/>
      <point x="579" y="680" type="line"/>
      <point x="35" y="680" type="line"/>
      <point x="35" y="645" type="line"/>
      <point x="80" y="645" type="line" smooth="yes"/>
      <point x="111" y="645"/>
      <point x="115" y="640"/>
      <point x="115" y="595" type="curve" smooth="yes"/>
      <point x="115" y="85" type="line" smooth="yes"/>
      <point x="115" y="40"/>
      <point x="111" y="35"/>
      <point x="80" y="35" type="curve" smooth="yes"/>
      <point x="35" y="35" type="line"/>
      <point x="35" y="0" type="line"/>
      <point x="350" y="0" type="line"/>
      <point x="350" y="35" type="line"/>
      <point x="275" y="35" type="line" smooth="yes"/>
      <point x="244" y="35"/>
      <point x="240" y="40"/>
      <point x="240" y="85" type="curve" smooth="yes"/>
      <point x="240" y="326" type="line"/>
      <point x="225" y="326" type="line"/>
      <point x="298" y="326" type="line" smooth="yes"/>
      <point x="344" y="326"/>
      <point x="374" y="270"/>
      <point x="382" y="180" type="curve"/>
      <point x="437" y="180" type="line"/>
      <point x="437" y="507" type="line"/>
      <point x="382" y="507" type="line"/>
      <point x="374" y="417"/>
      <point x="347" y="362"/>
      <point x="298" y="362" type="curve" smooth="yes"/>
      <point x="240" y="362" type="line"/>
      <point x="240" y="604" type="line" smooth="yes"/>
      <point x="240" y="628"/>
      <point x="267" y="644" name="hr02"/>
      <point x="290" y="644" type="curve" smooth="yes"/>
    </contour>
  </outline>
</glyph>
<glyph name="G" format="2">
  <advance width="715"/>
  <unicode hex="0047"/>
  <outline>
    <contour>
      <point x="596" y="272" type="line" smooth="yes"/>
      <point x="596" y="317"/>
      <point x="600" y="322"/>
      <point x="631" y="322" type="curve" smooth="yes"/>
      <point x="686" y="322" type="line"/>
      <point x="686" y="358" type="line"/>
      <point x="381" y="358" type="line"/>
      <point x="381" y="322" type="line"/>
      <point x="436" y="322" type="line" smooth="yes"/>
      <point x="467" y="322"/>
      <point x="471" y="317"/>
      <point x="471" y="272" type="curve" smooth="yes"/>
      <point x="471" y="187" type="line" smooth="yes"/>
      <point x="471" y="73"/>
      <point x="409" y="27"/>
      <point x="356" y="27" type="curve" smooth="yes"/>
      <point x="270" y="27"/>
      <point x="195" y="90"/>
      <point x="195" y="340" type="curve" smooth="yes"/>
      <point x="195" y="590"/>
      <point x="266" y="656"/>
      <point x="346" y="656" type="curve" smooth="yes"/>
      <point x="416" y="656"/>
      <point x="491" y="609"/>
      <point x="518" y="436" type="curve"/>
      <point x="588" y="436" type="line"/>
      <point x="588" y="692" type="line"/>
      <point x="525" y="692" type="line"/>
      <point x="517" y="677" type="line"/>
      <point x="518" y="677" type="line"/>
      <point x="504" y="657"/>
      <point x="496" y="647"/>
      <point x="496" y="647" type="curve"/>
      <point x="495" y="647"/>
      <point x="487" y="651"/>
      <point x="475" y="657" type="curve" smooth="yes"/>
      <point x="461" y="664" type="line"/>
      <point x="434" y="679"/>
      <point x="406" y="692"/>
      <point x="346" y="692" type="curve" smooth="yes"/>
      <point x="157" y="692"/>
      <point x="48" y="535"/>
      <point x="48" y="340" type="curve" smooth="yes"/>
      <point x="48" y="146"/>
      <point x="160" y="-12"/>
      <point x="337" y="-12" type="curve" smooth="yes"/>
      <point x="392" y="-12"/>
      <point x="442" y="4"/>
      <point x="481" y="37" type="curve"/>
      <point x="480" y="37" type="line"/>
      <point x="485" y="40" type="line"/>
      <point x="497" y="51"/>
      <point x="505" y="57"/>
      <point x="506" y="57" type="curve"/>
      <point x="507" y="57"/>
      <point x="513" y="44"/>
      <point x="528" y="7" type="curve"/>
      <point x="537" y="-12" type="line"/>
      <point x="596" y="-12" type="line"/>
    </contour>
  </outline>
</glyph>
<glyph name="H" format="2">
  <advance width="735"/>
  <unicode hex="0048"/>
  <outline>
    <contour>
      <point x="616" y="595" type="line" smooth="yes"/>
      <point x="616" y="640"/>
      <point x="620" y="645"/>
      <point x="651" y="645" type="curve" smooth="yes"/>
      <point x="696" y="645" type="line"/>
      <point x="696" y="680" type="line"/>
      <point x="401" y="680" type="line"/>
      <point x="401" y="645" type="line"/>
      <point x="456" y="645" type="line" smooth="yes"/>
      <point x="487" y="645"/>
      <point x="491" y="640"/>
      <point x="491" y="595" type="curve" smooth="yes"/>
      <point x="491" y="361" type="line"/>
      <point x="243" y="361" type="line"/>
      <point x="243" y="595" type="line" smooth="yes"/>
      <point x="243" y="640"/>
      <point x="247" y="645"/>
      <point x="278" y="645" type="curve" smooth="yes"/>
      <point x="333" y="645" type="line"/>
      <point x="333" y="680" type="line"/>
      <point x="38" y="680" type="line"/>
      <point x="38" y="645" type="line"/>
      <point x="83" y="645" type="line" smooth="yes"/>
      <point x="114" y="645"/>
      <point x="118" y="640"/>
      <point x="118" y="595" type="curve" smooth="yes"/>
      <point x="118" y="85" type="line" smooth="yes"/>
      <point x="118" y="40"/>
      <point x="114" y="35"/>
      <point x="83" y="35" type="curve" smooth="yes"/>
      <point x="38" y="35" type="line"/>
      <point x="38" y="0" type="line"/>
      <point x="333" y="0" type="line"/>
      <point x="333" y="35" type="line"/>
      <point x="278" y="35" type="line" smooth="yes"/>
      <point x="247" y="35"/>
      <point x="243" y="40"/>
      <point x="243" y="85" type="curve" smooth="yes"/>
      <point x="243" y="325" type="line"/>
      <point x="491" y="325" type="line"/>
      <point x="491" y="85" type="line" smooth="yes"/>
      <point x="491" y="40"/>
      <point x="487" y="35"/>
      <point x="456" y="35" type="curve" smooth="yes"/>
      <point x="401" y="35" type="line"/>
      <point x="401" y="0" type="line"/>
      <point x="696" y="0" type="line"/>
      <point x="696" y="35" type="line"/>
      <point x="651" y="35" type="line" smooth="yes"/>
      <point x="620" y="35"/>
      <point x="616" y="40"/>
      <point x="616" y="85" type="curve" smooth="yes"/>
    </contour>
  </outline>
</glyph>
<glyph name="I" format="2">
  <advance width="408"/>
  <unicode hex="0049"/>
  <outline>
    <contour>
      <point x="266" y="595" type="line" smooth="yes"/>
      <point x="266" y="640"/>
      <point x="270" y="645"/>
      <point x="301" y="645" type="curve" smooth="yes"/>
      <point x="346" y="645" type="line"/>
      <point x="346" y="680" type="line"/>
      <point x="61" y="680" type="line"/>
      <point x="61" y="645" type="line"/>
      <point x="106" y="645" type="line" smooth="yes"/>
      <point x="137" y="645"/>
      <point x="141" y="640"/>
      <point x="141" y="595" type="curve" smooth="yes"/>
      <point x="141" y="85" type="line" smooth="yes"/>
      <point x="141" y="40"/>
      <point x="137" y="35"/>
      <point x="106" y="35" type="curve" smooth="yes"/>
      <point x="51" y="35" type="line"/>
      <point x="51" y="0" type="line"/>
      <point x="356" y="0" type="line"/>
      <point x="356" y="35" type="line"/>
      <point x="301" y="35" type="line" smooth="yes"/>
      <point x="270" y="35"/>
      <point x="266" y="49"/>
      <point x="266" y="85" type="curve" smooth="yes"/>
    </contour>
  </outline>
</glyph>
<glyph name="J" format="2">
  <advance width="506"/>
  <unicode hex="004A"/>
  <outline>
    <contour>
      <point x="388" y="595" type="line" smooth="yes"/>
      <point x="388" y="640"/>
      <point x="392" y="645"/>
      <point x="423" y="645" type="curve" smooth="yes"/>
      <point x="478" y="645" type="line"/>
      <point x="478" y="680" type="line"/>
      <point x="172" y="680" type="line"/>
      <point x="172" y="645" type="line"/>
      <point x="227" y="645" type="line" smooth="yes"/>
      <point x="258" y="645"/>
      <point x="262" y="640"/>
      <point x="262" y="595" type="curve" smooth="yes"/>
      <point x="262" y="50" type="line" smooth="yes"/>
      <point x="262" y="-18"/>
      <point x="238" y="-47"/>
      <point x="203" y="-47" type="curve" smooth="yes"/>
      <point x="164" y="-47"/>
      <point x="147" y="-18"/>
      <point x="147" y="-2" type="curve" smooth="yes"/>
      <point x="147" y="11"/>
      <point x="151" y="15"/>
      <point x="156" y="21" type="curve"/>
      <point x="158" y="23" type="line"/>
      <point x="157" y="23" type="line"/>
      <point x="171" y="36"/>
      <point x="186" y="50" name="hr01"/>
      <point x="186" y="70" type="curve" smooth="yes"/>
      <point x="186" y="104"/>
      <point x="153" y="126"/>
      <point x="117" y="126" type="curve" smooth="yes"/>
      <point x="70" y="126"/>
      <point x="40" y="94"/>
      <point x="40" y="52" type="curve" smooth="yes"/>
      <point x="40" y="-15"/>
      <point x="130" y="-78"/>
      <point x="206" y="-78" type="curve" smooth="yes"/>
      <point x="325" y="-78"/>
      <point x="388" y="6"/>
      <point x="388" y="104" type="curve" smooth="yes"/>
    </contour>
  </outline>
</glyph>
<glyph name="K" format="2">
  <advance width="762"/>
  <unicode hex="004B"/>
  <outline>
    <contour>
      <point x="267" y="83" type="curve" smooth="yes"/>
      <point x="267" y="235" type="line"/>
      <point x="264" y="235" type="line"/>
      <point x="325" y="306" type="line"/>
      <point x="479" y="86" type="line" smooth="yes"/>
      <point x="487" y="74"/>
      <point x="491" y="63"/>
      <point x="491" y="52" type="curve" smooth="yes"/>
      <point x="491" y="40"/>
      <point x="487" y="35"/>
      <point x="469" y="35" type="curve" smooth="yes"/>
      <point x="430" y="35" type="line"/>
      <point x="430" y="0" type="line"/>
      <point x="740" y="0" type="line"/>
      <point x="740" y="35" type="line"/>
      <point x="700" y="35" type="line" smooth="yes"/>
      <point x="665" y="35"/>
      <point x="662" y="36"/>
      <point x="634" y="76" type="curve" smooth="yes"/>
      <point x="403" y="396" type="line"/>
      <point x="567" y="581" type="line" smooth="yes"/>
      <point x="606" y="626"/>
      <point x="659" y="645"/>
      <point x="686" y="645" type="curve" smooth="yes"/>
      <point x="713" y="645" type="line"/>
      <point x="713" y="680" type="line"/>
      <point x="419" y="680" type="line"/>
      <point x="419" y="645" type="line"/>
      <point x="463" y="645" type="line" smooth="yes"/>
      <point x="494" y="645"/>
      <point x="507" y="638" name=".hr01"/>
      <point x="507" y="622" type="curve" smooth="yes"/>
      <point x="507" y="606"/>
      <point x="494" y="589"/>
      <point x="474" y="566" type="curve" smooth="yes"/>
      <point x="364" y="441" type="line" smooth="yes"/>
      <point x="267" y="326" type="line"/>
      <point x="267" y="595" type="line" smooth="yes"/>
      <point x="267" y="640"/>
      <point x="270" y="645"/>
      <point x="301" y="645" type="curve" smooth="yes"/>
      <point x="352" y="645" type="line"/>
      <point x="352" y="680" type="line"/>
      <point x="59" y="680" type="line"/>
      <point x="59" y="645" type="line"/>
      <point x="104" y="645" type="line" smooth="yes"/>
      <point x="135" y="645"/>
      <point x="139" y="640" name=".hr02"/>
      <point x="139" y="595" type="curve" smooth="yes"/>
      <point x="139" y="83" type="line" smooth="yes"/>
      <point x="139" y="38"/>
      <point x="135" y="35"/>
      <point x="104" y="35" type="curve" smooth="yes"/>
      <point x="48" y="35" type="line"/>
      <point x="48" y="0" type="line"/>
      <point x="352" y="0" type="line"/>
      <point x="352" y="35" type="line"/>
      <point x="301" y="35" type="line" smooth="yes"/>
      <point x="270" y="35"/>
      <point x="267" y="38"/>
    </contour>
  </outline>
</glyph>
<glyph name="L" format="2">
  <advance width="610"/>
  <unicode hex="004C"/>
  <anchor x="208" y="730" name="t.asciicircum_1"/>
  <outline>
    <contour>
      <point x="48.3679" y="0.0735" type="line"/>
      <point x="577.474" y="0.0735" type="line"/>
      <point x="583.386" y="275.958" type="line"/>
      <point x="536.091" y="275.958" type="line"/>
      <point x="503.577" y="98.6035"/>
      <point x="460.223" y="45.3973"/>
      <point x="340.017" y="45.3973" type="curve" smooth="yes"/>
      <point x="311.443" y="45.3973" type="line" smooth="yes"/>
      <point x="292.722" y="45.3973"/>
      <point x="273.016" y="60.1768"/>
      <point x="273.016" y="87.7652" type="curve" smooth="yes"/>
      <point x="273.016" y="581.401" type="line" smooth="yes"/>
      <point x="273.016" y="620.813"/>
      <point x="275.972" y="635.592"/>
      <point x="302.575" y="635.592" type="curve" smooth="yes"/>
      <point x="361.693" y="635.592" type="line"/>
      <point x="361.693" y="679.931" type="line"/>
      <point x="59.2062" y="679.931" type="line"/>
      <point x="59.2062" y="635.592" type="line"/>
      <point x="98.6182" y="635.592" type="line" smooth="yes"/>
      <point x="125.221" y="635.592"/>
      <point x="128.177" y="620.813"/>
      <point x="128.177" y="581.401" type="curve" smooth="yes"/>
      <point x="128.177" y="88.7505" type="line" smooth="yes"/>
      <point x="128.177" y="49.3385"/>
      <point x="124.25" y="45.8999"/>
      <point x="98.6182" y="45.3973" type="curve" smooth="yes"/>
      <point x="48.3679" y="44.412" type="line"/>
    </contour>
  </outline>
</glyph>
<glyph name="M" format="2">
  <advance width="800"/>
  <unicode hex="004D"/>
  <outline>
    <contour>
      <point x="192" y="589" type="curve"/>
      <point x="352" y="15" type="line"/>
      <point x="403" y="15" type="line"/>
      <point x="561" y="527" type="line"/>
      <point x="561" y="528" type="line"/>
      <point x="561" y="85" type="line" smooth="yes"/>
      <point x="561" y="16"/>
      <point x="533" y="35"/>
      <point x="471" y="35" type="curve"/>
      <point x="471" y="0" type="line"/>
      <point x="766" y="0" type="line"/>
      <point x="766" y="35" type="line"/>
      <point x="740" y="35"/>
      <point x="686" y="21"/>
      <point x="686" y="56" type="curve" smooth="yes"/>
      <point x="686" y="624" type="line" smooth="yes"/>
      <point x="686" y="657"/>
      <point x="733" y="645"/>
      <point x="756" y="645" type="curve"/>
      <point x="756" y="680" type="line"/>
      <point x="552" y="680" type="line"/>
      <point x="423" y="264" type="line"/>
      <point x="292" y="680" type="line"/>
      <point x="43" y="680" type="line"/>
      <point x="43" y="645" type="line"/>
      <point x="116" y="645"/>
      <point x="123" y="638"/>
      <point x="123" y="568" type="curve" smooth="yes"/>
      <point x="123" y="85" type="line" smooth="yes"/>
      <point x="123" y="16"/>
      <point x="95" y="35"/>
      <point x="33" y="35" type="curve"/>
      <point x="33" y="0" type="line"/>
      <point x="295" y="0" type="line"/>
      <point x="295" y="35" type="line"/>
      <point x="230" y="35" type="line" smooth="yes"/>
      <point x="192" y="35"/>
      <point x="195" y="51" name="hr02"/>
      <point x="195" y="85" type="curve" smooth="yes"/>
      <point x="195" y="549" type="line" smooth="yes"/>
      <point x="195" y="562"/>
      <point x="195" y="576"/>
    </contour>
  </outline>
</glyph>
<glyph name="N" format="2">
  <advance width="762"/>
  <unicode hex="004E"/>
  <anchor x="393" y="730" name="t.asciicircum_1"/>
  <outline>
    <contour>
      <point x="646" y="595" type="line" smooth="yes"/>
      <point x="646" y="640"/>
      <point x="650" y="645"/>
      <point x="682" y="645" type="curve" smooth="yes"/>
      <point x="737" y="645" type="line"/>
      <point x="737" y="680" type="line"/>
      <point x="482" y="680" type="line"/>
      <point x="482" y="645" type="line"/>
      <point x="537" y="645" type="line" smooth="yes"/>
      <point x="570" y="645"/>
      <point x="575" y="640"/>
      <point x="575" y="595" type="curve" smooth="yes"/>
      <point x="575" y="220" type="line"/>
      <point x="262" y="680" type="line"/>
      <point x="59" y="680" type="line"/>
      <point x="59" y="645" type="line"/>
      <point x="99" y="645" type="line" smooth="yes"/>
      <point x="137" y="645"/>
      <point x="149" y="629"/>
      <point x="149" y="568" type="curve" smooth="yes"/>
      <point x="149" y="85" type="line" smooth="yes"/>
      <point x="149" y="40"/>
      <point x="145" y="35"/>
      <point x="114" y="35" type="curve" smooth="yes"/>
      <point x="48" y="35" type="line"/>
      <point x="48" y="0" type="line"/>
      <point x="321" y="0" type="line"/>
      <point x="321" y="35" type="line"/>
      <point x="256" y="35" type="line" smooth="yes"/>
      <point x="224" y="35"/>
      <point x="220" y="40"/>
      <point x="220" y="85" type="curve" smooth="yes"/>
      <point x="220" y="536" type="line"/>
      <point x="219" y="536"/>
      <point x="222" y="528"/>
      <point x="234" y="511" type="curve" smooth="yes"/>
      <point x="590" y="-12" type="line"/>
      <point x="646" y="-12" type="line"/>
    </contour>
  </outline>
</glyph>
<glyph name="O" format="2">
  <advance width="684"/>
  <unicode hex="004F"/>
  <anchor x="350" y="750" name="t.dieresis"/>
  <anchor x="350" y="730" name="t.asciicircum_1"/>
  <outline>
    <contour>
      <point x="216.961" y="340.002" type="curve" smooth="yes"/>
      <point x="216.961" y="582.386"/>
      <point x="272.687" y="639.533"/>
      <point x="350.305" y="639.533" type="curve" smooth="yes"/>
      <point x="427.922" y="639.533"/>
      <point x="482.653" y="582.386"/>
      <point x="482.653" y="340.002" type="curve" smooth="yes"/>
      <point x="482.653" y="97.6182"/>
      <point x="427.922" y="40.4708"/>
      <point x="350.305" y="40.4708" type="curve" smooth="yes"/>
      <point x="272.687" y="40.4708"/>
      <point x="216.961" y="97.6182"/>
    </contour>
    <contour>
      <point x="48.7893" y="340.002" type="curve" smooth="yes"/>
      <point x="48.7893" y="145.898"/>
      <point x="158.25" y="-11.7501"/>
      <point x="350.305" y="-11.7501" type="curve" smooth="yes"/>
      <point x="542.359" y="-11.7501"/>
      <point x="650.825" y="145.898"/>
      <point x="650.825" y="340.002" type="curve" smooth="yes"/>
      <point x="650.825" y="535.091"/>
      <point x="542.359" y="691.754"/>
      <point x="350.305" y="691.754" type="curve" smooth="yes"/>
      <point x="158.25" y="691.754"/>
      <point x="48.7893" y="535.091"/>
    </contour>
  </outline>
</glyph>
<glyph name="P" format="2">
  <advance width="603"/>
  <unicode hex="0050"/>
  <outline>
    <contour>
      <point x="248" y="85" type="curve" smooth="yes"/>
      <point x="248" y="327" type="line"/>
      <point x="319" y="327" type="line" smooth="yes"/>
      <point x="484" y="327"/>
      <point x="570" y="394"/>
      <point x="570" y="504" type="curve" smooth="yes"/>
      <point x="570" y="614"/>
      <point x="484" y="680"/>
      <point x="319" y="680" type="curve" smooth="yes"/>
      <point x="33" y="680" type="line"/>
      <point x="33" y="645" type="line"/>
      <point x="88" y="645" type="line" smooth="yes"/>
      <point x="119" y="645"/>
      <point x="123" y="640"/>
      <point x="123" y="595" type="curve" smooth="yes"/>
      <point x="123" y="85" type="line" smooth="yes"/>
      <point x="123" y="40"/>
      <point x="119" y="35"/>
      <point x="88" y="35" type="curve" smooth="yes"/>
      <point x="33" y="35" type="line"/>
      <point x="33" y="0" type="line"/>
      <point x="358" y="0" type="line"/>
      <point x="358" y="35" type="line"/>
      <point x="283" y="35" type="line" smooth="yes"/>
      <point x="252" y="35"/>
      <point x="248" y="40"/>
    </contour>
    <contour>
      <point x="248" y="364" type="line"/>
      <point x="248" y="604" type="line" smooth="yes"/>
      <point x="248" y="636"/>
      <point x="286" y="644"/>
      <point x="302" y="644" type="curve" smooth="yes"/>
      <point x="309" y="644" type="line" smooth="yes"/>
      <point x="375" y="644"/>
      <point x="425" y="604"/>
      <point x="425" y="504" type="curve" smooth="yes"/>
      <point x="425" y="404"/>
      <point x="375" y="364"/>
      <point x="309" y="364" type="curve" smooth="yes"/>
    </contour>
  </outline>
</glyph>
<glyph name="Q" format="2">
  <advance width="661"/>
  <unicode hex="0051"/>
  <outline>
    <contour>
      <point x="92" y="-133" type="line"/>
      <point x="130" y="-66"/>
      <point x="162" y="-37"/>
      <point x="189" y="-37" type="curve" smooth="yes"/>
      <point x="211" y="-37"/>
      <point x="238" y="-55"/>
      <point x="269" y="-87" type="curve" smooth="yes"/>
      <point x="321" y="-142"/>
      <point x="385" y="-182"/>
      <point x="452" y="-182" type="curve" smooth="yes"/>
      <point x="519" y="-182"/>
      <point x="580" y="-142"/>
      <point x="621" y="-38" type="curve"/>
      <point x="583" y="-12" type="line"/>
      <point x="539" y="-76"/>
      <point x="507" y="-102"/>
      <point x="481" y="-102" type="curve" smooth="yes"/>
      <point x="444" y="-102"/>
      <point x="398" y="-63"/>
      <point x="341" y="-12" type="curve"/>
      <point x="331" y="-12" type="line"/>
      <point x="521" y="-12"/>
      <point x="628" y="146"/>
      <point x="628" y="340" type="curve" smooth="yes"/>
      <point x="628" y="535"/>
      <point x="521" y="692"/>
      <point x="331" y="692" type="curve" smooth="yes"/>
      <point x="141" y="692"/>
      <point x="33" y="535"/>
      <point x="33" y="340" type="curve" smooth="yes"/>
      <point x="33" y="207"/>
      <point x="86" y="89"/>
      <point x="182" y="27" type="curve"/>
      <point x="188" y="27" type="line"/>
      <point x="118" y="8"/>
      <point x="81" y="-52"/>
      <point x="50" y="-112" type="curve"/>
    </contour>
    <contour>
      <point x="180" y="340" type="curve" smooth="yes"/>
      <point x="180" y="590"/>
      <point x="250" y="660"/>
      <point x="331" y="660" type="curve" smooth="yes"/>
      <point x="412" y="660"/>
      <point x="481" y="590"/>
      <point x="481" y="340" type="curve" smooth="yes"/>
      <point x="481" y="90"/>
      <point x="412" y="20"/>
      <point x="331" y="20" type="curve" smooth="yes"/>
      <point x="250" y="20"/>
      <point x="180" y="90"/>
    </contour>
  </outline>
</glyph>
<glyph name="R" format="2">
  <advance width="737"/>
  <unicode hex="0052"/>
  <outline>
    <contour>
      <point x="274.751" y="96.6329" type="curve" smooth="yes"/>
      <point x="274.751" y="342.958" type="line"/>
      <point x="332.466" y="342.958" type="line" smooth="yes"/>
      <point x="398.143" y="342.958"/>
      <point x="429.986" y="294.678"/>
      <point x="433.967" y="178.413" type="curve" smooth="yes"/>
      <point x="437.947" y="53.2797"/>
      <point x="478.746" y="-11.7501"/>
      <point x="578.256" y="-11.7501" type="curve" smooth="yes"/>
      <point x="691.697" y="-11.7501"/>
      <point x="716.575" y="61.1621"/>
      <point x="716.575" y="151.81" type="curve" smooth="yes"/>
      <point x="716.575" y="158.707"/>
      <point x="715.58" y="171.516"/>
      <point x="715.58" y="179.398" type="curve"/>
      <point x="645.923" y="179.398" type="line"/>
      <point x="645.923" y="122.251"/>
      <point x="642.938" y="63.1327"/>
      <point x="616.07" y="63.1327" type="curve" smooth="yes"/>
      <point x="587.212" y="63.1327"/>
      <point x="586.217" y="104.515"/>
      <point x="584.227" y="142.942" type="curve"/>
      <point x="584.227" y="231.619"/>
      <point x="530.491" y="322.267"/>
      <point x="447.898" y="358.723" type="curve"/>
      <point x="536.462" y="378.429"/>
      <point x="593.183" y="442.473"/>
      <point x="593.183" y="517.356" type="curve" smooth="yes"/>
      <point x="593.183" y="617.857"/>
      <point x="505.614" y="679.931"/>
      <point x="338.437" y="679.931" type="curve" smooth="yes"/>
      <point x="48.8628" y="679.931" type="line"/>
      <point x="48.8628" y="627.71" type="line"/>
      <point x="98.6178" y="627.71" type="line" smooth="yes"/>
      <point x="125.486" y="627.71"/>
      <point x="128.471" y="622.783"/>
      <point x="128.471" y="583.371" type="curve" smooth="yes"/>
      <point x="128.471" y="96.6329" type="line" smooth="yes"/>
      <point x="128.471" y="57.2209"/>
      <point x="125.486" y="52.2944"/>
      <point x="98.6178" y="52.2944" type="curve" smooth="yes"/>
      <point x="48.8628" y="52.2944" type="line"/>
      <point x="48.8628" y="0.0735" type="line"/>
      <point x="372.27" y="0.0735" type="line"/>
      <point x="372.27" y="52.2944" type="line"/>
      <point x="304.604" y="52.2944" type="line" smooth="yes"/>
      <point x="277.736" y="52.2944"/>
      <point x="274.751" y="57.2209"/>
    </contour>
    <contour>
      <point x="328.486" y="388.282" type="curve" smooth="yes"/>
      <point x="274.751" y="388.282" type="line"/>
      <point x="274.751" y="586.327" type="line" smooth="yes"/>
      <point x="274.751" y="624.754"/>
      <point x="307.589" y="626.724"/>
      <point x="321.52" y="626.724" type="curve" smooth="yes"/>
      <point x="328.486" y="626.724" type="line" smooth="yes"/>
      <point x="396.153" y="626.724"/>
      <point x="434.962" y="601.107"/>
      <point x="434.962" y="511.444" type="curve" smooth="yes"/>
      <point x="434.962" y="421.782"/>
      <point x="396.153" y="388.282"/>
    </contour>
  </outline>
</glyph>
<glyph name="S" format="2">
  <advance width="656"/>
  <unicode hex="0053"/>
  <outline>
    <contour>
      <point x="349.388" y="40.4708" type="curve" smooth="yes"/>
      <point x="254.853" y="40.4708"/>
      <point x="152.358" y="102.545"/>
      <point x="132.456" y="292.708" type="curve"/>
      <point x="68.7697" y="292.708" type="line"/>
      <point x="68.7697" y="-11.7501" type="line"/>
      <point x="123.5" y="-11.7501" type="line"/>
      <point x="132.456" y="5.9853" type="line"/>
      <point x="145.392" y="28.6472"/>
      <point x="153.353" y="41.4561"/>
      <point x="155.343" y="41.4561" type="curve" smooth="yes"/>
      <point x="157.334" y="41.4561"/>
      <point x="164.299" y="37.5149"/>
      <point x="174.25" y="31.6031" type="curve" smooth="yes"/>
      <point x="226.991" y="1.0588"/>
      <point x="290.677" y="-11.7501"/>
      <point x="350.383" y="-11.7501" type="curve" smooth="yes"/>
      <point x="504.624" y="-11.7501"/>
      <point x="611.099" y="76.9269"/>
      <point x="611.099" y="197.134" type="curve" smooth="yes"/>
      <point x="611.099" y="350.84"/>
      <point x="457.854" y="404.047"/>
      <point x="332.471" y="447.4" type="curve" smooth="yes"/>
      <point x="246.893" y="475.973"/>
      <point x="204.103" y="500.606"/>
      <point x="204.103" y="556.768" type="curve" smooth="yes"/>
      <point x="204.103" y="609.974"/>
      <point x="243.907" y="639.533"/>
      <point x="307.594" y="639.533" type="curve" smooth="yes"/>
      <point x="370.285" y="639.533"/>
      <point x="480.741" y="609.974"/>
      <point x="507.609" y="439.517" type="curve"/>
      <point x="572.29" y="439.517" type="line"/>
      <point x="572.29" y="691.754" type="line"/>
      <point x="513.579" y="691.754" type="line"/>
      <point x="504.624" y="674.019" type="line"/>
      <point x="493.677" y="655.298"/>
      <point x="482.731" y="646.43"/>
      <point x="478.751" y="646.43" type="curve" smooth="yes"/>
      <point x="475.766" y="646.43"/>
      <point x="465.815" y="651.357"/>
      <point x="453.873" y="657.269" type="curve" smooth="yes"/>
      <point x="422.03" y="675.004"/>
      <point x="371.28" y="691.754"/>
      <point x="307.594" y="691.754" type="curve" smooth="yes"/>
      <point x="164.299" y="691.754"/>
      <point x="71.755" y="605.048"/>
      <point x="71.755" y="509.474" type="curve" smooth="yes"/>
      <point x="71.755" y="415.87"/>
      <point x="159.324" y="346.899"/>
      <point x="261.819" y="312.414" type="curve" smooth="yes"/>
      <point x="353.368" y="281.869" type="line" smooth="yes"/>
      <point x="436.957" y="253.296"/>
      <point x="486.712" y="218.81"/>
      <point x="486.712" y="148.854" type="curve" smooth="yes"/>
      <point x="486.712" y="98.6035"/>
      <point x="441.932" y="40.4708"/>
    </contour>
  </outline>
</glyph>
<glyph name="T" format="2">
  <advance width="650"/>
  <unicode hex="0054"/>
  <outline>
    <contour>
      <point x="423" y="644" type="curve" smooth="yes"/>
      <point x="436" y="644" type="line" smooth="yes"/>
      <point x="499" y="644"/>
      <point x="528" y="558"/>
      <point x="557" y="430" type="curve" name="hr01"/>
      <point x="617" y="430" type="line"/>
      <point x="611" y="680" type="line"/>
      <point x="39" y="680" type="line"/>
      <point x="33" y="430" type="line"/>
      <point x="93" y="430" type="line"/>
      <point x="122" y="558"/>
      <point x="151" y="644" name="hr02"/>
      <point x="214" y="644" type="curve" smooth="yes"/>
      <point x="227" y="644" type="line" smooth="yes"/>
      <point x="251" y="644"/>
      <point x="262" y="629"/>
      <point x="262" y="594" type="curve" smooth="yes"/>
      <point x="263" y="85" type="line" smooth="yes"/>
      <point x="263" y="50"/>
      <point x="252" y="35"/>
      <point x="228" y="35" type="curve" smooth="yes"/>
      <point x="173" y="35" type="line"/>
      <point x="173" y="0" type="line"/>
      <point x="478" y="0" type="line"/>
      <point x="478" y="35" type="line"/>
      <point x="423" y="35" type="line" smooth="yes"/>
      <point x="399" y="35"/>
      <point x="388" y="50"/>
      <point x="388" y="85" type="curve" smooth="yes"/>
      <point x="388" y="594" type="line" smooth="yes"/>
      <point x="388" y="629"/>
      <point x="399" y="644"/>
    </contour>
  </outline>
</glyph>
<glyph name="U" format="2">
  <advance width="727"/>
  <unicode hex="0055"/>
  <anchor x="396" y="750" name="t.dieresis"/>
  <anchor x="396" y="730" name="t.asciicircum_1"/>
  <outline>
    <contour>
      <point x="603.092" y="592.239" type="line" smooth="yes"/>
      <point x="603.092" y="619.827"/>
      <point x="615.904" y="637.127"/>
      <point x="642.504" y="637.563" type="curve" smooth="yes"/>
      <point x="702.607" y="638.548" type="line"/>
      <point x="702.607" y="679.931" type="line"/>
      <point x="432.635" y="679.931" type="line"/>
      <point x="432.635" y="637.563" type="line"/>
      <point x="482.885" y="637.563" type="line" smooth="yes"/>
      <point x="500.621" y="637.563"/>
      <point x="547.915" y="623.768"/>
      <point x="547.915" y="592.239" type="curve" smooth="yes"/>
      <point x="547.915" y="245.413" type="line" smooth="yes"/>
      <point x="547.915" y="130.133"/>
      <point x="506.532" y="25.6913"/>
      <point x="392.238" y="25.6913" type="curve" smooth="yes"/>
      <point x="290.752" y="25.6913"/>
      <point x="273.016" y="94.6623"/>
      <point x="273.016" y="278.913" type="curve" smooth="yes"/>
      <point x="273.016" y="592.239" type="line" smooth="yes"/>
      <point x="273.016" y="620.813"/>
      <point x="284.84" y="637.563"/>
      <point x="312.428" y="637.563" type="curve" smooth="yes"/>
      <point x="360.708" y="637.563" type="line"/>
      <point x="360.708" y="679.931" type="line"/>
      <point x="48.3679" y="679.931" type="line"/>
      <point x="48.3679" y="637.563" type="line"/>
      <point x="84.824" y="637.563" type="line" smooth="yes"/>
      <point x="112.412" y="637.563"/>
      <point x="124.236" y="620.813"/>
      <point x="124.236" y="592.239" type="curve" smooth="yes"/>
      <point x="124.236" y="270.046" type="line" smooth="yes"/>
      <point x="124.236" y="69.0445"/>
      <point x="214.884" y="-11.7501"/>
      <point x="367.605" y="-11.7501" type="curve" smooth="yes"/>
      <point x="557.768" y="-11.7501"/>
      <point x="603.092" y="118.31"/>
      <point x="603.092" y="258.222" type="curve" smooth="yes"/>
    </contour>
  </outline>
</glyph>
<glyph name="V" format="2">
  <advance width="725"/>
  <unicode hex="0056"/>
  <anchor x="435" y="720" name="t.asciicircum_1"/>
  <anchor x="435" y="750" name="t.dieresis"/>
  <outline>
    <contour>
      <point x="395" y="173" type="line"/>
      <point x="448" y="309"/>
      <point x="499" y="443"/>
      <point x="550" y="579" type="curve"/>
      <point x="557" y="595"/>
      <point x="560" y="608"/>
      <point x="560" y="619" type="curve" smooth="yes"/>
      <point x="560" y="643"/>
      <point x="545" y="645"/>
      <point x="517" y="645" type="curve" smooth="yes"/>
      <point x="460" y="645" type="line"/>
      <point x="460" y="680" type="line"/>
      <point x="712" y="680" type="line"/>
      <point x="712" y="645" type="line"/>
      <point x="675" y="645" type="line" smooth="yes"/>
      <point x="639" y="645"/>
      <point x="629" y="643"/>
      <point x="606" y="584" type="curve" smooth="yes"/>
      <point x="374" y="-12" type="line"/>
      <point x="324" y="-12" type="line"/>
      <point x="116" y="574" type="line" smooth="yes"/>
      <point x="91" y="643"/>
      <point x="85" y="645"/>
      <point x="49" y="645" type="curve" smooth="yes"/>
      <point x="20" y="645" type="line"/>
      <point x="20" y="680" type="line"/>
      <point x="328" y="680" type="line"/>
      <point x="328" y="645" type="line"/>
      <point x="279" y="645" type="line" smooth="yes"/>
      <point x="256" y="645"/>
      <point x="245" y="641"/>
      <point x="245" y="618" type="curve" smooth="yes"/>
      <point x="245" y="604"/>
      <point x="249" y="589"/>
      <point x="256" y="570" type="curve" smooth="yes"/>
    </contour>
  </outline>
</glyph>
<glyph name="W" format="2">
  <advance width="966"/>
  <unicode hex="0057"/>
  <outline>
    <contour>
      <point x="20" y="645" type="line"/>
      <point x="55" y="645" type="line" smooth="yes"/>
      <point x="92" y="645"/>
      <point x="99" y="643"/>
      <point x="120" y="576" type="curve" smooth="yes"/>
      <point x="305" y="-12" type="line"/>
      <point x="360" y="-12" type="line"/>
      <point x="496" y="377" type="line"/>
      <point x="619" y="-12" type="line"/>
      <point x="640" y="-12" type="line"/>
      <point x="640" y="-13" type="line"/>
      <point x="653" y="-13" type="line"/>
      <point x="713" y="182"/>
      <point x="774" y="376"/>
      <point x="836" y="570" type="curve" smooth="yes"/>
      <point x="857" y="637"/>
      <point x="871" y="645"/>
      <point x="900" y="645" type="curve" smooth="yes"/>
      <point x="946" y="645" type="line"/>
      <point x="946" y="680" type="line"/>
      <point x="683" y="680" type="line"/>
      <point x="683" y="645" type="line"/>
      <point x="747" y="645" type="line" smooth="yes"/>
      <point x="776" y="645"/>
      <point x="789" y="641"/>
      <point x="789" y="618" type="curve" smooth="yes"/>
      <point x="789" y="605"/>
      <point x="785" y="592"/>
      <point x="779" y="572" type="curve" smooth="yes"/>
      <point x="761" y="512"/>
      <point x="742" y="453"/>
      <point x="723" y="393" type="curve" smooth="yes"/>
      <point x="706" y="338"/>
      <point x="689" y="285"/>
      <point x="672" y="230" type="curve"/>
      <point x="559" y="588" type="line" smooth="yes"/>
      <point x="555" y="599"/>
      <point x="553" y="607"/>
      <point x="553" y="617" type="curve" smooth="yes"/>
      <point x="553" y="638"/>
      <point x="564" y="645"/>
      <point x="589" y="645" type="curve" smooth="yes"/>
      <point x="637" y="645" type="line"/>
      <point x="637" y="680" type="line"/>
      <point x="364" y="680" type="line"/>
      <point x="364" y="645" type="line"/>
      <point x="393" y="645" type="line" smooth="yes"/>
      <point x="405" y="645"/>
      <point x="417" y="616"/>
      <point x="425" y="590" type="curve" smooth="yes"/>
      <point x="439" y="546"/>
      <point x="453" y="502"/>
      <point x="467" y="458" type="curve"/>
      <point x="434" y="365"/>
      <point x="405" y="281"/>
      <point x="372" y="188" type="curve"/>
      <point x="255" y="565" type="line" smooth="yes"/>
      <point x="252" y="575"/>
      <point x="242" y="608"/>
      <point x="242" y="617" type="curve" smooth="yes"/>
      <point x="242" y="640"/>
      <point x="254" y="645"/>
      <point x="279" y="645" type="curve" smooth="yes"/>
      <point x="322" y="645" type="line"/>
      <point x="322" y="680" type="line"/>
      <point x="20" y="680" type="line"/>
    </contour>
  </outline>
</glyph>
<glyph name="X" format="2">
  <advance width="723"/>
  <unicode hex="0058"/>
  <outline>
    <contour>
      <point x="296" y="42" type="line"/>
      <point x="276" y="42"/>
      <point x="198" y="28"/>
      <point x="198" y="67" type="curve" smooth="yes"/>
      <point x="198" y="86"/>
      <point x="212" y="101"/>
      <point x="222" y="116" type="curve" smooth="yes"/>
      <point x="324" y="274" type="line"/>
      <point x="340" y="249"/>
      <point x="448" y="94"/>
      <point x="448" y="71" type="curve" smooth="yes"/>
      <point x="448" y="36"/>
      <point x="407" y="41"/>
      <point x="383" y="42" type="curve"/>
      <point x="383" y="0" type="line"/>
      <point x="713" y="0" type="line"/>
      <point x="713" y="42" type="line"/>
      <point x="639" y="43"/>
      <point x="647" y="38"/>
      <point x="611" y="95" type="curve" smooth="yes"/>
      <point x="417" y="396" type="line"/>
      <point x="547" y="598" type="line" smooth="yes"/>
      <point x="579" y="648"/>
      <point x="604" y="638"/>
      <point x="680" y="638" type="curve"/>
      <point x="680" y="680" type="line"/>
      <point x="417" y="680" type="line"/>
      <point x="417" y="638" type="line"/>
      <point x="426" y="638"/>
      <point x="515" y="643"/>
      <point x="515" y="628" type="curve" smooth="yes"/>
      <point x="515" y="624"/>
      <point x="405" y="458"/>
      <point x="395" y="442" type="curve"/>
      <point x="384" y="458"/>
      <point x="281" y="614"/>
      <point x="280" y="620" type="curve"/>
      <point x="280" y="644"/>
      <point x="340" y="638"/>
      <point x="352" y="638" type="curve"/>
      <point x="352" y="680" type="line"/>
      <point x="44" y="680" type="line"/>
      <point x="44" y="638" type="line"/>
      <point x="101" y="638"/>
      <point x="99" y="641"/>
      <point x="128" y="596" type="curve" smooth="yes"/>
      <point x="303" y="325" type="line"/>
      <point x="154" y="100" type="line" smooth="yes"/>
      <point x="111" y="35"/>
      <point x="92" y="44"/>
      <point x="15" y="42" type="curve"/>
      <point x="15" y="0" type="line"/>
      <point x="296" y="0" type="line"/>
    </contour>
  </outline>
</glyph>
<glyph name="Y" format="2">
  <advance width="699"/>
  <unicode hex="0059"/>
  <anchor x="384" y="730" name="t.asciicircum_1"/>
  <anchor x="384" y="750" name="t.dieresis"/>
  <outline>
    <contour>
      <point x="297.8" y="85" type="line" smooth="yes"/>
      <point x="297.8" y="35"/>
      <point x="273.56" y="35"/>
      <point x="232.15" y="35" type="curve" smooth="yes"/>
      <point x="206.9" y="35" type="line"/>
      <point x="206.9" y="0" type="line"/>
      <point x="501.82" y="0" type="line"/>
      <point x="501.82" y="35" type="line"/>
      <point x="466.47" y="35" type="line" smooth="yes"/>
      <point x="436.17" y="35"/>
      <point x="410.92" y="37"/>
      <point x="410.92" y="85" type="curve" smooth="yes"/>
      <point x="410.92" y="319" type="line"/>
      <point x="564.44" y="590" type="line" smooth="yes"/>
      <point x="591.71" y="638"/>
      <point x="600.8" y="647"/>
      <point x="629.08" y="646" type="curve" smooth="yes"/>
      <point x="654.33" y="645" type="line"/>
      <point x="681.6" y="645" type="line"/>
      <point x="681.6" y="680" type="line"/>
      <point x="447.28" y="680" type="line"/>
      <point x="447.28" y="646" type="line"/>
      <point x="485.66" y="646" type="line" smooth="yes"/>
      <point x="510.91" y="646"/>
      <point x="524.04" y="641"/>
      <point x="524.04" y="629" type="curve"/>
      <point x="388.7" y="377" type="line"/>
      <point x="263.46" y="600" type="line" smooth="yes"/>
      <point x="259.42" y="608"/>
      <point x="257.4" y="616"/>
      <point x="257.4" y="623" type="curve" smooth="yes"/>
      <point x="257.4" y="641"/>
      <point x="272.55" y="645"/>
      <point x="310.93" y="645" type="curve" smooth="yes"/>
      <point x="328.1" y="645" type="line"/>
      <point x="328.1" y="680" type="line"/>
      <point x="19.04" y="680" type="line"/>
      <point x="19.04" y="645" type="line"/>
      <point x="54.39" y="645" type="line" smooth="yes"/>
      <point x="99.84" y="645"/>
      <point x="106.91" y="639"/>
      <point x="128.12" y="600" type="curve" smooth="yes"/>
      <point x="297.8" y="295" type="line"/>
    </contour>
  </outline>
</glyph>
<glyph name="Z" format="2">
  <advance width="630"/>
  <unicode hex="005A"/>
  <outline>
    <contour>
      <point x="589" y="0" type="line"/>
      <point x="597" y="253" type="line"/>
      <point x="537" y="253" type="line"/>
      <point x="508" y="132"/>
      <point x="454" y="36" name="hr01"/>
      <point x="340" y="36" type="curve" smooth="yes"/>
      <point x="226" y="36" type="line" smooth="yes"/>
      <point x="222" y="36"/>
      <point x="220" y="40"/>
      <point x="220" y="49" type="curve" smooth="yes"/>
      <point x="220" y="57"/>
      <point x="222" y="64"/>
      <point x="225" y="70" type="curve" smooth="yes"/>
      <point x="562" y="663" type="line"/>
      <point x="562" y="680" type="line"/>
      <point x="86" y="680" type="line"/>
      <point x="77" y="442" type="line"/>
      <point x="137" y="442" type="line"/>
      <point x="172" y="579"/>
      <point x="206" y="644" name="hr02"/>
      <point x="320" y="644" type="curve" smooth="yes"/>
      <point x="383" y="644" type="line" smooth="yes"/>
      <point x="391" y="644"/>
      <point x="400" y="640"/>
      <point x="400" y="626" type="curve" smooth="yes"/>
      <point x="400" y="619"/>
      <point x="398" y="615"/>
      <point x="396" y="610" type="curve"/>
      <point x="397" y="610" type="line"/>
      <point x="58" y="17" type="line"/>
      <point x="58" y="0" type="line"/>
    </contour>
  </outline>
</glyph>
<glyph name="bracketleft" format="2">
  <advance width="288"/>
  <unicode hex="005B"/>
  <outline>
    <contour>
      <point x="125" y="676" type="line" smooth="yes"/>
      <point x="125" y="711"/>
      <point x="136" y="725"/>
      <point x="160" y="725" type="curve" smooth="yes"/>
      <point x="268" y="725" type="line"/>
      <point x="268" y="760" type="line"/>
      <point x="25" y="760" type="line"/>
      <point x="25" y="-179" type="line"/>
      <point x="268" y="-179" type="line"/>
      <point x="268" y="-144" type="line"/>
      <point x="160" y="-144" type="line" smooth="yes"/>
      <point x="136" y="-144"/>
      <point x="125" y="-130"/>
      <point x="125" y="-95" type="curve" smooth="yes"/>
    </contour>
  </outline>
</glyph>
<glyph name="bracketright" format="2">
  <advance width="288"/>
  <unicode hex="005D"/>
  <outline>
    <contour>
      <point x="168" y="-95" type="line" smooth="yes"/>
      <point x="168" y="-130"/>
      <point x="157" y="-144"/>
      <point x="133" y="-144" type="curve" smooth="yes"/>
      <point x="25" y="-144" type="line"/>
      <point x="25" y="-179" type="line"/>
      <point x="268" y="-179" type="line"/>
      <point x="268" y="760" type="line"/>
      <point x="25" y="760" type="line"/>
      <point x="25" y="725" type="line"/>
      <point x="133" y="725" type="line" smooth="yes"/>
      <point x="157" y="725"/>
      <point x="168" y="711"/>
      <point x="168" y="676" type="curve" smooth="yes"/>
    </contour>
  </outline>
</glyph>
<glyph name="underscore" format="2">
  <advance width="498"/>
  <unicode hex="005F"/>
  <outline>
    <contour>
      <point x="0" y="96" type="line"/>
      <point x="0" y="16" type="line"/>
      <point x="500" y="16" type="line"/>
      <point x="500" y="96" type="line"/>
    </contour>
  </outline>
</glyph>
<glyph name="a" format="2">
  <advance width="548"/>
  <unicode hex="0061"/>
  <anchor x="262" y="530" name="t.dieresis"/>
  <anchor x="262" y="530" name="t.asciicircum_1"/>
  <outline>
    <contour>
      <point x="529" y="114" type="line"/>
      <point x="529" y="107" type="line"/>
      <point x="525" y="63"/>
      <point x="515" y="47"/>
      <point x="492" y="47" type="curve" smooth="yes"/>
      <point x="469" y="47"/>
      <point x="456" y="64"/>
      <point x="456" y="97" type="curve" smooth="yes"/>
      <point x="456" y="324" type="line" smooth="yes"/>
      <point x="456" y="360"/>
      <point x="450" y="386"/>
      <point x="438" y="405" type="curve"/>
      <point x="413" y="438"/>
      <point x="354" y="462"/>
      <point x="281" y="462" type="curve" smooth="yes"/>
      <point x="160" y="462"/>
      <point x="77" y="416"/>
      <point x="77" y="349" type="curve" smooth="yes"/>
      <point x="77" y="312"/>
      <point x="107" y="281"/>
      <point x="144" y="281" type="curve" smooth="yes"/>
      <point x="181" y="281"/>
      <point x="213" y="311"/>
      <point x="213" y="345" type="curve" smooth="yes"/>
      <point x="213" y="372"/>
      <point x="189" y="393"/>
      <point x="148" y="407" type="curve"/>
      <point x="180" y="422"/>
      <point x="205" y="430"/>
      <point x="227" y="430" type="curve" smooth="yes"/>
      <point x="287" y="430"/>
      <point x="324" y="401"/>
      <point x="324" y="352" type="curve" smooth="yes"/>
      <point x="324" y="281" type="line"/>
      <point x="226" y="255" type="line"/>
      <point x="113" y="221"/>
      <point x="46" y="167"/>
      <point x="46" y="100" type="curve" smooth="yes"/>
      <point x="46" y="33"/>
      <point x="106" y="-12"/>
      <point x="196" y="-12" type="curve" smooth="yes"/>
      <point x="252" y="-12"/>
      <point x="290" y="6"/>
      <point x="336" y="55" type="curve"/>
      <point x="363" y="7"/>
      <point x="393" y="-12"/>
      <point x="438" y="-12" type="curve" smooth="yes"/>
      <point x="480" y="-12"/>
      <point x="523" y="10"/>
      <point x="542" y="43" type="curve"/>
      <point x="554" y="61"/>
      <point x="558" y="82"/>
      <point x="558" y="114" type="curve"/>
    </contour>
    <contour>
      <point x="324" y="134" type="line" smooth="yes"/>
      <point x="324" y="72"/>
      <point x="293" y="33"/>
      <point x="247" y="33" type="curve" smooth="yes"/>
      <point x="211" y="33"/>
      <point x="183" y="67"/>
      <point x="183" y="114" type="curve" smooth="yes"/>
      <point x="183" y="173"/>
      <point x="239" y="228"/>
      <point x="324" y="249" type="curve"/>
    </contour>
  </outline>
</glyph>
<glyph name="b" format="2">
  <advance width="547"/>
  <unicode hex="0062"/>
  <outline>
    <contour>
      <point x="88" y="-12" type="line"/>
      <point x="129" y="-12" type="line"/>
      <point x="185" y="59" type="line"/>
      <point x="212" y="16"/>
      <point x="248" y="-12"/>
      <point x="309" y="-12" type="curve" smooth="yes"/>
      <point x="419" y="-12"/>
      <point x="506" y="75"/>
      <point x="506" y="227" type="curve" smooth="yes"/>
      <point x="506" y="375"/>
      <point x="423" y="462"/>
      <point x="326" y="462" type="curve" smooth="yes"/>
      <point x="283" y="462"/>
      <point x="242" y="445"/>
      <point x="210" y="412" type="curve"/>
      <point x="210" y="675" type="line"/>
      <point x="10" y="675" type="line"/>
      <point x="10" y="634" type="line"/>
      <point x="59" y="634" type="line" smooth="yes"/>
      <point x="84" y="634"/>
      <point x="88" y="623"/>
      <point x="88" y="584" type="curve" smooth="yes"/>
    </contour>
    <contour>
      <point x="291" y="26" type="curve" smooth="yes"/>
      <point x="243" y="26"/>
      <point x="216" y="97"/>
      <point x="216" y="217" type="curve" smooth="yes"/>
      <point x="216" y="338"/>
      <point x="249" y="420"/>
      <point x="301" y="420" type="curve" smooth="yes"/>
      <point x="345" y="420"/>
      <point x="373" y="351"/>
      <point x="373" y="225" type="curve" smooth="yes"/>
      <point x="373" y="154"/>
      <point x="356" y="92"/>
      <point x="337" y="58" type="curve"/>
      <point x="327" y="42"/>
      <point x="308" y="26"/>
    </contour>
  </outline>
</glyph>
<glyph name="c" format="2">
  <advance width="463"/>
  <unicode hex="0063"/>
  <outline>
    <contour>
      <point x="427" y="333" type="curve" smooth="yes"/>
      <point x="427" y="393"/>
      <point x="364" y="462"/>
      <point x="256" y="462" type="curve" smooth="yes"/>
      <point x="121" y="462"/>
      <point x="33" y="355"/>
      <point x="33" y="225" type="curve" smooth="yes"/>
      <point x="33" y="95"/>
      <point x="121" y="-12"/>
      <point x="254" y="-12" type="curve" smooth="yes"/>
      <point x="347" y="-12"/>
      <point x="401" y="44"/>
      <point x="429" y="111" type="curve"/>
      <point x="374" y="126" type="line"/>
      <point x="342" y="61"/>
      <point x="307" y="24"/>
      <point x="270" y="24" type="curve" smooth="yes"/>
      <point x="221" y="24"/>
      <point x="171" y="75"/>
      <point x="171" y="225" type="curve" smooth="yes"/>
      <point x="171" y="375"/>
      <point x="206" y="433" name="hr01"/>
      <point x="260" y="433" type="curve" smooth="yes"/>
      <point x="297" y="433"/>
      <point x="315" y="412"/>
      <point x="315" y="394" type="curve" smooth="yes"/>
      <point x="315" y="383"/>
      <point x="311" y="378"/>
      <point x="306" y="374" type="curve"/>
      <point x="294" y="361"/>
      <point x="279" y="346" name="hr02"/>
      <point x="279" y="326" type="curve" smooth="yes"/>
      <point x="279" y="293"/>
      <point x="312" y="266"/>
      <point x="354" y="266" type="curve" smooth="yes"/>
      <point x="398" y="266"/>
      <point x="427" y="298"/>
    </contour>
  </outline>
</glyph>
<glyph name="d" format="2">
  <advance width="542"/>
  <unicode hex="0064"/>
  <outline>
    <contour>
      <point x="342.363" y="0.111" type="line"/>
      <point x="528.145" y="0.111" type="line"/>
      <point x="528.145" y="51.9344" type="line"/>
      <point x="489.033" y="51.9344" type="line" smooth="yes"/>
      <point x="463.61" y="51.9344"/>
      <point x="459.699" y="59.7568"/>
      <point x="459.699" y="99.8466" type="curve" smooth="yes"/>
      <point x="459.699" y="674.793" type="line"/>
      <point x="259.25" y="674.793" type="line"/>
      <point x="259.25" y="622.97" type="line"/>
      <point x="308.14" y="622.97" type="line" smooth="yes"/>
      <point x="333.563" y="622.97"/>
      <point x="337.474" y="618.081"/>
      <point x="337.474" y="578.969" type="curve" smooth="yes"/>
      <point x="337.474" y="423.498" type="line"/>
      <point x="313.029" y="446.966"/>
      <point x="281.74" y="461.633"/>
      <point x="237.739" y="461.633" type="curve" smooth="yes"/>
      <point x="129.203" y="461.633"/>
      <point x="42.1786" y="374.608"/>
      <point x="42.1786" y="223.049" type="curve" smooth="yes"/>
      <point x="42.1786" y="75.4016"/>
      <point x="124.314" y="-11.6226"/>
      <point x="222.094" y="-11.6226" type="curve" smooth="yes"/>
      <point x="267.073" y="-11.6226"/>
      <point x="310.096" y="5.9778"/>
      <point x="342.363" y="44.112" type="curve"/>
    </contour>
    <contour>
      <point x="254.361" y="30.4228" type="curve" smooth="yes"/>
      <point x="212.316" y="30.4228"/>
      <point x="190.804" y="92.0242"/>
      <point x="190.804" y="211.316" type="curve" smooth="yes"/>
      <point x="190.804" y="339.408"/>
      <point x="215.249" y="415.676"/>
      <point x="256.317" y="415.676" type="curve" smooth="yes"/>
      <point x="328.674" y="415.676"/>
      <point x="332.585" y="261.184"/>
      <point x="332.585" y="217.183" type="curve" smooth="yes"/>
      <point x="332.585" y="99.8466"/>
      <point x="303.251" y="30.4228"/>
    </contour>
  </outline>
</glyph>
<glyph name="e" format="2">
  <advance width="500"/>
  <unicode hex="0065"/>
  <anchor x="261" y="530" name="t.dieresis"/>
  <anchor x="261" y="530" name="t.asciicircum_1"/>
  <outline>
    <contour>
      <point x="178.093" y="225.983" type="line"/>
      <point x="463.61" y="225.983" type="line"/>
      <point x="463.61" y="244.561" type="line" smooth="yes"/>
      <point x="463.61" y="344.297"/>
      <point x="402.009" y="461.633"/>
      <point x="260.228" y="461.633" type="curve" smooth="yes"/>
      <point x="121.38" y="461.633"/>
      <point x="33.3784" y="355.052"/>
      <point x="33.3784" y="225.005" type="curve" smooth="yes"/>
      <point x="33.3784" y="94.9576"/>
      <point x="120.403" y="-11.6226"/>
      <point x="251.428" y="-11.6226" type="curve" smooth="yes"/>
      <point x="345.297" y="-11.6226"/>
      <point x="428.41" y="46.0676"/>
      <point x="456.766" y="136.025" type="curve"/>
      <point x="401.031" y="158.515" type="line"/>
      <point x="372.675" y="75.4016"/>
      <point x="312.051" y="34.334"/>
      <point x="269.028" y="34.334" type="curve" smooth="yes"/>
      <point x="222.094" y="34.334"/>
      <point x="178.093" y="76.3794"/>
      <point x="178.093" y="218.16" type="curve" smooth="yes"/>
    </contour>
    <contour>
      <point x="322.807" y="313.007" type="curve" smooth="yes"/>
      <point x="322.807" y="278.784"/>
      <point x="315.963" y="276.828"/>
      <point x="310.096" y="276.828" type="curve" smooth="yes"/>
      <point x="179.071" y="276.828" type="line"/>
      <point x="188.849" y="380.475"/>
      <point x="219.16" y="426.432"/>
      <point x="258.272" y="426.432" type="curve" smooth="yes"/>
      <point x="298.362" y="426.432"/>
      <point x="322.807" y="373.631"/>
    </contour>
  </outline>
</glyph>
<glyph name="f" format="2">
  <advance width="375"/>
  <unicode hex="0066"/>
  <outline>
    <contour>
      <point x="440" y="588" type="curve" smooth="yes"/>
      <point x="440" y="647"/>
      <point x="373" y="704"/>
      <point x="283" y="704" type="curve" smooth="yes"/>
      <point x="191" y="704"/>
      <point x="107" y="647"/>
      <point x="107" y="533" type="curve" smooth="yes"/>
      <point x="107" y="450" type="line"/>
      <point x="25" y="450" type="line"/>
      <point x="25" y="408" type="line"/>
      <point x="107" y="408" type="line"/>
      <point x="107" y="96" type="line" smooth="yes"/>
      <point x="107" y="57"/>
      <point x="103" y="42"/>
      <point x="77" y="42" type="curve" smooth="yes"/>
      <point x="28" y="42" type="line"/>
      <point x="28" y="0" type="line"/>
      <point x="332" y="0" type="line"/>
      <point x="332" y="42" type="line"/>
      <point x="263" y="42" type="line" smooth="yes"/>
      <point x="238" y="42"/>
      <point x="234" y="57"/>
      <point x="234" y="96" type="curve" smooth="yes"/>
      <point x="234" y="408" type="line"/>
      <point x="340" y="408" type="line"/>
      <point x="340" y="450" type="line"/>
      <point x="234" y="450" type="line"/>
      <point x="234" y="586" type="line" smooth="yes"/>
      <point x="234" y="654"/>
      <point x="255" y="676"/>
      <point x="285" y="676" type="curve" smooth="yes"/>
      <point x="313" y="676"/>
      <point x="325" y="657"/>
      <point x="325" y="639" type="curve" smooth="yes"/>
      <point x="325" y="632"/>
      <point x="321" y="627"/>
      <point x="312" y="614" type="curve" smooth="yes"/>
      <point x="300" y="598"/>
      <point x="293" y="584"/>
      <point x="293" y="569" type="curve" smooth="yes"/>
      <point x="293" y="536"/>
      <point x="331" y="515"/>
      <point x="365" y="515" type="curve" smooth="yes"/>
      <point x="409" y="515"/>
      <point x="440" y="547"/>
    </contour>
  </outline>
</glyph>
<glyph name="g" format="2">
  <advance width="579"/>
  <unicode hex="0067"/>
  <outline>
    <contour>
      <point x="41.2008" y="304.207" type="curve" smooth="yes"/>
      <point x="41.2008" y="249.779"/>
      <point x="77.8518" y="203.165"/>
      <point x="121.38" y="174.159" type="curve"/>
      <point x="80.4363" y="154.903"/>
      <point x="21.6448" y="114.583"/>
      <point x="21.6448" y="63.668" type="curve" smooth="yes"/>
      <point x="21.6448" y="16.9825"/>
      <point x="67.133" y="-9.37017"/>
      <point x="105.736" y="-23.3562" type="curve"/>
      <point x="63.7431" y="-41.8158"/>
      <point x="13.8224" y="-73.3132"/>
      <point x="13.8224" y="-125.047" type="curve" smooth="yes"/>
      <point x="13.8224" y="-225.848"/>
      <point x="186.721" y="-251.184"/>
      <point x="261.206" y="-251.184" type="curve" smooth="yes"/>
      <point x="361.532" y="-251.184"/>
      <point x="512.5" y="-204.374"/>
      <point x="512.5" y="-81.0464" type="curve" smooth="yes"/>
      <point x="512.5" y="59.3301"/>
      <point x="321.264" y="52.9122"/>
      <point x="226.005" y="52.9122" type="curve" smooth="yes"/>
      <point x="194.374" y="52.9122"/>
      <point x="129.203" y="55.3829"/>
      <point x="129.203" y="99.8466" type="curve" smooth="yes"/>
      <point x="129.203" y="128.346"/>
      <point x="161.671" y="140.663"/>
      <point x="183.96" y="148.737" type="curve"/>
      <point x="201.808" y="144.276"/>
      <point x="220.314" y="141.892"/>
      <point x="238.716" y="141.892" type="curve" smooth="yes"/>
      <point x="328.345" y="141.892"/>
      <point x="436.232" y="199.278"/>
      <point x="436.232" y="300.296" type="curve" smooth="yes"/>
      <point x="436.232" y="326.753"/>
      <point x="427.274" y="352.122"/>
      <point x="413.743" y="374.608" type="curve"/>
      <point x="425.124" y="393.476"/>
      <point x="433.494" y="415.002"/>
      <point x="468.075" y="415.002" type="curve"/>
      <point x="455.264" y="399.413"/>
      <point x="448.188" y="398.558"/>
      <point x="448.188" y="376.564" type="curve" smooth="yes"/>
      <point x="448.188" y="343.656"/>
      <point x="468.722" y="326.696"/>
      <point x="500.767" y="326.696" type="curve" smooth="yes"/>
      <point x="540.682" y="326.696"/>
      <point x="571.168" y="353.33"/>
      <point x="571.168" y="394.164" type="curve" smooth="yes"/>
      <point x="571.168" y="444.742"/>
      <point x="525.867" y="473.366"/>
      <point x="479.255" y="473.366" type="curve" smooth="yes"/>
      <point x="437.406" y="473.366"/>
      <point x="399.52" y="451.701"/>
      <point x="373.653" y="419.587" type="curve"/>
      <point x="337.051" y="449.507"/>
      <point x="288.196" y="461.633"/>
      <point x="241.65" y="461.633" type="curve" smooth="yes"/>
      <point x="150.967" y="461.633"/>
      <point x="41.2008" y="407.619"/>
    </contour>
    <contour>
      <point x="174.182" y="302.251" type="curve" smooth="yes"/>
      <point x="174.182" y="386.342"/>
      <point x="198.627" y="414.698"/>
      <point x="238.716" y="414.698" type="curve" smooth="yes"/>
      <point x="278.806" y="414.698"/>
      <point x="301.296" y="386.342"/>
      <point x="301.296" y="302.251" type="curve" smooth="yes"/>
      <point x="301.296" y="218.16"/>
      <point x="278.806" y="189.804"/>
      <point x="238.716" y="189.804" type="curve" smooth="yes"/>
      <point x="198.627" y="189.804"/>
      <point x="174.182" y="218.16"/>
    </contour>
    <contour>
      <point x="176.137" y="-39.001" type="line"/>
      <point x="195.693" y="-41.9344"/>
      <point x="216.231" y="-43.4374"/>
      <point x="240.672" y="-43.89" type="curve" smooth="yes"/>
      <point x="293.473" y="-44.8678" type="line" smooth="yes"/>
      <point x="349.207" y="-45.8999"/>
      <point x="393.209" y="-70.2906"/>
      <point x="393.209" y="-121.136" type="curve" smooth="yes"/>
      <point x="393.209" y="-180.782"/>
      <point x="332.585" y="-199.36"/>
      <point x="252.406" y="-199.36" type="curve" smooth="yes"/>
      <point x="173.204" y="-199.36"/>
      <point x="115.514" y="-180.782"/>
      <point x="115.514" y="-116.247" type="curve" smooth="yes"/>
      <point x="115.514" y="-71.2684"/>
      <point x="142.892" y="-48.779"/>
      <point x="177.115" y="-39.001" type="curve"/>
    </contour>
  </outline>
</glyph>
<glyph name="h" format="2">
  <advance width="571"/>
  <unicode hex="0068"/>
  <outline>
    <contour>
      <point x="23.6004" y="0.111" type="line"/>
      <point x="270.984" y="0.111" type="line"/>
      <point x="270.984" y="42.1564" type="line"/>
      <point x="244.583" y="42.1564" type="line" smooth="yes"/>
      <point x="219.16" y="42.1564"/>
      <point x="213.294" y="53.89"/>
      <point x="213.294" y="93.002" type="curve" smooth="yes"/>
      <point x="213.294" y="284.651" type="line" smooth="yes"/>
      <point x="213.294" y="341.363"/>
      <point x="247.517" y="418.609"/>
      <point x="312.051" y="418.609" type="curve" smooth="yes"/>
      <point x="365.83" y="418.609"/>
      <point x="367.786" y="374.608"/>
      <point x="367.786" y="273.895" type="curve" smooth="yes"/>
      <point x="367.786" y="93.002" type="line" smooth="yes"/>
      <point x="367.786" y="53.89"/>
      <point x="363.875" y="42.1564"/>
      <point x="338.452" y="42.1564" type="curve" smooth="yes"/>
      <point x="312.051" y="42.1564" type="line"/>
      <point x="312.051" y="0.111" type="line"/>
      <point x="553.568" y="0.111" type="line"/>
      <point x="553.568" y="42.1564" type="line"/>
      <point x="524.234" y="42.1564" type="line" smooth="yes"/>
      <point x="498.811" y="42.1564"/>
      <point x="494.9" y="53.89"/>
      <point x="494.9" y="93.002" type="curve" smooth="yes"/>
      <point x="494.9" y="277.806" type="line" smooth="yes"/>
      <point x="494.9" y="382.431"/>
      <point x="444.054" y="461.633"/>
      <point x="338.452" y="461.633" type="curve" smooth="yes"/>
      <point x="281.74" y="461.633"/>
      <point x="239.694" y="437.188"/>
      <point x="211.338" y="403.942" type="curve"/>
      <point x="211.338" y="492.922"/>
      <point x="213.294" y="655.237"/>
      <point x="214.271" y="674.793" type="curve"/>
      <point x="13.8224" y="674.793" type="line"/>
      <point x="13.8224" y="632.748" type="line"/>
      <point x="62.7124" y="632.748" type="line" smooth="yes"/>
      <point x="88.1352" y="632.748"/>
      <point x="92.0464" y="619.058"/>
      <point x="92.0464" y="579.946" type="curve" smooth="yes"/>
      <point x="92.0464" y="93.002" type="line" smooth="yes"/>
      <point x="92.0464" y="53.89"/>
      <point x="88.1352" y="42.1564"/>
      <point x="62.7124" y="42.1564" type="curve" smooth="yes"/>
      <point x="23.6004" y="42.1564" type="line"/>
    </contour>
  </outline>
</glyph>
<glyph name="i" format="2">
  <advance width="329"/>
  <unicode hex="0069"/>
  <outline>
    <contour>
      <point x="268.05" y="50.9566" type="line" smooth="yes"/>
      <point x="242.628" y="50.9566"/>
      <point x="238.716" y="55.8456"/>
      <point x="238.716" y="94.9576" type="curve" smooth="yes"/>
      <point x="238.716" y="449.899" type="line"/>
      <point x="33.3784" y="449.899" type="line"/>
      <point x="33.3784" y="400.031" type="line"/>
      <point x="82.2684" y="400.031" type="line" smooth="yes"/>
      <point x="107.691" y="400.031"/>
      <point x="111.602" y="395.142"/>
      <point x="111.602" y="356.03" type="curve" smooth="yes"/>
      <point x="111.602" y="94.9576" type="line" smooth="yes"/>
      <point x="111.602" y="59.7568"/>
      <point x="105.736" y="50.9566"/>
      <point x="82.2684" y="50.9566" type="curve" smooth="yes"/>
      <point x="33.3784" y="50.9566" type="line"/>
      <point x="33.3784" y="0.111" type="line"/>
      <point x="316.94" y="0.111" type="line"/>
      <point x="316.94" y="50.9566" type="line"/>
    </contour>
    <contour>
      <point x="105.736" y="607.325" type="curve" smooth="yes"/>
      <point x="105.736" y="573.102"/>
      <point x="129.203" y="545.723"/>
      <point x="172.226" y="545.723" type="curve" smooth="yes"/>
      <point x="215.249" y="545.723"/>
      <point x="238.716" y="573.102"/>
      <point x="238.716" y="607.325" type="curve" smooth="yes"/>
      <point x="238.716" y="641.548"/>
      <point x="215.249" y="668.926"/>
      <point x="172.226" y="668.926" type="curve" smooth="yes"/>
      <point x="129.203" y="668.926"/>
      <point x="105.736" y="641.548"/>
    </contour>
  </outline>
</glyph>
<glyph name="j" format="2">
  <advance width="323"/>
  <unicode hex="006A"/>
  <outline>
    <contour>
      <point x="262" y="450" type="line"/>
      <point x="57" y="450" type="line"/>
      <point x="57" y="408" type="line"/>
      <point x="106" y="408" type="line" smooth="yes"/>
      <point x="131" y="408"/>
      <point x="135" y="394"/>
      <point x="135" y="355" type="curve" smooth="yes"/>
      <point x="135" y="-109" type="line" smooth="yes"/>
      <point x="135" y="-158"/>
      <point x="120" y="-195"/>
      <point x="94" y="-195" type="curve" smooth="yes"/>
      <point x="76" y="-195"/>
      <point x="59" y="-187"/>
      <point x="53" y="-171" type="curve" smooth="yes"/>
      <point x="50" y="-163"/>
      <point x="54" y="-155"/>
      <point x="68" y="-146" type="curve" smooth="yes"/>
      <point x="79" y="-139"/>
      <point x="94" y="-122"/>
      <point x="94" y="-92" type="curve" smooth="yes"/>
      <point x="94" y="-59"/>
      <point x="72" y="-35"/>
      <point x="33" y="-35" type="curve" smooth="yes"/>
      <point x="-17" y="-35"/>
      <point x="-43" y="-70"/>
      <point x="-43" y="-111" type="curve" smooth="yes"/>
      <point x="-43" y="-179"/>
      <point x="27" y="-223"/>
      <point x="100" y="-223" type="curve" smooth="yes"/>
      <point x="189" y="-223"/>
      <point x="262" y="-155"/>
      <point x="262" y="-57" type="curve" smooth="yes"/>
    </contour>
    <contour>
      <point x="135" y="608" type="curve" smooth="yes"/>
      <point x="135" y="573"/>
      <point x="163" y="545"/>
      <point x="198" y="545" type="curve" smooth="yes"/>
      <point x="233" y="545"/>
      <point x="262" y="573"/>
      <point x="262" y="608" type="curve" smooth="yes"/>
      <point x="262" y="644"/>
      <point x="233" y="672"/>
      <point x="198" y="672" type="curve" smooth="yes"/>
      <point x="163" y="672"/>
      <point x="135" y="644"/>
    </contour>
  </outline>
</glyph>
<glyph name="k" format="2">
  <advance width="559"/>
  <unicode hex="006B"/>
  <outline>
    <contour>
      <point x="219.16" y="674.793" type="line"/>
      <point x="13.8224" y="674.793" type="line"/>
      <point x="13.8224" y="632.748" type="line"/>
      <point x="62.7124" y="632.748" type="line" smooth="yes"/>
      <point x="88.1352" y="632.748"/>
      <point x="92.0464" y="625.903"/>
      <point x="92.0464" y="586.791" type="curve" smooth="yes"/>
      <point x="92.0464" y="88.113" type="line" smooth="yes"/>
      <point x="92.0464" y="49.001"/>
      <point x="83.2462" y="40.2008"/>
      <point x="57.8234" y="40.2008" type="curve" smooth="yes"/>
      <point x="23.6004" y="40.2008" type="line"/>
      <point x="23.6004" y="0.111" type="line"/>
      <point x="264.139" y="0.111" type="line"/>
      <point x="264.139" y="40.2008" type="line"/>
      <point x="247.517" y="40.2008" type="line" smooth="yes"/>
      <point x="222.094" y="40.2008"/>
      <point x="215.249" y="49.001"/>
      <point x="215.249" y="88.113" type="curve" smooth="yes"/>
      <point x="215.249" y="166.337" type="line"/>
      <point x="263.161" y="221.094" type="line"/>
      <point x="343.341" y="85.1796" type="line" smooth="yes"/>
      <point x="348.23" y="76.3794"/>
      <point x="351.163" y="67.5792"/>
      <point x="351.163" y="58.779" type="curve" smooth="yes"/>
      <point x="351.163" y="48.0232"/>
      <point x="334.541" y="40.2008"/>
      <point x="326.718" y="40.2008" type="curve" smooth="yes"/>
      <point x="306.185" y="40.2008" type="line"/>
      <point x="306.185" y="0.111" type="line"/>
      <point x="555.524" y="0.111" type="line"/>
      <point x="555.524" y="40.2008" type="line"/>
      <point x="520.323" y="40.2008" type="line" smooth="yes"/>
      <point x="501.745" y="40.2008"/>
      <point x="497.833" y="49.9788"/>
      <point x="478.277" y="83.224" type="curve" smooth="yes"/>
      <point x="347.252" y="305.185" type="line"/>
      <point x="408.854" y="375.586" type="line" smooth="yes"/>
      <point x="437.21" y="408.831"/>
      <point x="454.81" y="409.809"/>
      <point x="483.166" y="409.809" type="curve" smooth="yes"/>
      <point x="528.145" y="409.809" type="line"/>
      <point x="528.145" y="449.899" type="line"/>
      <point x="291.518" y="449.899" type="line"/>
      <point x="291.518" y="409.809" type="line"/>
      <point x="328.674" y="409.809" type="line" smooth="yes"/>
      <point x="341.385" y="409.809"/>
      <point x="347.252" y="402.965"/>
      <point x="347.252" y="396.12" type="curve" smooth="yes"/>
      <point x="347.252" y="386.342"/>
      <point x="341.385" y="376.564"/>
      <point x="330.63" y="364.83" type="curve" smooth="yes"/>
      <point x="219.16" y="240.65" type="line"/>
    </contour>
  </outline>
</glyph>
<glyph name="l" format="2">
  <advance width="321"/>
  <unicode hex="006C"/>
  <outline>
    <contour>
      <point x="258.272" y="44.112" type="line" smooth="yes"/>
      <point x="232.85" y="44.112"/>
      <point x="228.938" y="49.001"/>
      <point x="228.938" y="88.113" type="curve" smooth="yes"/>
      <point x="228.938" y="674.793" type="line"/>
      <point x="23.6004" y="674.793" type="line"/>
      <point x="23.6004" y="630.792" type="line"/>
      <point x="72.4904" y="630.792" type="line" smooth="yes"/>
      <point x="97.9132" y="630.792"/>
      <point x="101.824" y="625.903"/>
      <point x="101.824" y="586.791" type="curve" smooth="yes"/>
      <point x="101.824" y="88.113" type="line" smooth="yes"/>
      <point x="101.824" y="49.001"/>
      <point x="97.9132" y="44.112"/>
      <point x="72.4904" y="44.112" type="curve" smooth="yes"/>
      <point x="23.6004" y="44.112" type="line"/>
      <point x="23.6004" y="0.111" type="line"/>
      <point x="307.162" y="0.111" type="line"/>
      <point x="307.162" y="44.112" type="line"/>
    </contour>
  </outline>
</glyph>
<glyph name="m" format="2">
  <advance width="834"/>
  <unicode hex="006D"/>
  <outline>
    <contour>
      <point x="32" y="0" type="line"/>
      <point x="282" y="0" type="line"/>
      <point x="282" y="44" type="line"/>
      <point x="252" y="44" type="line" smooth="yes"/>
      <point x="227" y="44"/>
      <point x="223" y="49"/>
      <point x="223" y="88" type="curve" smooth="yes"/>
      <point x="223" y="236" type="line" smooth="yes"/>
      <point x="223" y="292"/>
      <point x="252" y="409"/>
      <point x="315" y="409" type="curve" smooth="yes"/>
      <point x="348" y="409"/>
      <point x="366" y="375"/>
      <point x="366" y="274" type="curve" smooth="yes"/>
      <point x="366" y="88" type="line" smooth="yes"/>
      <point x="366" y="49"/>
      <point x="362" y="44"/>
      <point x="336" y="44" type="curve" smooth="yes"/>
      <point x="307" y="44" type="line"/>
      <point x="307" y="0" type="line"/>
      <point x="552" y="0" type="line"/>
      <point x="552" y="44" type="line"/>
      <point x="522" y="44" type="line" smooth="yes"/>
      <point x="497" y="44"/>
      <point x="493" y="49"/>
      <point x="493" y="88" type="curve" smooth="yes"/>
      <point x="493" y="236" type="line" smooth="yes"/>
      <point x="493" y="292"/>
      <point x="522" y="409"/>
      <point x="585" y="409" type="curve" smooth="yes"/>
      <point x="618" y="409"/>
      <point x="636" y="375"/>
      <point x="636" y="274" type="curve" smooth="yes"/>
      <point x="636" y="88" type="line" smooth="yes"/>
      <point x="636" y="49"/>
      <point x="632" y="44"/>
      <point x="606" y="44" type="curve" smooth="yes"/>
      <point x="577" y="44" type="line"/>
      <point x="577" y="0" type="line"/>
      <point x="821" y="0" type="line"/>
      <point x="821" y="44" type="line"/>
      <point x="792" y="44" type="line" smooth="yes"/>
      <point x="767" y="44"/>
      <point x="763" y="49"/>
      <point x="763" y="88" type="curve" smooth="yes"/>
      <point x="763" y="278" type="line" smooth="yes"/>
      <point x="763" y="382"/>
      <point x="720" y="462"/>
      <point x="613" y="462" type="curve" smooth="yes"/>
      <point x="546" y="462"/>
      <point x="500" y="430"/>
      <point x="473" y="385" type="curve"/>
      <point x="452" y="432"/>
      <point x="409" y="462"/>
      <point x="343" y="462" type="curve" smooth="yes"/>
      <point x="288" y="462"/>
      <point x="247" y="439"/>
      <point x="218" y="408" type="curve"/>
      <point x="218" y="450" type="line"/>
      <point x="23" y="450" type="line"/>
      <point x="23" y="406" type="line"/>
      <point x="71" y="406" type="line" smooth="yes"/>
      <point x="97" y="406"/>
      <point x="101" y="401"/>
      <point x="101" y="362" type="curve" smooth="yes"/>
      <point x="101" y="88" type="line" smooth="yes"/>
      <point x="101" y="53"/>
      <point x="95" y="44"/>
      <point x="71" y="44" type="curve" smooth="yes"/>
      <point x="32" y="44" type="line"/>
    </contour>
  </outline>
</glyph>
<glyph name="n" format="2">
  <advance width="576"/>
  <unicode hex="006E"/>
  <anchor x="285" y="530" name="t.asciicircum_1"/>
  <outline>
    <contour>
      <point x="33.3784" y="0.111" type="line"/>
      <point x="282.717" y="0.111" type="line"/>
      <point x="282.717" y="44.112" type="line"/>
      <point x="253.383" y="44.112" type="line" smooth="yes"/>
      <point x="227.961" y="44.112"/>
      <point x="224.049" y="49.001"/>
      <point x="224.049" y="88.113" type="curve" smooth="yes"/>
      <point x="224.049" y="235.761" type="line" smooth="yes"/>
      <point x="224.049" y="292.473"/>
      <point x="256.317" y="408.831"/>
      <point x="320.852" y="408.831" type="curve" smooth="yes"/>
      <point x="355.075" y="408.831"/>
      <point x="376.586" y="374.608"/>
      <point x="376.586" y="273.895" type="curve" smooth="yes"/>
      <point x="376.586" y="88.113" type="line" smooth="yes"/>
      <point x="376.586" y="49.001"/>
      <point x="372.675" y="44.112"/>
      <point x="347.252" y="44.112" type="curve" smooth="yes"/>
      <point x="317.918" y="44.112" type="line"/>
      <point x="317.918" y="0.111" type="line"/>
      <point x="562.368" y="0.111" type="line"/>
      <point x="562.368" y="44.112" type="line"/>
      <point x="533.034" y="44.112" type="line" smooth="yes"/>
      <point x="507.611" y="44.112"/>
      <point x="503.7" y="49.001"/>
      <point x="503.7" y="88.113" type="curve" smooth="yes"/>
      <point x="503.7" y="277.806" type="line" smooth="yes"/>
      <point x="503.7" y="382.431"/>
      <point x="455.788" y="461.633"/>
      <point x="348.23" y="461.633" type="curve" smooth="yes"/>
      <point x="290.54" y="461.633"/>
      <point x="248.494" y="438.165"/>
      <point x="219.16" y="403.942" type="curve"/>
      <point x="219.16" y="449.899" type="line"/>
      <point x="23.6004" y="449.899" type="line"/>
      <point x="23.6004" y="405.898" type="line"/>
      <point x="72.4904" y="405.898" type="line" smooth="yes"/>
      <point x="97.9132" y="405.898"/>
      <point x="101.824" y="401.009"/>
      <point x="101.824" y="361.897" type="curve" smooth="yes"/>
      <point x="101.824" y="88.113" type="line" smooth="yes"/>
      <point x="101.824" y="52.9122"/>
      <point x="95.9576" y="44.112"/>
      <point x="72.4904" y="44.112" type="curve" smooth="yes"/>
      <point x="33.3784" y="44.112" type="line"/>
    </contour>
  </outline>
</glyph>
<glyph name="o" format="2">
  <advance width="519"/>
  <unicode hex="006F"/>
  <anchor x="261" y="530" name="t.dieresis"/>
  <anchor x="261" y="530" name="t.asciicircum_1"/>
  <outline>
    <contour>
      <point x="178.093" y="225.005" type="curve" smooth="yes"/>
      <point x="178.093" y="367.764"/>
      <point x="210.36" y="426.432"/>
      <point x="260.228" y="426.432" type="curve" smooth="yes"/>
      <point x="310.096" y="426.432"/>
      <point x="342.363" y="367.764"/>
      <point x="342.363" y="225.005" type="curve" smooth="yes"/>
      <point x="342.363" y="82.2462"/>
      <point x="310.096" y="23.5782"/>
      <point x="260.228" y="23.5782" type="curve" smooth="yes"/>
      <point x="210.36" y="23.5782"/>
      <point x="178.093" y="82.2462"/>
    </contour>
    <contour>
      <point x="33.3784" y="225.005" type="curve" smooth="yes"/>
      <point x="33.3784" y="94.9576"/>
      <point x="121.38" y="-11.6226"/>
      <point x="260.228" y="-11.6226" type="curve" smooth="yes"/>
      <point x="399.076" y="-11.6226"/>
      <point x="487.078" y="94.9576"/>
      <point x="487.078" y="225.005" type="curve" smooth="yes"/>
      <point x="487.078" y="355.052"/>
      <point x="399.076" y="461.633"/>
      <point x="260.228" y="461.633" type="curve" smooth="yes"/>
      <point x="121.38" y="461.633"/>
      <point x="33.3784" y="355.052"/>
    </contour>
  </outline>
</glyph>
<glyph name="p" format="2">
  <advance width="555"/>
  <unicode hex="0070"/>
  <outline>
    <contour>
      <point x="13" y="-225" type="line"/>
      <point x="312" y="-225" type="line"/>
      <point x="312" y="-181" type="line"/>
      <point x="244" y="-181" type="line" smooth="yes"/>
      <point x="218" y="-181"/>
      <point x="214" y="-176"/>
      <point x="214" y="-137" type="curve" smooth="yes"/>
      <point x="214" y="31" type="line"/>
      <point x="240" y="5"/>
      <point x="274" y="-12"/>
      <point x="321" y="-12" type="curve" smooth="yes"/>
      <point x="427" y="-12"/>
      <point x="513" y="75"/>
      <point x="513" y="227" type="curve" smooth="yes"/>
      <point x="513" y="375"/>
      <point x="432" y="462"/>
      <point x="335" y="462" type="curve" smooth="yes"/>
      <point x="290" y="462"/>
      <point x="247" y="444"/>
      <point x="214" y="406" type="curve"/>
      <point x="214" y="450" type="line"/>
      <point x="13" y="450" type="line"/>
      <point x="13" y="406" type="line"/>
      <point x="62" y="406" type="line" smooth="yes"/>
      <point x="87" y="406"/>
      <point x="91" y="401"/>
      <point x="91" y="362" type="curve" smooth="yes"/>
      <point x="91" y="-137" type="line" smooth="yes"/>
      <point x="91" y="-176"/>
      <point x="87" y="-181"/>
      <point x="62" y="-181" type="curve" smooth="yes"/>
      <point x="13" y="-181" type="line"/>
    </contour>
    <contour>
      <point x="375" y="233" type="curve" smooth="yes"/>
      <point x="375" y="96"/>
      <point x="344" y="28"/>
      <point x="305" y="28" type="curve" smooth="yes"/>
      <point x="268" y="28"/>
      <point x="224" y="86"/>
      <point x="224" y="225" type="curve" smooth="yes"/>
      <point x="224" y="324"/>
      <point x="263" y="420"/>
      <point x="312" y="420" type="curve" smooth="yes"/>
      <point x="351" y="420"/>
      <point x="375" y="354"/>
    </contour>
  </outline>
</glyph>
<glyph name="q" format="2">
  <advance width="533"/>
  <unicode hex="0071"/>
  <outline>
    <contour>
      <point x="244" y="-230" type="line"/>
      <point x="539" y="-230" type="line"/>
      <point x="539" y="-195" type="line"/>
      <point x="494" y="-195" type="line" smooth="yes"/>
      <point x="463" y="-195"/>
      <point x="459" y="-190"/>
      <point x="459" y="-145" type="curve" smooth="yes"/>
      <point x="459" y="462" type="line"/>
      <point x="405" y="462" type="line"/>
      <point x="365" y="385" type="line"/>
      <point x="338" y="432"/>
      <point x="302" y="462"/>
      <point x="238" y="462" type="curve" smooth="yes"/>
      <point x="129" y="462"/>
      <point x="42" y="375"/>
      <point x="42" y="223" type="curve" smooth="yes"/>
      <point x="42" y="75"/>
      <point x="124" y="-12"/>
      <point x="221" y="-12" type="curve" smooth="yes"/>
      <point x="268" y="-12"/>
      <point x="312" y="8"/>
      <point x="344" y="48" type="curve" name=".hr01"/>
      <point x="344" y="-145" type="line" smooth="yes"/>
      <point x="344" y="-190"/>
      <point x="340" y="-195"/>
      <point x="309" y="-195" type="curve" smooth="yes"/>
      <point x="244" y="-195" type="line"/>
    </contour>
    <contour>
      <point x="175" y="217" type="curve" smooth="yes"/>
      <point x="175" y="360"/>
      <point x="208" y="431"/>
      <point x="251" y="431" type="curve" smooth="yes"/>
      <point x="291" y="431"/>
      <point x="339" y="371" name=".hr02"/>
      <point x="339" y="225" type="curve" smooth="yes"/>
      <point x="339" y="121"/>
      <point x="296" y="21"/>
      <point x="244" y="21" type="curve" smooth="yes"/>
      <point x="201" y="21"/>
      <point x="175" y="90"/>
    </contour>
  </outline>
</glyph>
<glyph name="r" format="2">
  <advance width="416"/>
  <unicode hex="0072"/>
  <outline>
    <contour>
      <point x="195" y="359" type="curve"/>
      <point x="200" y="359" type="line"/>
      <point x="198" y="359" type="line"/>
      <point x="213" y="359" type="line"/>
      <point x="213" y="450" type="line"/>
      <point x="23" y="450" type="line"/>
      <point x="23" y="415" type="line"/>
      <point x="68" y="415" type="line" smooth="yes"/>
      <point x="99" y="415"/>
      <point x="103" y="410"/>
      <point x="103" y="365" type="curve" smooth="yes"/>
      <point x="103" y="85" type="line" smooth="yes"/>
      <point x="103" y="40"/>
      <point x="99" y="35"/>
      <point x="68" y="35" type="curve" smooth="yes"/>
      <point x="23" y="35" type="line"/>
      <point x="23" y="0" type="line"/>
      <point x="318" y="0" type="line"/>
      <point x="318" y="35" type="line"/>
      <point x="253" y="35" type="line" smooth="yes"/>
      <point x="222" y="35"/>
      <point x="218" y="40" name="hr01"/>
      <point x="218" y="85" type="curve" smooth="yes"/>
      <point x="218" y="259" type="line" smooth="yes"/>
      <point x="218" y="301"/>
      <point x="236" y="344"/>
      <point x="252" y="366" type="curve" smooth="yes"/>
      <point x="262" y="379" type="line"/>
      <point x="263" y="378"/>
      <point x="264" y="377"/>
      <point x="267" y="373" type="curve" smooth="yes"/>
      <point x="283" y="345"/>
      <point x="307" y="332"/>
      <point x="338" y="332" type="curve" smooth="yes"/>
      <point x="385" y="332"/>
      <point x="413" y="361"/>
      <point x="413" y="394" type="curve" smooth="yes"/>
      <point x="413" y="433"/>
      <point x="371" y="462"/>
      <point x="325" y="462" type="curve" smooth="yes"/>
      <point x="268" y="462"/>
      <point x="222" y="416"/>
    </contour>
  </outline>
</glyph>
<glyph name="s" format="2">
  <advance width="467"/>
  <unicode hex="0073"/>
  <outline>
    <contour>
      <point x="100" y="-12" type="line"/>
      <point x="110" y="5" type="line"/>
      <point x="117" y="19"/>
      <point x="121" y="25"/>
      <point x="121" y="25" type="curve"/>
      <point x="121" y="25"/>
      <point x="126" y="22"/>
      <point x="134" y="17" type="curve" smooth="yes"/>
      <point x="166" y="-2"/>
      <point x="202" y="-12"/>
      <point x="246" y="-12" type="curve" smooth="yes"/>
      <point x="341" y="-12"/>
      <point x="435" y="44"/>
      <point x="435" y="139" type="curve" smooth="yes"/>
      <point x="435" y="211"/>
      <point x="366" y="253"/>
      <point x="284" y="281" type="curve" smooth="yes"/>
      <point x="220" y="303" type="line" smooth="yes"/>
      <point x="169" y="320"/>
      <point x="151" y="337"/>
      <point x="151" y="369" type="curve" smooth="yes"/>
      <point x="151" y="403"/>
      <point x="186" y="426"/>
      <point x="224" y="426" type="curve" smooth="yes"/>
      <point x="277" y="426"/>
      <point x="328" y="384"/>
      <point x="340" y="307" type="curve"/>
      <point x="404" y="307" type="line"/>
      <point x="404" y="462" type="line"/>
      <point x="346" y="462" type="line"/>
      <point x="336" y="448" type="line"/>
      <point x="330" y="438"/>
      <point x="327" y="433"/>
      <point x="328" y="433" type="curve"/>
      <point x="329" y="433"/>
      <point x="325" y="435"/>
      <point x="318" y="439" type="curve" smooth="yes"/>
      <point x="314" y="441" type="line"/>
      <point x="287" y="456"/>
      <point x="253" y="462"/>
      <point x="220" y="462" type="curve" smooth="yes"/>
      <point x="133" y="462"/>
      <point x="52" y="408"/>
      <point x="52" y="337" type="curve" smooth="yes"/>
      <point x="52" y="275"/>
      <point x="81" y="246"/>
      <point x="184" y="211" type="curve" smooth="yes"/>
      <point x="252" y="188" type="line" smooth="yes"/>
      <point x="320" y="165"/>
      <point x="343" y="143"/>
      <point x="343" y="100" type="curve" smooth="yes"/>
      <point x="343" y="63"/>
      <point x="305" y="27"/>
      <point x="249" y="27" type="curve" smooth="yes"/>
      <point x="183" y="27"/>
      <point x="120" y="76"/>
      <point x="106" y="180" type="curve"/>
      <point x="42" y="180" type="line"/>
      <point x="42" y="-12" type="line"/>
    </contour>
  </outline>
</glyph>
<glyph name="t" format="2">
  <advance width="369"/>
  <unicode hex="0074"/>
  <outline>
    <contour>
      <point x="206" y="450" type="line"/>
      <point x="206" y="666" type="line"/>
      <point x="150" y="666" type="line"/>
      <point x="127" y="572"/>
      <point x="80" y="487"/>
      <point x="9" y="433" type="curve"/>
      <point x="9" y="415" type="line"/>
      <point x="91" y="415" type="line"/>
      <point x="91" y="125" type="line" smooth="yes"/>
      <point x="91" y="41"/>
      <point x="121" y="-12"/>
      <point x="204" y="-12" type="curve" smooth="yes"/>
      <point x="294" y="-12"/>
      <point x="347" y="51"/>
      <point x="347" y="182" type="curve" smooth="yes"/>
      <point x="347" y="203" type="line"/>
      <point x="287" y="203" type="line"/>
      <point x="287" y="183" type="line" smooth="yes"/>
      <point x="287" y="80"/>
      <point x="263" y="38" name="hr02"/>
      <point x="235" y="38" type="curve" smooth="yes"/>
      <point x="220" y="38"/>
      <point x="206" y="50"/>
      <point x="206" y="139" type="curve" smooth="yes"/>
      <point x="206" y="415" type="line"/>
      <point x="191" y="415" type="line"/>
      <point x="317" y="415" type="line"/>
      <point x="317" y="450" type="line"/>
    </contour>
  </outline>
</glyph>
<glyph name="u" format="2">
  <advance width="582"/>
  <unicode hex="0075"/>
  <outline>
    <contour>
      <point x="375" y="0" type="line"/>
      <point x="555" y="0" type="line"/>
      <point x="555" y="35" type="line"/>
      <point x="520" y="35" type="line" smooth="yes"/>
      <point x="489" y="35"/>
      <point x="485" y="42"/>
      <point x="485" y="87" type="curve" smooth="yes"/>
      <point x="485" y="450" type="line"/>
      <point x="289" y="450" type="line"/>
      <point x="289" y="415" type="line"/>
      <point x="334" y="415" type="line" smooth="yes"/>
      <point x="365" y="415"/>
      <point x="369" y="410" name="hr01"/>
      <point x="369" y="365" type="curve" smooth="yes"/>
      <point x="369" y="214" type="line" smooth="yes"/>
      <point x="369" y="154"/>
      <point x="336" y="32"/>
      <point x="260" y="32" type="curve" smooth="yes"/>
      <point x="219" y="32"/>
      <point x="203" y="68"/>
      <point x="203" y="175" type="curve" smooth="yes"/>
      <point x="203" y="450" type="line"/>
      <point x="13" y="450" type="line"/>
      <point x="13" y="415" type="line"/>
      <point x="48" y="415" type="line" smooth="yes"/>
      <point x="79" y="415"/>
      <point x="83" y="412"/>
      <point x="83" y="367" type="curve" smooth="yes"/>
      <point x="83" y="171" type="line" smooth="yes"/>
      <point x="83" y="67"/>
      <point x="116" y="-12"/>
      <point x="230" y="-12" type="curve" smooth="yes"/>
      <point x="298" y="-12"/>
      <point x="346" y="17"/>
      <point x="375" y="58" type="curve" name="hr02"/>
    </contour>
  </outline>
</glyph>
<glyph name="v" format="2">
  <advance width="493"/>
  <unicode hex="0076"/>
  <outline>
    <contour>
      <point x="223" y="450" type="line"/>
      <point x="0" y="450" type="line"/>
      <point x="0" y="411" type="line"/>
      <point x="17" y="411" type="line" smooth="yes"/>
      <point x="34" y="411"/>
      <point x="40" y="398"/>
      <point x="54" y="366" type="curve" smooth="yes"/>
      <point x="217" y="0" type="line"/>
      <point x="248" y="0" type="line"/>
      <point x="404" y="358" type="line" smooth="yes"/>
      <point x="423" y="402"/>
      <point x="436" y="411"/>
      <point x="455" y="411" type="curve" smooth="yes"/>
      <point x="474" y="411" type="line"/>
      <point x="474" y="450" type="line"/>
      <point x="302" y="450" type="line"/>
      <point x="302" y="411" type="line"/>
      <point x="337" y="411" type="line" smooth="yes"/>
      <point x="350" y="411"/>
      <point x="358" y="404"/>
      <point x="358" y="390" type="curve" smooth="yes"/>
      <point x="358" y="381"/>
      <point x="355" y="371"/>
      <point x="349" y="358" type="curve" smooth="yes"/>
      <point x="271" y="170" type="line"/>
      <point x="188" y="365" type="line" smooth="yes"/>
      <point x="184" y="374"/>
      <point x="180" y="382"/>
      <point x="180" y="391" type="curve" smooth="yes"/>
      <point x="180" y="401"/>
      <point x="186" y="411"/>
      <point x="200" y="411" type="curve" smooth="yes"/>
      <point x="223" y="411" type="line"/>
    </contour>
  </outline>
</glyph>
<glyph name="w" format="2">
  <advance width="675"/>
  <unicode hex="0077"/>
  <outline>
    <contour>
      <point x="218" y="450" type="line"/>
      <point x="8" y="450" type="line"/>
      <point x="8" y="415" type="line"/>
      <point x="29" y="415" type="line" smooth="yes"/>
      <point x="70" y="415"/>
      <point x="54" y="411"/>
      <point x="74" y="356" type="curve" smooth="yes"/>
      <point x="210" y="-12" type="line"/>
      <point x="245" y="-12" type="line"/>
      <point x="340" y="240" type="line"/>
      <point x="432" y="-12" type="line"/>
      <point x="468" y="-12" type="line"/>
      <point x="593" y="358" type="line" smooth="yes"/>
      <point x="610" y="409"/>
      <point x="620" y="415"/>
      <point x="638" y="415" type="curve" smooth="yes"/>
      <point x="666" y="415" type="line"/>
      <point x="666" y="450" type="line"/>
      <point x="495" y="450" type="line"/>
      <point x="495" y="415" type="line"/>
      <point x="518" y="415" type="line" smooth="yes"/>
      <point x="538" y="415"/>
      <point x="548" y="413"/>
      <point x="548" y="394" type="curve" smooth="yes"/>
      <point x="548" y="383"/>
      <point x="545" y="373"/>
      <point x="540" y="358" type="curve" smooth="yes"/>
      <point x="533" y="337"/>
      <point x="526" y="317"/>
      <point x="519" y="296" type="curve" smooth="yes"/>
      <point x="507" y="259"/>
      <point x="494" y="222"/>
      <point x="482" y="186" type="curve"/>
      <point x="417" y="362" type="line" smooth="yes"/>
      <point x="412" y="375"/>
      <point x="409" y="385"/>
      <point x="409" y="395" type="curve" smooth="yes"/>
      <point x="409" y="412"/>
      <point x="419" y="415"/>
      <point x="441" y="415" type="curve" smooth="yes"/>
      <point x="452" y="415" type="line"/>
      <point x="452" y="450" type="line"/>
      <point x="259" y="450" type="line"/>
      <point x="259" y="415" type="line"/>
      <point x="269" y="415" type="line" smooth="yes"/>
      <point x="287" y="415"/>
      <point x="290" y="413"/>
      <point x="300" y="386" type="curve" smooth="yes"/>
      <point x="304" y="377"/>
      <point x="307" y="367"/>
      <point x="311" y="358" type="curve" smooth="yes"/>
      <point x="314" y="349"/>
      <point x="318" y="340"/>
      <point x="321" y="330" type="curve"/>
      <point x="302" y="278"/>
      <point x="282" y="226"/>
      <point x="262" y="175" type="curve"/>
      <point x="193" y="366" type="line"/>
      <point x="188" y="378"/>
      <point x="185" y="388"/>
      <point x="185" y="398" type="curve" smooth="yes"/>
      <point x="185" y="412"/>
      <point x="189" y="415"/>
      <point x="206" y="415" type="curve" smooth="yes"/>
      <point x="218" y="415" type="line"/>
    </contour>
  </outline>
</glyph>
<glyph name="x" format="2">
  <advance width="544"/>
  <unicode hex="0078"/>
  <outline>
    <contour>
      <point x="275" y="450" type="line"/>
      <point x="27" y="450" type="line"/>
      <point x="27" y="406" type="line"/>
      <point x="58" y="406" type="line" smooth="yes"/>
      <point x="93" y="406"/>
      <point x="95" y="404"/>
      <point x="111" y="379" type="curve"/>
      <point x="224" y="212" type="line"/>
      <point x="228" y="212" type="line"/>
      <point x="224" y="220" type="line"/>
      <point x="121" y="88" type="line" smooth="yes"/>
      <point x="90" y="48"/>
      <point x="84" y="44"/>
      <point x="32" y="44" type="curve" smooth="yes"/>
      <point x="5" y="44" type="line"/>
      <point x="5" y="0" type="line"/>
      <point x="234" y="0" type="line"/>
      <point x="234" y="44" type="line"/>
      <point x="184" y="44" type="line" smooth="yes"/>
      <point x="179" y="44"/>
      <point x="177" y="46"/>
      <point x="177" y="51" type="curve" smooth="yes"/>
      <point x="177" y="60"/>
      <point x="183" y="71"/>
      <point x="193" y="85" type="curve"/>
      <point x="253" y="161" type="line"/>
      <point x="315" y="72" type="line" smooth="yes"/>
      <point x="320" y="65"/>
      <point x="324" y="57"/>
      <point x="324" y="51" type="curve" smooth="yes"/>
      <point x="324" y="46"/>
      <point x="321" y="44"/>
      <point x="314" y="44" type="curve" smooth="yes"/>
      <point x="288" y="44" type="line"/>
      <point x="288" y="0" type="line"/>
      <point x="544" y="0" type="line"/>
      <point x="544" y="44" type="line"/>
      <point x="513" y="44" type="line" smooth="yes"/>
      <point x="477" y="44"/>
      <point x="472" y="49"/>
      <point x="451" y="80" type="curve" smooth="yes"/>
      <point x="330" y="259" type="line"/>
      <point x="326" y="259" type="line"/>
      <point x="330" y="251" type="line"/>
      <point x="419" y="366" type="line" smooth="yes"/>
      <point x="448" y="403"/>
      <point x="452" y="406"/>
      <point x="489" y="406" type="curve" smooth="yes"/>
      <point x="523" y="406" type="line"/>
      <point x="523" y="450" type="line"/>
      <point x="312" y="450" type="line"/>
      <point x="312" y="406" type="line"/>
      <point x="344" y="406" type="line" smooth="yes"/>
      <point x="354" y="406"/>
      <point x="359" y="404"/>
      <point x="359" y="397" type="curve" smooth="yes"/>
      <point x="359" y="389"/>
      <point x="355" y="381"/>
      <point x="348" y="372" type="curve"/>
      <point x="299" y="310" type="line"/>
      <point x="251" y="380" type="line"/>
      <point x="247" y="387"/>
      <point x="245" y="393"/>
      <point x="245" y="400" type="curve" smooth="yes"/>
      <point x="245" y="405"/>
      <point x="248" y="406"/>
      <point x="254" y="406" type="curve" smooth="yes"/>
      <point x="275" y="406" type="line"/>
    </contour>
  </outline>
</glyph>
<glyph name="z" format="2">
  <advance width="470"/>
  <unicode hex="007A"/>
  <outline>
    <contour>
      <point x="393.209" y="185.893" type="line"/>
      <point x="388.32" y="135.047"/>
      <point x="346.274" y="32.3784"/>
      <point x="282.717" y="32.3784" type="curve" smooth="yes"/>
      <point x="205.471" y="32.3784" type="line"/>
      <point x="177.115" y="32.3784" type="line"/>
      <point x="421.565" y="428.387" type="line"/>
      <point x="421.565" y="449.899" type="line"/>
      <point x="61.7346" y="449.899" type="line"/>
      <point x="61.7346" y="293.451" type="line"/>
      <point x="106.713" y="293.451" type="line"/>
      <point x="112.58" y="332.563"/>
      <point x="145.825" y="417.632"/>
      <point x="195.693" y="417.632" type="curve" smooth="yes"/>
      <point x="262.184" y="417.632" type="line" smooth="yes"/>
      <point x="266.095" y="417.632"/>
      <point x="267.073" y="415.676"/>
      <point x="267.073" y="414.698" type="curve" smooth="yes"/>
      <point x="267.073" y="393.187"/>
      <point x="130.181" y="164.381"/>
      <point x="69.557" y="66.6014" type="curve" smooth="yes"/>
      <point x="42.1786" y="21.6226" type="line"/>
      <point x="42.1786" y="0.111" type="line"/>
      <point x="439.165" y="0.111" type="line"/>
      <point x="439.165" y="185.893" type="line"/>
    </contour>
  </outline>
</glyph>
<glyph name="braceleft" format="2">
  <advance width="430"/>
  <unicode hex="007B"/>
  <outline>
    <contour>
      <point x="332" y="-201" type="line"/>
      <point x="229" y="-168"/>
      <point x="178" y="-110"/>
      <point x="178" y="-25" type="curve" smooth="yes"/>
      <point x="178" y="4"/>
      <point x="184" y="32"/>
      <point x="198" y="81" type="curve" smooth="yes"/>
      <point x="210" y="122"/>
      <point x="215" y="154" name="hr01"/>
      <point x="215" y="180" type="curve" smooth="yes"/>
      <point x="215" y="246"/>
      <point x="180" y="268"/>
      <point x="106" y="268" type="curve"/>
      <point x="106" y="279" type="line"/>
      <point x="178" y="279" name="hr02"/>
      <point x="215" y="292" name="hr03"/>
      <point x="215" y="358" type="curve" smooth="yes"/>
      <point x="215" y="385"/>
      <point x="209" y="419"/>
      <point x="198" y="463" type="curve" smooth="yes"/>
      <point x="183" y="518"/>
      <point x="178" y="543" name="hr04"/>
      <point x="178" y="570" type="curve" smooth="yes"/>
      <point x="178" y="656"/>
      <point x="229" y="714"/>
      <point x="332" y="748" type="curve"/>
      <point x="337" y="731" type="line"/>
      <point x="268" y="707"/>
      <point x="236" y="677"/>
      <point x="236" y="617" type="curve" smooth="yes"/>
      <point x="236" y="592"/>
      <point x="246" y="569"/>
      <point x="258" y="521" type="curve" smooth="yes"/>
      <point x="270" y="477"/>
      <point x="276" y="448" name="hr05"/>
      <point x="276" y="416" type="curve" smooth="yes"/>
      <point x="276" y="342"/>
      <point x="232" y="294"/>
      <point x="168" y="273" type="curve"/>
      <point x="223" y="256"/>
      <point x="276" y="210"/>
      <point x="276" y="125" type="curve" smooth="yes"/>
      <point x="276" y="92"/>
      <point x="270" y="66"/>
      <point x="258" y="23" type="curve" smooth="yes"/>
      <point x="246" y="-21"/>
      <point x="234" y="-27"/>
      <point x="235" y="-64" type="curve" smooth="yes"/>
      <point x="237" y="-124"/>
      <point x="271" y="-161"/>
      <point x="340" y="-185" type="curve"/>
    </contour>
  </outline>
</glyph>
<glyph name="bar" format="2">
  <advance width="363"/>
  <unicode hex="007C"/>
  <outline>
    <contour>
      <point x="145" y="754" type="line"/>
      <point x="145" y="-143" type="line"/>
      <point x="218" y="-143" type="line"/>
      <point x="218" y="754" type="line"/>
    </contour>
  </outline>
</glyph>
<glyph name="braceright" format="2">
  <advance width="430"/>
  <unicode hex="007D"/>
  <outline>
    <contour>
      <point x="89" y="-187" type="line"/>
      <point x="158" y="-163"/>
      <point x="190" y="-132"/>
      <point x="190" y="-72" type="curve" smooth="yes"/>
      <point x="190" y="-47"/>
      <point x="184" y="-22"/>
      <point x="172" y="26" type="curve" smooth="yes"/>
      <point x="160" y="73"/>
      <point x="154" y="98" name="hr01"/>
      <point x="154" y="131" type="curve" smooth="yes"/>
      <point x="154" y="205"/>
      <point x="201" y="253"/>
      <point x="265" y="273" type="curve"/>
      <point x="201" y="294"/>
      <point x="154" y="342"/>
      <point x="154" y="416" type="curve" smooth="yes"/>
      <point x="154" y="448"/>
      <point x="160" y="477"/>
      <point x="172" y="521" type="curve" smooth="yes"/>
      <point x="184" y="569"/>
      <point x="191" y="584"/>
      <point x="191" y="616" type="curve" smooth="yes"/>
      <point x="191" y="676"/>
      <point x="159" y="713"/>
      <point x="90" y="737" type="curve"/>
      <point x="98" y="748" type="line"/>
      <point x="201" y="714"/>
      <point x="252" y="656" name="hr02"/>
      <point x="252" y="570" type="curve" smooth="yes"/>
      <point x="252" y="543"/>
      <point x="247" y="518"/>
      <point x="232" y="463" type="curve" smooth="yes"/>
      <point x="221" y="419"/>
      <point x="215" y="385" name="hr03"/>
      <point x="215" y="358" type="curve" smooth="yes"/>
      <point x="215" y="292"/>
      <point x="252" y="279" name="hr04"/>
      <point x="324" y="279" type="curve"/>
      <point x="324" y="268" type="line"/>
      <point x="252" y="268"/>
      <point x="215" y="255" name="hr05"/>
      <point x="215" y="188" type="curve" smooth="yes"/>
      <point x="215" y="161"/>
      <point x="221" y="128"/>
      <point x="232" y="84" type="curve" smooth="yes"/>
      <point x="247" y="29"/>
      <point x="252" y="4" name="hr06"/>
      <point x="252" y="-23" type="curve" smooth="yes"/>
      <point x="252" y="-110"/>
      <point x="201" y="-168"/>
      <point x="98" y="-201" type="curve"/>
    </contour>
  </outline>
</glyph>
<glyph name="asciitilde" format="2">
  <advance width="321"/>
  <unicode hex="007E"/>
  <outline>
    <contour>
      <point x="76" y="258" type="curve" smooth="yes"/>
      <point x="86" y="258"/>
      <point x="108" y="247"/>
      <point x="125" y="233" type="curve" smooth="yes"/>
      <point x="148" y="215"/>
      <point x="186" y="196"/>
      <point x="221" y="196" type="curve" smooth="yes"/>
      <point x="276" y="196"/>
      <point x="316" y="242"/>
      <point x="334" y="291" type="curve"/>
      <point x="288" y="308" type="line"/>
      <point x="270" y="272"/>
      <point x="256" y="254"/>
      <point x="245" y="254" type="curve" smooth="yes"/>
      <point x="237" y="254"/>
      <point x="220" y="263"/>
      <point x="213" y="268" type="curve" smooth="yes"/>
      <point x="202" y="275" type="line"/>
      <point x="202" y="275"/>
      <point x="201" y="276"/>
      <point x="197" y="279" type="curve" smooth="yes"/>
      <point x="173" y="297"/>
      <point x="135" y="316"/>
      <point x="100" y="316" type="curve" smooth="yes"/>
      <point x="45" y="316"/>
      <point x="5" y="270"/>
      <point x="-13" y="221" type="curve"/>
      <point x="33" y="204" type="line"/>
      <point x="51" y="240"/>
      <point x="65" y="258"/>
    </contour>
  </outline>
</glyph>
<glyph name="exclamdown" format="2">
  <advance width="241"/>
  <unicode hex="00A1"/>
  <outline>
    <contour>
      <point x="90" y="464" type="line"/>
      <point x="90" y="336"/>
      <point x="70" y="225"/>
      <point x="44" y="100" type="curve" smooth="yes"/>
      <point x="41" y="85"/>
      <point x="39" y="72"/>
      <point x="39" y="60" type="curve" smooth="yes"/>
      <point x="39" y="15"/>
      <point x="68" y="-12"/>
      <point x="120" y="-12" type="curve" smooth="yes"/>
      <point x="172" y="-12"/>
      <point x="201" y="15"/>
      <point x="201" y="60" type="curve" smooth="yes"/>
      <point x="201" y="72"/>
      <point x="199" y="85"/>
      <point x="196" y="100" type="curve" smooth="yes"/>
      <point x="170" y="225"/>
      <point x="150" y="336"/>
      <point x="150" y="464" type="curve"/>
    </contour>
    <contour>
      <point x="58" y="625" type="curve" smooth="yes"/>
      <point x="58" y="591"/>
      <point x="86" y="563"/>
      <point x="120" y="563" type="curve" smooth="yes"/>
      <point x="154" y="563"/>
      <point x="182" y="591"/>
      <point x="182" y="625" type="curve" smooth="yes"/>
      <point x="182" y="659"/>
      <point x="154" y="687"/>
      <point x="120" y="687" type="curve" smooth="yes"/>
      <point x="86" y="687"/>
      <point x="58" y="659"/>
    </contour>
  </outline>
</glyph>
<glyph name="cent" format="2">
  <advance width="594"/>
  <unicode hex="00A2"/>
  <outline>
    <contour>
      <point x="301" y="-11" type="line"/>
      <point x="185" y="1"/>
      <point x="104" y="111"/>
      <point x="104" y="243" type="curve" smooth="yes"/>
      <point x="104" y="375"/>
      <point x="186" y="487"/>
      <point x="301" y="497" type="curve"/>
      <point x="301" y="608" type="line"/>
      <point x="342" y="608" type="line"/>
      <point x="342" y="497" type="line"/>
      <point x="412" y="488"/>
      <point x="469" y="437"/>
      <point x="469" y="368" type="curve" smooth="yes"/>
      <point x="469" y="323"/>
      <point x="445" y="287"/>
      <point x="406" y="287" type="curve" smooth="yes"/>
      <point x="377" y="287"/>
      <point x="358" y="306"/>
      <point x="358" y="333" type="curve" smooth="yes"/>
      <point x="358" y="350"/>
      <point x="366" y="366"/>
      <point x="382" y="384" type="curve" smooth="yes"/>
      <point x="393" y="397"/>
      <point x="399" y="407"/>
      <point x="399" y="419" type="curve" smooth="yes"/>
      <point x="399" y="440"/>
      <point x="381" y="468"/>
      <point x="342" y="472" type="curve"/>
      <point x="342" y="18" type="line"/>
      <point x="419" y="18"/>
      <point x="454" y="100"/>
      <point x="461" y="166" type="curve"/>
      <point x="487" y="166" type="line"/>
      <point x="479" y="79"/>
      <point x="437" y="-1"/>
      <point x="342" y="-11" type="curve"/>
      <point x="342" y="-123" type="line"/>
      <point x="301" y="-123" type="line"/>
    </contour>
    <contour>
      <point x="301" y="467" type="line"/>
      <point x="258" y="445"/>
      <point x="236" y="370"/>
      <point x="236" y="243" type="curve" smooth="yes"/>
      <point x="236" y="170"/>
      <point x="238" y="137"/>
      <point x="245" y="108" type="curve" smooth="yes"/>
      <point x="255" y="66"/>
      <point x="273" y="42"/>
      <point x="301" y="29" type="curve"/>
    </contour>
  </outline>
</glyph>
<glyph name="sterling" format="2">
  <advance width="737"/>
  <unicode hex="00A3"/>
  <outline>
    <contour>
      <point x="465" y="-18" type="curve" smooth="yes"/>
      <point x="415" y="-18"/>
      <point x="363" y="2"/>
      <point x="300" y="43" type="curve"/>
      <point x="256" y="6"/>
      <point x="211" y="-12"/>
      <point x="164" y="-12" type="curve" smooth="yes"/>
      <point x="109" y="-12"/>
      <point x="66" y="12"/>
      <point x="66" y="62" type="curve" smooth="yes"/>
      <point x="66" y="116"/>
      <point x="115" y="154"/>
      <point x="160" y="154" type="curve" smooth="yes"/>
      <point x="204" y="154"/>
      <point x="237" y="143"/>
      <point x="297" y="120" type="curve"/>
      <point x="301" y="135"/>
      <point x="303" y="152"/>
      <point x="303" y="171" type="curve" smooth="yes"/>
      <point x="303" y="209"/>
      <point x="296" y="255"/>
      <point x="278" y="306" type="curve" smooth="yes"/>
      <point x="268" y="334"/>
      <point x="259" y="362"/>
      <point x="254" y="389" type="curve"/>
      <point x="215" y="391" type="line" smooth="yes"/>
      <point x="184.973" y="392.54"/>
      <point x="171" y="385"/>
      <point x="142" y="369" type="curve"/>
      <point x="126" y="399" type="line"/>
      <point x="146" y="418"/>
      <point x="168.99" y="429.805"/>
      <point x="206" y="428" type="curve" smooth="yes"/>
      <point x="247" y="426" type="line"/>
      <point x="244" y="450"/>
      <point x="242" y="473"/>
      <point x="242" y="494" type="curve" smooth="yes"/>
      <point x="242" y="636"/>
      <point x="338" y="745"/>
      <point x="480" y="745" type="curve" smooth="yes"/>
      <point x="573" y="745"/>
      <point x="670" y="698"/>
      <point x="670" y="611" type="curve" smooth="yes"/>
      <point x="670" y="560"/>
      <point x="636" y="516"/>
      <point x="592" y="516" type="curve" smooth="yes"/>
      <point x="560" y="516"/>
      <point x="529" y="539"/>
      <point x="529" y="575" type="curve" smooth="yes"/>
      <point x="529" y="598"/>
      <point x="541" y="610"/>
      <point x="561" y="627" type="curve" smooth="yes"/>
      <point x="577" y="642"/>
      <point x="582" y="652"/>
      <point x="582" y="663" type="curve" smooth="yes"/>
      <point x="582" y="692"/>
      <point x="551" y="719"/>
      <point x="502" y="719" type="curve" smooth="yes"/>
      <point x="407" y="719"/>
      <point x="393" y="618"/>
      <point x="393" y="548" type="curve" smooth="yes"/>
      <point x="393" y="516"/>
      <point x="396" y="465"/>
      <point x="403" y="398" type="curve"/>
      <point x="425" y="395"/>
      <point x="444" y="393"/>
      <point x="462" y="393" type="curve" smooth="yes"/>
      <point x="495" y="393"/>
      <point x="511" y="400"/>
      <point x="538" y="416" type="curve"/>
      <point x="554" y="385" type="line"/>
      <point x="535" y="366"/>
      <point x="507" y="356"/>
      <point x="468" y="356" type="curve" smooth="yes"/>
      <point x="451" y="356"/>
      <point x="430" y="358"/>
      <point x="408" y="361" type="curve"/>
      <point x="412" y="288" type="line" smooth="yes"/>
      <point x="412" y="221"/>
      <point x="389" y="155"/>
      <point x="352" y="102" type="curve"/>
      <point x="405" y="87"/>
      <point x="449" y="82"/>
      <point x="504" y="82" type="curve" smooth="yes"/>
      <point x="569" y="82"/>
      <point x="631" y="124"/>
      <point x="667" y="185" type="curve"/>
      <point x="692" y="174" type="line"/>
      <point x="657" y="79"/>
      <point x="574" y="-18"/>
    </contour>
    <contour>
      <point x="163" y="12" type="curve" smooth="yes"/>
      <point x="203" y="12"/>
      <point x="241" y="32"/>
      <point x="268" y="65" type="curve"/>
      <point x="220" y="96"/>
      <point x="186" y="113"/>
      <point x="154" y="113" type="curve" smooth="yes"/>
      <point x="118" y="113"/>
      <point x="94" y="92"/>
      <point x="94" y="63" type="curve" smooth="yes"/>
      <point x="94" y="27"/>
      <point x="129" y="12"/>
    </contour>
  </outline>
</glyph>
<glyph name="currency" format="2">
  <advance width="594"/>
  <unicode hex="00A4"/>
  <outline>
    <contour>
      <point x="39" y="136" type="line"/>
      <point x="109" y="207" type="line"/>
      <point x="76" y="249"/>
      <point x="59" y="297"/>
      <point x="59" y="351" type="curve" smooth="yes"/>
      <point x="59" y="405"/>
      <point x="76" y="453"/>
      <point x="109" y="497" type="curve"/>
      <point x="39" y="566" type="line"/>
      <point x="82" y="609" type="line"/>
      <point x="152" y="540" type="line"/>
      <point x="192" y="571"/>
      <point x="244" y="590"/>
      <point x="297" y="590" type="curve" smooth="yes"/>
      <point x="350" y="590"/>
      <point x="402" y="571"/>
      <point x="442" y="540" type="curve"/>
      <point x="512" y="609" type="line"/>
      <point x="555" y="566" type="line"/>
      <point x="485" y="497" type="line"/>
      <point x="518" y="453"/>
      <point x="535" y="405"/>
      <point x="535" y="351" type="curve" smooth="yes"/>
      <point x="535" y="297"/>
      <point x="518" y="249"/>
      <point x="485" y="207" type="curve"/>
      <point x="555" y="136" type="line"/>
      <point x="512" y="93" type="line"/>
      <point x="442" y="164" type="line"/>
      <point x="400" y="130"/>
      <point x="352" y="113"/>
      <point x="297" y="113" type="curve" smooth="yes"/>
      <point x="242" y="113"/>
      <point x="194" y="130"/>
      <point x="152" y="164" type="curve"/>
      <point x="82" y="93" type="line"/>
    </contour>
    <contour>
      <point x="298" y="179" type="curve" smooth="yes"/>
      <point x="400" y="179"/>
      <point x="469" y="249"/>
      <point x="469" y="351" type="curve" smooth="yes"/>
      <point x="469" y="453"/>
      <point x="401" y="524"/>
      <point x="298" y="524" type="curve" smooth="yes"/>
      <point x="196" y="524"/>
      <point x="125" y="454"/>
      <point x="125" y="352" type="curve" smooth="yes"/>
      <point x="125" y="249"/>
      <point x="194" y="179"/>
    </contour>
  </outline>
</glyph>
<glyph name="yen" format="2">
  <advance width="594"/>
  <unicode hex="00A5"/>
  <outline>
    <contour>
      <point x="119" y="33" type="line"/>
      <point x="193" y="33" type="line" smooth="yes"/>
      <point x="209" y="33"/>
      <point x="217" y="41"/>
      <point x="217" y="57" type="curve" smooth="yes"/>
      <point x="217" y="233" type="line"/>
      <point x="74" y="233" type="line"/>
      <point x="74" y="266" type="line"/>
      <point x="217" y="266" type="line"/>
      <point x="217" y="334" type="line"/>
      <point x="74" y="334" type="line"/>
      <point x="74" y="367" type="line"/>
      <point x="208" y="367" type="line"/>
      <point x="82" y="656" type="line" smooth="yes"/>
      <point x="70" y="683"/>
      <point x="57" y="696"/>
      <point x="37" y="696" type="curve" smooth="yes"/>
      <point x="18" y="696" type="line"/>
      <point x="18" y="729" type="line"/>
      <point x="289" y="729" type="line"/>
      <point x="289" y="696" type="line"/>
      <point x="264" y="696" type="line" smooth="yes"/>
      <point x="252" y="696"/>
      <point x="245" y="685"/>
      <point x="245" y="672" type="curve" smooth="yes"/>
      <point x="245" y="665"/>
      <point x="247" y="657"/>
      <point x="252" y="647" type="curve"/>
      <point x="354" y="412" type="line"/>
      <point x="440" y="596" type="line"/>
      <point x="447" y="609"/>
      <point x="453" y="636"/>
      <point x="453" y="653" type="curve" smooth="yes"/>
      <point x="453" y="672"/>
      <point x="441" y="696"/>
      <point x="420" y="696" type="curve" smooth="yes"/>
      <point x="394" y="696" type="line"/>
      <point x="394" y="729" type="line"/>
      <point x="575" y="729" type="line"/>
      <point x="575" y="696" type="line"/>
      <point x="559" y="696" type="line" smooth="yes"/>
      <point x="531" y="696"/>
      <point x="511" y="664"/>
      <point x="488" y="620" type="curve"/>
      <point x="369" y="367" type="line"/>
      <point x="512" y="367" type="line"/>
      <point x="512" y="334" type="line"/>
      <point x="369" y="334" type="line"/>
      <point x="369" y="266" type="line"/>
      <point x="512" y="266" type="line"/>
      <point x="512" y="233" type="line"/>
      <point x="369" y="233" type="line"/>
      <point x="369" y="57" type="line" smooth="yes"/>
      <point x="369" y="41"/>
      <point x="377" y="33"/>
      <point x="393" y="33" type="curve" smooth="yes"/>
      <point x="467" y="33" type="line"/>
      <point x="467" y="0" type="line"/>
      <point x="119" y="0" type="line"/>
    </contour>
  </outline>
</glyph>
<glyph name="section" format="2">
  <advance width="655"/>
  <unicode hex="00A7"/>
  <outline>
    <contour>
      <point x="269" y="-203" type="curve" smooth="yes"/>
      <point x="157" y="-203"/>
      <point x="94" y="-133"/>
      <point x="94" y="-66" type="curve" smooth="yes"/>
      <point x="94" y="-7"/>
      <point x="133" y="33"/>
      <point x="184" y="33" type="curve" smooth="yes"/>
      <point x="223" y="33"/>
      <point x="249" y="9" name="hr01"/>
      <point x="249" y="-27" type="curve" smooth="yes"/>
      <point x="249" y="-55"/>
      <point x="235" y="-72"/>
      <point x="211" y="-85" type="curve" smooth="yes"/>
      <point x="192" y="-96"/>
      <point x="176" y="-112" name="hr02"/>
      <point x="176" y="-127" type="curve" smooth="yes"/>
      <point x="176" y="-142"/>
      <point x="187" y="-154"/>
      <point x="208" y="-162" type="curve" smooth="yes"/>
      <point x="229" y="-170"/>
      <point x="250" y="-174"/>
      <point x="271" y="-174" type="curve" smooth="yes"/>
      <point x="339" y="-174"/>
      <point x="391" y="-133"/>
      <point x="391" y="-61" type="curve" smooth="yes"/>
      <point x="391" y="-4"/>
      <point x="366" y="27"/>
      <point x="314" y="51" type="curve" smooth="yes"/>
      <point x="160" y="124" type="line"/>
      <point x="88" y="156"/>
      <point x="51" y="206" name="hr03"/>
      <point x="51" y="281" type="curve" smooth="yes"/>
      <point x="51" y="342"/>
      <point x="85" y="396"/>
      <point x="130" y="429" type="curve"/>
      <point x="106" y="462"/>
      <point x="94" y="505" name="hr04"/>
      <point x="94" y="556" type="curve" smooth="yes"/>
      <point x="94" y="664"/>
      <point x="185" y="741"/>
      <point x="298" y="741" type="curve" smooth="yes"/>
      <point x="410" y="741"/>
      <point x="473" y="672"/>
      <point x="473" y="604" type="curve" smooth="yes"/>
      <point x="473" y="545"/>
      <point x="434" y="506"/>
      <point x="383" y="506" type="curve" smooth="yes"/>
      <point x="344" y="506"/>
      <point x="318" y="530"/>
      <point x="318" y="565" type="curve" smooth="yes"/>
      <point x="318" y="594"/>
      <point x="332" y="609"/>
      <point x="356" y="624" type="curve"/>
      <point x="376" y="635"/>
      <point x="391" y="650" name="hr05"/>
      <point x="391" y="666" type="curve" smooth="yes"/>
      <point x="391" y="681"/>
      <point x="381" y="692"/>
      <point x="361" y="701" type="curve"/>
      <point x="340" y="709"/>
      <point x="319" y="713"/>
      <point x="296" y="713" type="curve" smooth="yes"/>
      <point x="229" y="713"/>
      <point x="176" y="671"/>
      <point x="176" y="600" type="curve" smooth="yes"/>
      <point x="176" y="543"/>
      <point x="201" y="512"/>
      <point x="253" y="487" type="curve"/>
      <point x="408" y="415" type="line" smooth="yes"/>
      <point x="479" y="382"/>
      <point x="516" y="331" name="hr06"/>
      <point x="516" y="258" type="curve" smooth="yes"/>
      <point x="516" y="197"/>
      <point x="482" y="142"/>
      <point x="437" y="110" type="curve"/>
      <point x="461" y="76"/>
      <point x="473" y="34" name="hr07"/>
      <point x="473" y="-17" type="curve" smooth="yes"/>
      <point x="473" y="-126"/>
      <point x="383" y="-203"/>
    </contour>
    <contour>
      <point x="423" y="127" type="curve"/>
      <point x="450" y="147"/>
      <point x="459" y="166"/>
      <point x="459" y="194" type="curve" smooth="yes"/>
      <point x="459" y="225"/>
      <point x="446" y="250"/>
      <point x="422" y="262" type="curve" smooth="yes"/>
      <point x="217" y="360" type="line"/>
      <point x="188" y="375"/>
      <point x="163" y="392"/>
      <point x="144" y="412" type="curve"/>
      <point x="117" y="391"/>
      <point x="109" y="373"/>
      <point x="109" y="345" type="curve" smooth="yes"/>
      <point x="109" y="314"/>
      <point x="121" y="289"/>
      <point x="145" y="276" type="curve"/>
      <point x="350" y="178" type="line" smooth="yes"/>
      <point x="379" y="164"/>
      <point x="404" y="147"/>
    </contour>
  </outline>
</glyph>
<glyph name="dieresis" format="2">
  <advance width="298"/>
  <unicode hex="00A8"/>
  <anchor x="149" y="530" name="_t.dieresis"/>
  <outline>
    <contour>
      <point x="191" y="588" type="curve" smooth="yes"/>
      <point x="191" y="559"/>
      <point x="215" y="536"/>
      <point x="246" y="536" type="curve" smooth="yes"/>
      <point x="277" y="536"/>
      <point x="301" y="559"/>
      <point x="301" y="588" type="curve" smooth="yes"/>
      <point x="301" y="617"/>
      <point x="277" y="640"/>
      <point x="246" y="640" type="curve" smooth="yes"/>
      <point x="215" y="640"/>
      <point x="191" y="617"/>
    </contour>
    <contour>
      <point x="-3" y="588" type="curve" smooth="yes"/>
      <point x="-3" y="559"/>
      <point x="21" y="536"/>
      <point x="52" y="536" type="curve" smooth="yes"/>
      <point x="83" y="536"/>
      <point x="107" y="559"/>
      <point x="107" y="588" type="curve" smooth="yes"/>
      <point x="107" y="617"/>
      <point x="83" y="640"/>
      <point x="52" y="640" type="curve" smooth="yes"/>
      <point x="21" y="640"/>
      <point x="-3" y="617"/>
    </contour>
  </outline>
</glyph>
<glyph name="copyright" format="2">
  <advance width="804"/>
  <unicode hex="00A9"/>
  <outline>
    <contour>
      <point x="560" y="252" type="line"/>
      <point x="511" y="262" type="line"/>
      <point x="498" y="200"/>
      <point x="462" y="161"/>
      <point x="417" y="161" type="curve" smooth="yes"/>
      <point x="379" y="161"/>
      <point x="337" y="190"/>
      <point x="337" y="343" type="curve" smooth="yes"/>
      <point x="337" y="480"/>
      <point x="371" y="512"/>
      <point x="411" y="512" type="curve" smooth="yes"/>
      <point x="454" y="512"/>
      <point x="495" y="474"/>
      <point x="507" y="393" type="curve"/>
      <point x="564" y="393" type="line"/>
      <point x="564" y="546" type="line"/>
      <point x="512" y="546" type="line"/>
      <point x="507" y="538" type="line" smooth="yes"/>
      <point x="502" y="529"/>
      <point x="498" y="523"/>
      <point x="496" y="520" type="curve"/>
      <point x="495" y="521"/>
      <point x="494" y="522"/>
      <point x="493" y="522" type="curve" smooth="yes"/>
      <point x="480" y="529" type="line" smooth="yes"/>
      <point x="456" y="541"/>
      <point x="432" y="546"/>
      <point x="405" y="546" type="curve" smooth="yes"/>
      <point x="292" y="546"/>
      <point x="208" y="452"/>
      <point x="208" y="333" type="curve" smooth="yes"/>
      <point x="208" y="204"/>
      <point x="308" y="124"/>
      <point x="410" y="124" type="curve" smooth="yes"/>
      <point x="490" y="124"/>
      <point x="557" y="174"/>
      <point x="570" y="253" type="curve"/>
    </contour>
    <contour>
      <point x="113" y="340" type="curve" smooth="yes"/>
      <point x="113" y="507"/>
      <point x="244" y="644"/>
      <point x="402" y="644" type="curve" smooth="yes"/>
      <point x="560" y="644"/>
      <point x="691" y="507"/>
      <point x="691" y="340" type="curve" smooth="yes"/>
      <point x="691" y="173"/>
      <point x="560" y="36"/>
      <point x="402" y="36" type="curve" smooth="yes"/>
      <point x="244" y="36"/>
      <point x="113" y="173"/>
    </contour>
    <contour>
      <point x="35" y="340" type="curve" smooth="yes"/>
      <point x="35" y="147"/>
      <point x="200" y="-12"/>
      <point x="402" y="-12" type="curve" smooth="yes"/>
      <point x="604" y="-12"/>
      <point x="769" y="147"/>
      <point x="769" y="340" type="curve" smooth="yes"/>
      <point x="769" y="533"/>
      <point x="604" y="692"/>
      <point x="402" y="692" type="curve" smooth="yes"/>
      <point x="200" y="692"/>
      <point x="35" y="533"/>
    </contour>
  </outline>
</glyph>
<glyph name="ordfeminine" format="2">
  <advance width="389"/>
  <unicode hex="00AA"/>
  <outline>
    <contour>
      <point x="129" y="420" type="curve" smooth="yes"/>
      <point x="85" y="420"/>
      <point x="45" y="442"/>
      <point x="45" y="495" type="curve" smooth="yes"/>
      <point x="45" y="551"/>
      <point x="91" y="575"/>
      <point x="164" y="599" type="curve" smooth="yes"/>
      <point x="203" y="613" type="line"/>
      <point x="203" y="654" type="line" smooth="yes"/>
      <point x="203" y="692"/>
      <point x="189" y="711"/>
      <point x="159" y="711" type="curve" smooth="yes"/>
      <point x="136" y="711"/>
      <point x="117" y="700"/>
      <point x="117" y="683" type="curve" smooth="yes"/>
      <point x="117" y="676"/>
      <point x="121" y="670"/>
      <point x="132" y="663" type="curve" smooth="yes"/>
      <point x="142" y="657"/>
      <point x="147" y="651" name="hr01"/>
      <point x="147" y="640" type="curve" smooth="yes"/>
      <point x="147" y="619"/>
      <point x="127" y="608"/>
      <point x="106" y="608" type="curve" smooth="yes"/>
      <point x="83" y="608"/>
      <point x="61" y="623"/>
      <point x="61" y="653" type="curve" smooth="yes"/>
      <point x="61" y="707"/>
      <point x="127" y="729"/>
      <point x="177" y="729" type="curve" smooth="yes"/>
      <point x="234" y="729"/>
      <point x="289" y="701"/>
      <point x="289" y="640" type="curve" smooth="yes"/>
      <point x="289" y="478" type="line" smooth="yes"/>
      <point x="289" y="464"/>
      <point x="293" y="457"/>
      <point x="300" y="457" type="curve" smooth="yes"/>
      <point x="315" y="457"/>
      <point x="324" y="485"/>
      <point x="324" y="516" type="curve"/>
      <point x="344" y="516" type="line"/>
      <point x="344" y="461"/>
      <point x="334" y="420"/>
      <point x="271" y="420" type="curve" smooth="yes"/>
      <point x="238" y="420"/>
      <point x="219" y="431"/>
      <point x="206" y="458" type="curve"/>
      <point x="205" y="458" type="line"/>
      <point x="192" y="435"/>
      <point x="166" y="420"/>
    </contour>
    <contour>
      <point x="169" y="451" type="curve" smooth="yes"/>
      <point x="182" y="451" name="hr02"/>
      <point x="193" y="459"/>
      <point x="203" y="474" type="curve"/>
      <point x="203" y="595" type="line"/>
      <point x="175" y="585" type="line" smooth="yes"/>
      <point x="149" y="576"/>
      <point x="135" y="547"/>
      <point x="135" y="507" type="curve" smooth="yes"/>
      <point x="135" y="463"/>
      <point x="152" y="451"/>
    </contour>
    <contour>
      <point x="53" y="354" type="line"/>
      <point x="53" y="387" type="line"/>
      <point x="336" y="387" type="line"/>
      <point x="336" y="354" type="line"/>
    </contour>
  </outline>
</glyph>
<glyph name="registered" format="2">
  <advance width="840"/>
  <unicode hex="00AE"/>
  <outline>
    <contour>
      <point x="420" y="-18" type="curve" smooth="yes"/>
      <point x="351" y="-18"/>
      <point x="288" y="-1"/>
      <point x="231" y="34" type="curve" smooth="yes"/>
      <point x="118" y="102"/>
      <point x="49" y="225"/>
      <point x="49" y="365" type="curve" smooth="yes"/>
      <point x="49" y="434"/>
      <point x="65" y="498"/>
      <point x="98" y="557" type="curve" smooth="yes"/>
      <point x="130" y="615"/>
      <point x="174" y="661"/>
      <point x="231" y="696" type="curve" smooth="yes"/>
      <point x="288" y="731"/>
      <point x="351" y="748"/>
      <point x="420" y="748" type="curve" smooth="yes"/>
      <point x="489" y="748"/>
      <point x="551" y="731"/>
      <point x="608" y="696" type="curve" smooth="yes"/>
      <point x="665" y="661"/>
      <point x="709" y="615"/>
      <point x="742" y="557" type="curve" smooth="yes"/>
      <point x="775" y="498"/>
      <point x="791" y="434"/>
      <point x="791" y="365" type="curve" smooth="yes"/>
      <point x="791" y="295"/>
      <point x="775" y="231"/>
      <point x="742" y="173" type="curve" smooth="yes"/>
      <point x="677" y="56"/>
      <point x="556" y="-18"/>
    </contour>
    <contour>
      <point x="420" y="18" type="curve" smooth="yes"/>
      <point x="481" y="18"/>
      <point x="537" y="34"/>
      <point x="588" y="66" type="curve" smooth="yes"/>
      <point x="689" y="129"/>
      <point x="750" y="240"/>
      <point x="750" y="365" type="curve" smooth="yes"/>
      <point x="750" y="427"/>
      <point x="736" y="484"/>
      <point x="707" y="537" type="curve" smooth="yes"/>
      <point x="678" y="590"/>
      <point x="639" y="632"/>
      <point x="588" y="664" type="curve" smooth="yes"/>
      <point x="537" y="695"/>
      <point x="481" y="711"/>
      <point x="420" y="711" type="curve" smooth="yes"/>
      <point x="359" y="711"/>
      <point x="303" y="695"/>
      <point x="252" y="664" type="curve" smooth="yes"/>
      <point x="151" y="600"/>
      <point x="90" y="489"/>
      <point x="90" y="365" type="curve" smooth="yes"/>
      <point x="90" y="302"/>
      <point x="104" y="245"/>
      <point x="133" y="192" type="curve" smooth="yes"/>
      <point x="162" y="139"/>
      <point x="201" y="97"/>
      <point x="252" y="66" type="curve" smooth="yes"/>
      <point x="303" y="34"/>
      <point x="359" y="18"/>
    </contour>
    <contour>
      <point x="575" y="115" type="curve" smooth="yes"/>
      <point x="514" y="115"/>
      <point x="475" y="149"/>
      <point x="475" y="213" type="curve" smooth="yes"/>
      <point x="475" y="294" type="line" smooth="yes"/>
      <point x="475" y="337"/>
      <point x="456" y="369"/>
      <point x="417" y="369" type="curve" smooth="yes"/>
      <point x="383" y="369" type="line"/>
      <point x="383" y="176" type="line" smooth="yes"/>
      <point x="383" y="164"/>
      <point x="389" y="158"/>
      <point x="401" y="158" type="curve" smooth="yes"/>
      <point x="451" y="158" type="line"/>
      <point x="451" y="133" type="line"/>
      <point x="209" y="133" type="line"/>
      <point x="209" y="158" type="line" name="hr01"/>
      <point x="250" y="158" type="line" smooth="yes"/>
      <point x="262" y="158"/>
      <point x="268" y="164"/>
      <point x="268" y="176" type="curve" smooth="yes"/>
      <point x="268" y="557" type="line" smooth="yes"/>
      <point x="268" y="569"/>
      <point x="262" y="575"/>
      <point x="250" y="575" type="curve" smooth="yes"/>
      <point x="209" y="575" type="line"/>
      <point x="209" y="600" type="line"/>
      <point x="438" y="600" type="line" smooth="yes"/>
      <point x="539" y="600"/>
      <point x="606" y="556"/>
      <point x="606" y="484" type="curve" smooth="yes"/>
      <point x="606" y="424"/>
      <point x="550" y="387"/>
      <point x="467" y="379" type="curve"/>
      <point x="467" y="374" type="line"/>
      <point x="546" y="362"/>
      <point x="590" y="330"/>
      <point x="590" y="255" type="curve" smooth="yes"/>
      <point x="590" y="184" type="line" smooth="yes"/>
      <point x="590" y="165"/>
      <point x="595" y="158"/>
      <point x="606" y="158" type="curve" smooth="yes"/>
      <point x="629" y="158"/>
      <point x="637" y="200" name="hr03"/>
      <point x="637" y="252" type="curve"/>
      <point x="662" y="252" type="line"/>
      <point x="662" y="164"/>
      <point x="640" y="115"/>
    </contour>
    <contour>
      <point x="424" y="394" type="line" smooth="yes"/>
      <point x="468" y="394"/>
      <point x="483" y="429"/>
      <point x="483" y="488" type="curve" smooth="yes"/>
      <point x="483" y="547"/>
      <point x="469" y="575"/>
      <point x="424" y="575" type="curve" smooth="yes"/>
      <point x="401" y="575" type="line" smooth="yes"/>
      <point x="389" y="575"/>
      <point x="383" y="569"/>
      <point x="383" y="557" type="curve" smooth="yes"/>
      <point x="383" y="394" type="line"/>
    </contour>
  </outline>
</glyph>
<glyph name="macron" format="2">
  <advance width="471"/>
  <unicode hex="00AF"/>
  <outline>
    <contour>
      <point x="102" y="598" type="line"/>
      <point x="102" y="664" type="line"/>
      <point x="369" y="664" type="line"/>
      <point x="369" y="598" type="line"/>
    </contour>
  </outline>
</glyph>
<glyph name="degree" format="2">
  <advance width="216"/>
  <unicode hex="00B0"/>
  <outline>
    <contour>
      <point x="52" y="638" type="curve" smooth="yes"/>
      <point x="52" y="680"/>
      <point x="78" y="709"/>
      <point x="108" y="709" type="curve" smooth="yes"/>
      <point x="141" y="709"/>
      <point x="164" y="677"/>
      <point x="164" y="638" type="curve" smooth="yes"/>
      <point x="164" y="596"/>
      <point x="138" y="567"/>
      <point x="108" y="567" type="curve" smooth="yes"/>
      <point x="75" y="567"/>
      <point x="52" y="599"/>
    </contour>
    <contour>
      <point x="-15" y="638" type="curve" smooth="yes"/>
      <point x="-15" y="580"/>
      <point x="37" y="530"/>
      <point x="108" y="530" type="curve" smooth="yes"/>
      <point x="175" y="530"/>
      <point x="231" y="576"/>
      <point x="231" y="638" type="curve" smooth="yes"/>
      <point x="231" y="696"/>
      <point x="179" y="746"/>
      <point x="108" y="746" type="curve" smooth="yes"/>
      <point x="41" y="746"/>
      <point x="-15" y="700"/>
    </contour>
  </outline>
</glyph>
<glyph name="twosuperior" format="2">
  <advance width="397"/>
  <unicode hex="00B2"/>
  <outline>
    <contour>
      <point x="237" y="281" type="curve" smooth="yes"/>
      <point x="208" y="281"/>
      <point x="179" y="297"/>
      <point x="148" y="328" type="curve" smooth="yes"/>
      <point x="132" y="345"/>
      <point x="123" y="352"/>
      <point x="106" y="352" type="curve" smooth="yes"/>
      <point x="94" y="352"/>
      <point x="84" y="343" name="hr01"/>
      <point x="84" y="331" type="curve" smooth="yes"/>
      <point x="84" y="293" type="line"/>
      <point x="55" y="293" type="line"/>
      <point x="55" y="322" type="line" smooth="yes"/>
      <point x="55" y="347"/>
      <point x="60" y="372"/>
      <point x="71" y="397" type="curve" smooth="yes"/>
      <point x="81" y="422"/>
      <point x="104" y="450"/>
      <point x="139" y="481" type="curve" smooth="yes"/>
      <point x="206" y="541"/>
      <point x="240" y="579"/>
      <point x="240" y="634" type="curve" smooth="yes"/>
      <point x="240" y="679"/>
      <point x="222" y="714"/>
      <point x="177" y="714" type="curve" smooth="yes"/>
      <point x="146" y="714"/>
      <point x="123" y="691" name="hr02"/>
      <point x="123" y="666" type="curve" smooth="yes"/>
      <point x="123" y="650"/>
      <point x="129" y="638"/>
      <point x="140" y="631" type="curve" smooth="yes"/>
      <point x="160" y="618"/>
      <point x="168" y="607" name="hr03"/>
      <point x="168" y="590" type="curve" smooth="yes"/>
      <point x="168" y="569"/>
      <point x="147" y="554"/>
      <point x="122" y="554" type="curve" smooth="yes"/>
      <point x="82" y="554"/>
      <point x="49" y="581"/>
      <point x="49" y="624" type="curve" smooth="yes"/>
      <point x="49" y="688"/>
      <point x="114" y="741"/>
      <point x="197" y="741" type="curve" smooth="yes"/>
      <point x="297" y="741"/>
      <point x="350" y="699"/>
      <point x="350" y="635" type="curve" smooth="yes"/>
      <point x="350" y="583"/>
      <point x="294" y="530"/>
      <point x="183" y="477" type="curve" smooth="yes"/>
      <point x="166" y="469"/>
      <point x="148" y="456"/>
      <point x="129" y="439" type="curve" smooth="yes"/>
      <point x="110" y="422"/>
      <point x="99" y="403"/>
      <point x="94" y="383" type="curve"/>
      <point x="98" y="381" type="line"/>
      <point x="115" y="398"/>
      <point x="132" y="406"/>
      <point x="150" y="406" type="curve" smooth="yes"/>
      <point x="164" y="406"/>
      <point x="183" y="404"/>
      <point x="207" y="400" type="curve" smooth="yes"/>
      <point x="228" y="397"/>
      <point x="248" y="395"/>
      <point x="267" y="395" type="curve" smooth="yes"/>
      <point x="300" y="395"/>
      <point x="324" y="413" name="hr04"/>
      <point x="324" y="433" type="curve" smooth="yes"/>
      <point x="324" y="446"/>
      <point x="322" y="457"/>
      <point x="319" y="468" type="curve"/>
      <point x="343" y="468" type="line"/>
      <point x="346" y="451"/>
      <point x="347" y="434"/>
      <point x="347" y="417" type="curve" smooth="yes"/>
      <point x="347" y="382"/>
      <point x="338" y="350"/>
      <point x="320" y="323" type="curve" smooth="yes"/>
      <point x="302" y="295"/>
      <point x="274" y="281"/>
    </contour>
  </outline>
</glyph>
<glyph name="periodcentered" format="2">
  <advance width="322"/>
  <unicode hex="00B7"/>
  <outline>
    <contour>
      <point x="65" y="280" type="curve" smooth="yes"/>
      <point x="65" y="236"/>
      <point x="108" y="199"/>
      <point x="161" y="199" type="curve" smooth="yes"/>
      <point x="214" y="199"/>
      <point x="257" y="236"/>
      <point x="257" y="280" type="curve" smooth="yes"/>
      <point x="257" y="324"/>
      <point x="214" y="361"/>
      <point x="161" y="361" type="curve" smooth="yes"/>
      <point x="108" y="361"/>
      <point x="65" y="324"/>
    </contour>
  </outline>
</glyph>
<glyph name="cedilla" format="2">
  <advance width="233"/>
  <unicode hex="00B8"/>
  <outline>
    <contour>
      <point x="72" y="-90" type="line"/>
      <point x="89" y="-107" type="line"/>
      <point x="107" y="-100"/>
      <point x="117" y="-96"/>
      <point x="122" y="-96" type="curve" smooth="yes"/>
      <point x="137" y="-96"/>
      <point x="146" y="-115"/>
      <point x="146" y="-152" type="curve" smooth="yes"/>
      <point x="146" y="-190"/>
      <point x="128" y="-212"/>
      <point x="102" y="-212" type="curve" smooth="yes"/>
      <point x="85" y="-212"/>
      <point x="55" y="-194"/>
      <point x="19" y="-153" type="curve"/>
      <point x="-12" y="-187" type="line"/>
      <point x="12" y="-218"/>
      <point x="63" y="-239"/>
      <point x="110" y="-239" type="curve" smooth="yes"/>
      <point x="175" y="-239"/>
      <point x="248" y="-212"/>
      <point x="248" y="-148" type="curve" smooth="yes"/>
      <point x="248" y="-85"/>
      <point x="181" y="-70" name="hr01"/>
      <point x="129" y="-70" type="curve"/>
      <point x="134" y="-70" type="line"/>
      <point x="134" y="12" type="line"/>
      <point x="72" y="12" type="line"/>
    </contour>
  </outline>
</glyph>
<glyph name="onesuperior" format="2">
  <advance width="312"/>
  <unicode hex="00B9"/>
  <outline>
    <contour>
      <point x="172" y="729" type="line"/>
      <point x="146" y="689"/>
      <point x="120" y="674"/>
      <point x="58" y="660" type="curve"/>
      <point x="58" y="648" type="line"/>
      <point x="66" y="649"/>
      <point x="72" y="649"/>
      <point x="75" y="649" type="curve" smooth="yes"/>
      <point x="94" y="649"/>
      <point x="131" y="645"/>
      <point x="131" y="622" type="curve" smooth="yes"/>
      <point x="131" y="388" type="line" smooth="yes"/>
      <point x="131" y="368"/>
      <point x="126" y="359"/>
      <point x="112" y="359" type="curve" smooth="yes"/>
      <point x="74" y="359" type="line"/>
      <point x="74" y="339" type="line"/>
      <point x="262" y="339" type="line"/>
      <point x="262" y="359" type="line"/>
      <point x="224" y="359" type="line" smooth="yes"/>
      <point x="210" y="359"/>
      <point x="204" y="368"/>
      <point x="204" y="388" type="curve" smooth="yes"/>
      <point x="204" y="729" type="line"/>
    </contour>
  </outline>
</glyph>
<glyph name="ordmasculine" format="2">
  <advance width="389"/>
  <unicode hex="00BA"/>
  <outline>
    <contour>
      <point x="195" y="371" type="curve" smooth="yes"/>
      <point x="118" y="371"/>
      <point x="57" y="441"/>
      <point x="57" y="525" type="curve" smooth="yes"/>
      <point x="57" y="609"/>
      <point x="118" y="680"/>
      <point x="195" y="680" type="curve" smooth="yes"/>
      <point x="271" y="680"/>
      <point x="332" y="609"/>
      <point x="332" y="525" type="curve" smooth="yes"/>
      <point x="332" y="441"/>
      <point x="271" y="371"/>
    </contour>
    <contour>
      <point x="193" y="389" type="curve" smooth="yes"/>
      <point x="227" y="389"/>
      <point x="237" y="434"/>
      <point x="237" y="525" type="curve" smooth="yes"/>
      <point x="237" y="617"/>
      <point x="227" y="662"/>
      <point x="193" y="662" type="curve" smooth="yes"/>
      <point x="159" y="662"/>
      <point x="152" y="618"/>
      <point x="152" y="525" type="curve" smooth="yes"/>
      <point x="152" y="433"/>
      <point x="159" y="389"/>
    </contour>
    <contour>
      <point x="57" y="295" type="line"/>
      <point x="57" y="328" type="line"/>
      <point x="332" y="328" type="line"/>
      <point x="332" y="295" type="line"/>
    </contour>
  </outline>
</glyph>
<glyph name="guillemotright" format="2">
  <advance width="547"/>
  <unicode hex="00BB"/>
  <outline>
    <contour>
      <point x="173" y="240" type="curve"/>
      <point x="136" y="177"/>
      <point x="87" y="87"/>
      <point x="67" y="45" type="curve"/>
      <point x="110" y="30" type="line"/>
      <point x="156" y="96"/>
      <point x="227" y="172"/>
      <point x="296" y="233" type="curve"/>
      <point x="296" y="247" type="line"/>
      <point x="227" y="308"/>
      <point x="156" y="384"/>
      <point x="110" y="450" type="curve"/>
      <point x="67" y="435" type="line"/>
      <point x="87" y="393"/>
      <point x="136" y="303"/>
    </contour>
    <contour>
      <point x="363" y="240" type="curve"/>
      <point x="326" y="177"/>
      <point x="277" y="87"/>
      <point x="257" y="45" type="curve"/>
      <point x="300" y="30" type="line"/>
      <point x="346" y="96"/>
      <point x="417" y="172"/>
      <point x="486" y="233" type="curve"/>
      <point x="486" y="247" type="line"/>
      <point x="417" y="308"/>
      <point x="346" y="384"/>
      <point x="300" y="450" type="curve"/>
      <point x="257" y="435" type="line"/>
      <point x="277" y="393"/>
      <point x="326" y="303"/>
    </contour>
  </outline>
</glyph>
<glyph name="onequarter" format="2">
  <advance width="881"/>
  <unicode hex="00BC"/>
  <outline>
    <contour>
      <point x="153" y="747" type="line"/>
      <point x="46" y="600" type="line"/>
      <point x="73" y="579" type="line"/>
      <point x="144" y="659" type="line"/>
      <point x="143" y="658"/>
      <point x="143" y="655"/>
      <point x="143" y="653" type="curve"/>
      <point x="143" y="367" type="line" smooth="yes"/>
      <point x="143" y="344"/>
      <point x="136" y="335"/>
      <point x="121" y="335" type="curve" smooth="yes"/>
      <point x="79" y="335" type="line"/>
      <point x="79" y="312" type="line"/>
      <point x="287" y="312" type="line"/>
      <point x="287" y="335" type="line"/>
      <point x="245" y="335" type="line" smooth="yes"/>
      <point x="230" y="335"/>
      <point x="223" y="344"/>
      <point x="223" y="367" type="curve" smooth="yes"/>
      <point x="223" y="747" type="line"/>
    </contour>
    <contour>
      <point x="740" y="139" type="line"/>
      <point x="835" y="139" type="line"/>
      <point x="835" y="165" type="line"/>
      <point x="740" y="165" type="line"/>
      <point x="740" y="369" type="line" smooth="yes"/>
      <point x="740" y="372"/>
      <point x="735" y="374"/>
      <point x="727" y="374" type="curve" smooth="yes"/>
      <point x="721" y="374"/>
      <point x="716" y="373"/>
      <point x="714" y="371" type="curve" smooth="yes"/>
      <point x="653" y="280" type="line"/>
      <point x="653" y="165" type="line"/>
      <point x="663" y="165" type="line"/>
      <point x="523" y="165" type="line"/>
      <point x="551" y="210"/>
      <point x="579" y="250"/>
      <point x="607" y="290" type="curve" smooth="yes"/>
      <point x="656" y="359"/>
      <point x="702" y="424"/>
      <point x="734" y="494" type="curve"/>
      <point x="604" y="494" type="line"/>
      <point x="585" y="380"/>
      <point x="543" y="280"/>
      <point x="475" y="162" type="curve"/>
      <point x="475" y="139" type="line"/>
      <point x="653" y="139" type="line"/>
      <point x="653" y="79" type="line" smooth="yes"/>
      <point x="653" y="54"/>
      <point x="645" y="44"/>
      <point x="628" y="44" type="curve" smooth="yes"/>
      <point x="583" y="44" type="line"/>
      <point x="583" y="19" type="line"/>
      <point x="810" y="19" type="line"/>
      <point x="810" y="44" type="line"/>
      <point x="764" y="44" type="line" smooth="yes"/>
      <point x="748" y="44"/>
      <point x="740" y="54"/>
      <point x="740" y="79" type="curve" smooth="yes"/>
    </contour>
    <contour>
      <point x="168" y="0" type="line"/>
      <point x="219" y="0" type="line"/>
      <point x="663" y="766" type="line"/>
      <point x="614" y="766" type="line"/>
    </contour>
  </outline>
</glyph>
<glyph name="questiondown" format="2">
  <advance width="408"/>
  <unicode hex="00BF"/>
  <outline>
    <contour>
      <point x="136" y="128" type="curve" smooth="yes"/>
      <point x="136" y="39"/>
      <point x="175" y="16"/>
      <point x="218" y="16" type="curve" smooth="yes"/>
      <point x="267" y="16"/>
      <point x="295" y="46"/>
      <point x="295" y="71" type="curve" smooth="yes"/>
      <point x="295" y="82"/>
      <point x="291" y="86"/>
      <point x="283" y="92" type="curve"/>
      <point x="281" y="93" type="line"/>
      <point x="262" y="106"/>
      <point x="240" y="121" name="hr01"/>
      <point x="240" y="147" type="curve" smooth="yes"/>
      <point x="240" y="180"/>
      <point x="276" y="204"/>
      <point x="317" y="204" type="curve" smooth="yes"/>
      <point x="366" y="204"/>
      <point x="398" y="169"/>
      <point x="398" y="124" type="curve" smooth="yes"/>
      <point x="398" y="50"/>
      <point x="311" y="-12"/>
      <point x="194" y="-12" type="curve" smooth="yes"/>
      <point x="84" y="-12"/>
      <point x="0" y="42"/>
      <point x="0" y="137" type="curve" smooth="yes"/>
      <point x="0" y="210"/>
      <point x="49" y="253"/>
      <point x="98" y="296" type="curve" smooth="yes"/>
      <point x="157" y="349"/>
      <point x="181" y="378" name="hr02"/>
      <point x="181" y="464" type="curve"/>
      <point x="247" y="464" type="line"/>
      <point x="248" y="456"/>
      <point x="248" y="450"/>
      <point x="248" y="449" type="curve" smooth="yes"/>
      <point x="248" y="389"/>
      <point x="222" y="346"/>
      <point x="194" y="301" type="curve" smooth="yes"/>
      <point x="166" y="255"/>
      <point x="136" y="206"/>
    </contour>
    <contour>
      <point x="256" y="625" type="curve" smooth="yes"/>
      <point x="256" y="659" name="hr03"/>
      <point x="234" y="687"/>
      <point x="209" y="687" type="curve" smooth="yes"/>
      <point x="184" y="687"/>
      <point x="162" y="659"/>
      <point x="162" y="625" type="curve" smooth="yes"/>
      <point x="162" y="591"/>
      <point x="184" y="563"/>
      <point x="209" y="563" type="curve" smooth="yes"/>
      <point x="234" y="563"/>
      <point x="256" y="591"/>
    </contour>
  </outline>
</glyph>
<glyph name="Agrave" format="2">
  <advance width="724"/>
  <unicode hex="00C0"/>
  <outline>
    <contour>
      <point x="407" y="896" type="curve"/>
      <point x="266" y="896" type="line"/>
      <point x="260" y="879" type="line"/>
      <point x="301" y="839"/>
      <point x="419" y="751"/>
      <point x="488" y="712" type="curve"/>
      <point x="499" y="741" type="line"/>
      <point x="467" y="780"/>
      <point x="425" y="849"/>
    </contour>
    <contour>
      <point x="275" y="35" type="line"/>
      <point x="220" y="35" type="line" smooth="yes"/>
      <point x="192" y="35"/>
      <point x="177" y="38"/>
      <point x="177" y="61" type="curve" smooth="yes"/>
      <point x="177" y="73"/>
      <point x="180" y="86"/>
      <point x="187" y="101" type="curve"/>
      <point x="194" y="120"/>
      <point x="222" y="196"/>
      <point x="231" y="216" type="curve"/>
      <point x="449" y="216" type="line"/>
      <point x="487" y="110" type="line" smooth="yes"/>
      <point x="493" y="94"/>
      <point x="496" y="80"/>
      <point x="496" y="67" type="curve" smooth="yes"/>
      <point x="496" y="40"/>
      <point x="481" y="35"/>
      <point x="456" y="35" type="curve" smooth="yes"/>
      <point x="409" y="35" type="line"/>
      <point x="409" y="0" type="line"/>
      <point x="727" y="0" type="line"/>
      <point x="727" y="35" type="line"/>
      <point x="688" y="35" type="line" smooth="yes"/>
      <point x="652" y="35"/>
      <point x="646" y="37"/>
      <point x="621" y="106" type="curve" smooth="yes"/>
      <point x="411" y="692" type="line"/>
      <point x="345" y="692" type="line"/>
      <point x="113" y="96" type="line" smooth="yes"/>
      <point x="90" y="37"/>
      <point x="79" y="35"/>
      <point x="42" y="35" type="curve" smooth="yes"/>
      <point x="-5" y="35" type="line"/>
      <point x="-5" y="0" type="line"/>
      <point x="275" y="0" type="line"/>
    </contour>
    <contour>
      <point x="245" y="252" type="line"/>
      <point x="346" y="516" type="line"/>
      <point x="437" y="252" type="line"/>
      <point x="452" y="252" type="line"/>
    </contour>
  </outline>
</glyph>
